<?xml version="1.0" encoding="UTF-8"?>
<svg id="Calque_1" xmlns="http://www.w3.org/2000/svg" version="1.1" viewBox="0 0 272.8 362">
  <!-- Generator: Adobe Illustrator 29.8.5, SVG Export Plug-In . SVG Version: 2.1.1 Build 2)  -->
  <defs>
    <style>
      .st0 {
        fill: #c7bb9f;
      }

      .st1 {
        fill: #a2c280;
      }

      .st2 {
        fill: #8d8372;
      }

      .st3 {
        fill: #84ab42;
      }

      .st4 {
        fill: #4d7138;
      }

      .st5 {
        fill: #ada28e;
      }

      .st6 {
        fill: #f9f8f7;
      }

      .st7 {
        fill: #bbae91;
      }

      .st8 {
        fill: #fbfaef;
      }

      .st9 {
        fill: #92b94d;
      }
    </style>
  </defs>
  <path class="st9" d="M123.4,133.3c-1.4,9.5,2.2,20,10.3,25.5,11.9,8.2,25.7,1.1,29.5-12s1-14.9-2.5-21.5c1-.3,1.7-.9,2.9-1s1,0,1.6.1c7.5,1.5,18.9,7.8,26.1,8.1,0,.4,0,.9,0,1.3s-1,1.4.3,1.3c0,.7,0,1.5,0,2.2s-1,1.8.3,1.6c0,.9,0,1.9,0,2.9s-1.1,2.1.3,1.9c0,2.8,0,5.7,0,8.6-1-.3-.7,1.8-.6,2.7s.3.4.3.5c0,1.3,0,2.6,0,3.8-1.4-.2-.4,1.6-.3,2.2s0,1.3,0,1.9c0,0-.8,0-1.3-.2-6.8-2.9-10.2-3.3-15.1,3-5.9,7.6-1.6,14.9,0,23.1,1.9,9.6,2.7,19.3,0,28.8s-5.4,12.3.2,14.4,3.3,0,5.5-.6v5.2c0,2.3,2.7,5.9,4.8,6.8-.6.6,0,1.1,0,1.3,0,.4,0,.9,0,1.3-1.3-.2-.4.9-.3,1.3s0,.9,0,1.3c-1.3-.2-.3.7-.3,1,0,.5,0,1.1,0,1.6-1.4-.2-.3,1-.3,1.3,0,.5,0,1.1,0,1.6-1.3-.2-.4.9-.3,1.3s0,.6,0,1c-1.4-.2-.4,1.1-.3,1.6s0,.6,0,1c-1.3-.2-.4.9-.3,1.3s0,.6,0,1c-.8-.1-.6.2-.6,1,0,0,0,.8,0,1l-.3.6s0,.8,0,1l-.3.6s0,.7,0,1l-.3.5.3.2c0,.2,0,.4,0,.6-.7-.1-.9.1-.3.6,0,.2,0,.4,0,.6-1.3-.1-.4.6-.3,1s0,.4,0,.6c-.7-.1-.9.1-.3.6,0,.2,0,.4,0,.6-.7-.1-.9.1-.3.6,0,.3,0,.6,0,1-1.3-.1-.4.6-.3,1s-.1.9,0,1.2.9.3,1.2.4c0,.7,0,.7.6.6,0,0,1.2.4,1.6.6,0,.7,0,.7.6.6,2.7,1.7,3.5,1.8,5.4,4.4l.3,2.5c-.6.8.3,1-1.6,1.9s-1.5,0-1.3,1c-.2,0-.5,0-.6,0-.5-.6-.8-.4-.6.3-.2,0-.4,0-.6,0-.1-.5-.7-.4-1,0-.4,0-.8.3-1.3.3-.1-.5-.7-.4-1,0-.5,0-1.1.2-1.6.3-.6-.9-1.5,0-1.9,0-1.4.3-2.3.4-3.8.3-5-.1-10.3-.5-15.4-.3s-1.3-.3-1.1.6c-4.2,0-8.5,0-12.7,0,.2-1-.5-.6-1.1-.6-1.5,0-2.9.3-4,.3s-1.5,0-2.2,0c.3-.8-.7-.9-1.3-.3-.4,0-.9-.2-1.3-.3-.2-.4-.8-.5-1,0-.3,0-.7-.1-1-.3,0-.8.2-1.1-.6-1-.2-.3-.3-.9-.3-1,0-.6,0-.7-.6-.6,0-.3,0-.6,0-1,.5-.1.5-1.2,0-1.3,0-1.1-.2-1.8-.3-2.9.9-.7,0-2.1,0-2.5-.1-1.7,0-4,0-5.7s.3,0,.3-.5c0-.8.2-2.1-.3-2.7.2-1.7.4-3.4.3-5.1.5-.6.4-2.2.3-3s-.3-1-.3-1.1c0-2-.1-4.4,0-6.4s.6-1.3.3-1.9c-.2,0-.4,0-.6,0-.8,0-1.7,0-2.5,0s-1.5-1-1.3.3c-.4,0-.9,0-1.3,0s-.3-.4-.7-.3-.2.6-.2.7c0,0-.6-.1-.9,0s0,.5,0,.6-.5-.1-.6.2-.1,1.5.3,1.7c-.1.7-.2,1.5-.3,2.2-.2,1.1,0,1,0,1.6,0,4,0,7.8,0,11.8s-.2.5,0,1.6.2,1.5.3,2.2c-.5.6-.6,2.2.3,1.9,0,.3,0,.6,0,1s-1,1.8.3,1.6c0,.4,0,.9,0,1.3s-1,1.8.3,1.6c0,.4,0,.9,0,1.3s-1,1.5.3,1.3c0,2,.5,2.1-1.3,2.5-.3-.5-3.7-.4-3.8-.3s0,.5,0,.6c-1.2,0-2.6,0-3.8,0s-1.8-1.1-1.6.3c-.7,0-1.5,0-2.2,0s-1.5-1-1.3.3c-.7,0-1.5,0-2.2,0s-2.1-1.1-1.9.3c-.8,0-1.7,0-2.5,0-.2-.5-1-.4-1.3,0-.7,0-1.2.2-1.9.3-.2-.5-1-.4-1.3,0-.5,0-1,.3-1.6.3-.2-.5-1-.4-1.3,0-.6,0-1.1.2-1.6.3-.1-.5-.7-.4-1,0-.4,0-.8.3-1.3.3-.5-.6-1.5-.5-1.3.3-.3,0-.7,0-1,0s-1.4-1-1.3.3c-.3,0-.6,0-1,0s0-.3-.5-.3c-.9,0-3.1-.4-2.7.6-.7,0-1.5,0-2.2,0s-2.1-1.1-1.9.3c-1.7,0-3.4,0-5.1,0,.2-1.4-1.4-.3-1.9-.3-.7,0-1.5,0-2.2,0,.2-1.4-1.4-.3-1.9-.3s-.6,0-1,0c.3-1.2-1.4-.6-1.9-.6s-.4,0-.6,0c0-.7,0-.7-.6-.6,0,0-.9-.2-1.3-.3.1-.6,0-.7-.6-.6-1.2-1.2-1.7-1.3-2.2-3.2.5,0,.5-.9,0-1,.3-1.3.8-1.8,1.6-2.9.7,0,1.2-.5,1.3-1.3.6-.5,1.1-.6,1.6-1,.7,0,.7,0,.6-.6.3-.1.9-.3,1-.3.6,0,.7,0,.6-.6.7-.4,1.5-.6,2.2-1s1.5,0,1.3-1c.4-.2,2.1-.6,2.2-.6.7,0,.7,0,.6-.6.2,0,.5,0,.6,0,1.2-.4.4-1,.3-1.3-.1-.9-.2-1.7-.3-2.5.5-.6.6-2.2-.3-1.9,0-.6,0-1.3,0-1.9s.3,0,.3-.5.1-3.2,0-3.3-.5,0-.6,0c0-.4,0-.8,0-1.3,0-1.2.4-2.6.3-4s.3-1.3-.6-1.1c0-1.3,0-2.6,0-3.8s.3,0,.3-.5c0-.9.4-3.4-.6-3,0-.9,0-1.9,0-2.9s1.1-2.1-.3-1.9c0-1,0-2.1,0-3.2s.5-.5,0-1c.2-.2.6-.8.6-1.1l-6.6-74c0-.3-.4-.2-.6-.2-.1-.9.5-2.5-.6-2.2,0-1.3,0-2.5,0-3.8.2-3.5.1-6.7,0-10.2s0-3,0-4.4c1.4.2.3-1,.3-1.3,0-.6,0-1.3,0-1.9,1.4.2.3-1.2.3-1.6s0-1.1,0-1.6c1.4.2.3-1,.3-1.3,0-.6,0-1.3,0-1.9,1.3.2.3-.7.3-1,0-.5,0-1.1,0-1.6,1.4.2.4-1.2.3-1.6s0-.4,0-.6c1.3.1.4-.6.3-1s0-.4,0-.6c1.3.2.3-.7.3-1s0-.4,0-.6c1.1.2.4-.6.6-1.3l3.5-8.6c13.8-.5,21.9,3.2,33.7,9.4,5.1,2.7,9.2,5.9,14.9,7.5ZM104.6,128.5c-1.8-5.6-7.7-8.2-12.7-5.7.7-.9-.3-.7-.8-.6-18.3,4.4-17.2,38.9,1.3,38.1,13.7-.5,18.9-20.3,13.1-31s-.1-1-.9-.8ZM115.3,161.3c-3.4.7-4.8,7-4.7,9.9.2,4.1,3.5,12.4,8.6,8.3s3.2-19.7-3.9-18.2Z"/>
  <path class="st5" d="M134.2,62.7c0,1.3.9,1.7,2,2.3,2.8,1.5,9,2.3,11.9,1s1-1,1.4-1c1.1-.2,8.7,2.3,10.2,2.9,5.8,2.3,15.3,7.9,20.1,12,12.1,10.3,14.4,28,13.8,43.1,0,2.4-.2,6.3-.7,8.6s-1,1.2-1.9,1.1c-7.1-.3-18.5-6.7-26.1-8.1s-1-.2-1.6-.1c.2-.8-.4-.7-.8-.9-17.2-9.2-38.5-16.1-57.9-18.4-9-1.1-20.4-1.7-29.3,0,.2-3.8,1.3-7.8,2.4-11.4,5.1-16.7,13.7-23.5,30.1-28.4s17.6-4.1,26.3-2.5ZM135.8,77.7c2.2-1.8,4.2-3.8,6.2-5.7,2.1-4.3-4.3-3.5-6.6-2.2l-6.2,3.4c-.6-.6,7.9-7.7,2.7-7.6s-11.2,5.6-14,8.9-3,3.9-3.2,4.8c-.4,1.8,1.6,1.8,2.7.8s3.5-5,5.1-6.7,4.8-4.3,6.3-4.9,1-.2.7.4-3,2.9-3.6,3.7c-1.3,1.5-5,5.9-4.7,7.7s2.3.4,3.2,0c4.9-2.6,8.9-8.5,14.6-9.3-3,3.6-8.8,6.1-11.2,10.3s-.5,4.2,2.8,3.1,7.7-5.3,12.2-6c0,.8-1.2,1.4-1.8,1.9-2.8,2.3-7.6,4.8-9,8.2s1.2,2.9,3.3,2.6,5.9-3.3,8.6-3.5-.9,2.4-1.3,2.9c-3.1,3.8-10.6,10.8-15.3,12s-15.5-3.3-16-10.4c3.2,3.4,9,4.9,13,2s1.8-2.9.2-4.9c-3.2-4.2-10.4-7.9-14.5-2.7-.5.6-.8,1.7-1,2-.9.9-5.2,1.3-5,3.7s3.9-1.7,4.8-.8c-1.3,8.5,10.9,15.7,18,15.9s13.5-7.2,17.5-12.1,9.6-12.4,0-11-2.9,1.1-4.4,1.5c-.2-.7.4-.7.7-1,1.5-1.5,9.2-6.4,5.1-8.5s-7.1,1.2-10,1.9v-.3Z"/>
  <path class="st3" d="M191.4,163.5c.1,0,1,1.4,1.9,1.9-.2.9.4.5.6.6,2.4,1.4,2.4,3.1,3.5,4.1,0,.7,0,.7.6.6.1.3.2.6.3,1,.2.6,0,1.5,1,1.3,0,.3,0,.9,0,1,0,.7,0,.7.6.6,0,.3,0,.7,0,1,.1.7.6,2.5,1.3,2.2,0,.3,0,.7,0,1,.3,1.1.7,2.1,1.1,3.2s0,1.1.8.9c0,.3,0,.7,0,1,.4,1.4.9,2.8,1.4,4.1s0,1.1.8.9c0,.3,0,.7,0,1,.4,1.5.9,3,1.4,4.5s0,1.1.8.9c0,.2,0,.4,0,.6-.6.5-.4.8.3.6,0,.2,0,.4,0,.6-.6.5-.4.8.3.6,0,.2,0,.4,0,.6,0,.3-1,1.1.3,1,0,.3,0,.6,0,1l-.3.5.3.2c0,.2,0,.9,0,1,0,.8-.2,1.1.6,1,0,.4,0,.9,0,1.3s-1,1.8.3,1.6c0,.3,0,.6,0,1s-.3,0-.3.5c0,.8-.3,2,.6,1.8,0,.3,0,.6,0,1-.2,3.6-.2,5.9,0,9.5s0,.6,0,1c-1.4-.2-.4,1.2-.3,1.6s0,.6,0,1c-1.3-.2-.3.7-.3,1s0,.6,0,1c-1.3-.1-.4.6-.3,1s0,.4,0,.6c-.9-.2-.6.5-.7,1-.7,2.6-1.6,5-2.5,7.6s-.2.8-.3,1.3c-.9-.2-.7.7-1,1.3s-.3.8-.6,1.3c-.6-.1-.7,0-.6.6-2.2,2.4-3.2,3.7-6.4,4.8s-3.1.4-2.9,1.3c-.2,0-.4,0-.6,0-.3,0-1.5-1-1.3.3-.8,0-1.8,0-2.5,0,0-.2,0-.5,0-.6-.2-.1-3.1-.7-3.8-1-2.1-.9-4.8-4.5-4.8-6.8v-5.2c-2.2.5-3.1,1.5-5.5.6-5.6-2.1-1.3-10.6-.2-14.4,2.6-9.5,1.8-19.2,0-28.8-1.6-8.2-5.9-15.5,0-23.1,4.9-6.3,8.2-6,15.1-3s1.2.1,1.3.2Z"/>
  <path class="st0" d="M75.4,105c8.9-1.7,20.3-1,29.3,0,19.4,2.4,40.6,9.3,57.9,18.4s1,.1.8.9c-1.1,0-1.9.6-2.9,1s-5.8,1.7-6.4,2.4,0,1.8-.6,2.4c0-.6,0-1.3,0-1.9-7.3,1.8-14.1,6.5-21.9,6.4-2.4,0-6-.6-8.3-1.3-5.7-1.6-9.9-4.8-14.9-7.5-11.8-6.2-19.9-9.9-33.7-9.4-5.5.2-12.3,1-17.5,2.6-4.6,1.4-10.4,4.8-9.8,10.4-.8-.5-2-2.1-2.3-2.9-.7-2.2.1-3.8,1.3-5.6,4.5-7,21-14.5,29-16Z"/>
  <path class="st3" d="M69,164.4c.2,0,.6-.1.6.2l6.6,74c0,.3-.4.9-.6,1.1s-.8-.4-.6.6c-.2,0-.4,0-.6,0-.5,0-1.3-.2-1.6.3-1.1-.3-1.9-.8-2.9-1.3,0-.6,0-.7-.6-.6,0,0-.7-.2-1-.3,0-.7,0-.7-.6-.6-.7-.5-1.5-1-2.2-1.6,0-.8-.8-1.5-1.6-1.6-.4-.5-.9-1.3-1.3-1.6.1-.6,0-.7-.6-.6,0,0,0-.3,0-.3,0-.7,0-.7-.6-.6,0,0,0-.3,0-.3,0-.7,0-.7-.6-.6-.1-.3-.2-.7-.3-1-.3-.8-.7-2.7-1.6-2.5-.2-.5-.2-1.1-.3-1.6-.2-.7-.1-1.8-1-1.6-.1-.4-.2-.9-.3-1.3l.2-.2c-.2-.8,0-2-.9-1.7,0-.2,0-.4,0-.6.6-.5.4-.8-.3-.6,0-.3,0-.7,0-1s1-1.1-.3-1c0-.4,0-.9,0-1.3s1-1.8-.3-1.6c0-.9,0-1.9,0-2.9.1-2.5,0-3.9,0-6.4s0-2.3,0-3.5c1.4.2.4-1.1.3-1.6s0-1.1,0-1.6c1.3.2.3-.7.3-1,0-.5,0-1.1,0-1.6,1.3.2.3-.7.3-1,0-.4,0-.9,0-1.3,1.3.2.4-.9.3-1.3s0-.4,0-.6c1.3.1.4-.6.3-1s0-.7,0-1c.7.1.9-.1.3-.6,0-.3,0-.7,0-1,.7.1.9-.1.3-.6,0-.2,0-.4,0-.6.7.1.9-.1.3-.6,0-.2,0-.4,0-.6.7.1.9-.1.3-.6,0-.2,0-.5,0-.6.9.2.6-.4.8-.9.4-1.2.9-2.6,1.1-3.8s0-.7,0-1c.7,0,.7,0,.6-.6,0,0,0-.7,0-1,.7,0,.7,0,.6-.6,0,0,.2-1.2.3-1.6.8.2.7-.4.9-.8.5-1,.9-2,1.3-3s.6-1.5,1-2.2c.6,0,.7,0,.6-.6,0,0,.2-.7.3-1,.7,0,.7,0,.6-.6,0,0,0-.2,0-.3.6.1.7,0,.6-.6,0,0,.9-1.5,1-1.6.2,0,.4,0,.6,0Z"/>
  <path class="st5" d="M74.7,116.4l-3.5,8.6h-.3c-7.1,1.4-13.6,5.7-21.1,5.1s-1.5-.2-2.4-.6c-.7-5.6,5.1-9,9.8-10.4,5.2-1.6,12.1-2.4,17.5-2.6Z"/>
  <path class="st2" d="M149.4,65c-.3,0-.9.8-1.4,1-2.9,1.3-9.1.5-11.9-1s-1.9-1-2-2.3c0-1.9,1.8-4.2,3.6-4.5s7.6.5,9.2,1.6,1.7,3.3,2.4,5.1Z"/>
  <path class="st1" d="M175.5,289.3c-.5.5-1.1.3-1.7.3-4.9.1-9.9,0-14.8,0-.2-1,.5-.6,1.1-.6,5.2-.2,10.4.2,15.4.3Z"/>
  <path class="st1" d="M68.4,158.4c-.5-2.6-.4-5.7-.3-8.4s-.1-1.2.3-1.7c.1,3.5.2,6.7,0,10.2Z"/>
  <path class="st1" d="M209.8,219.4c-.2-3.6-.2-5.9,0-9.5.5,2.9.5,6.6,0,9.5Z"/>
  <path class="st1" d="M208.9,226.4c0,1.7-1.6,6-2.3,7.7s0,1-.9.9c.8-2.5,1.8-5,2.5-7.6s-.2-1.2.7-1Z"/>
  <path class="st1" d="M55.7,211.8c-.5-1.9-.5-4.5,0-6.4,0,2.5.1,3.9,0,6.4Z"/>
  <path class="st1" d="M76.3,255.9c1-.2.6.5.6,1.1,0,1.4-.3,2.8-.3,4-.6-1.4-.3-3.5-.3-5.1Z"/>
  <path class="st1" d="M141.2,289.3c1.1,0,2.5-.4,4-.3s1.3-.3,1.1.6c-1.6,0-3.6.3-5.1-.3Z"/>
  <path class="st1" d="M205.4,189.8c.9-.2.6.4.8.9.5,1.5,1,3,1.4,4.5-.9.2-.6-.4-.8-.9-.5-1.5-1-3-1.4-4.5Z"/>
  <path class="st1" d="M203.1,183.8c.9-.2.6.5.8.9.5,1.4,1,2.7,1.4,4.1-.9.2-.6-.5-.8-.9-.5-1.4-1-2.7-1.4-4.1Z"/>
  <path class="st1" d="M185.7,244.2c.7.3,3.6.9,3.8,1s0,.4,0,.6c-1.4-.2-3.3-1.5-3.8-.3,0-.2-.6-.7,0-1.3Z"/>
  <path class="st1" d="M60.4,180c-.2,1.2-.8,2.6-1.1,3.8s0,1.1-.8.9c.3-1.3.7-2.5,1.1-3.8s0-1.1.8-.9Z"/>
  <path class="st1" d="M132.9,264.2c0,0-.3-.5-.3-1.1,0-.9-.2-2.3.3-3.1,0,0,.3.4.3,1.1s.2,2.4-.3,3Z"/>
  <path class="st1" d="M64.2,171.4c-.4,1-.8,2-1.3,3s-.1,1-.9.8c.4-1,.8-2,1.3-3s.1-1,.9-.8Z"/>
  <path class="st1" d="M125.3,286.8c-1.5.4-2.3.3-3.8.3,0-.2,0-.6,0-.6.2-.1,3.5-.1,3.8.3Z"/>
  <path class="st1" d="M76.6,262.3c.2,0,.6,0,.6,0,.1.1,0,2.8,0,3.3s-.3.4-.3.5c-.5-1-.4-2.6-.3-3.8Z"/>
  <path class="st1" d="M201.2,178.7c.8-.2.6.4.8.9.4,1.1.8,2.1,1.1,3.2-.9.2-.6-.5-.8-.9-.4-1.1-.8-2.1-1.1-3.2Z"/>
  <path class="st1" d="M76,248.6c1-.4.7,2.1.6,3s-.3.4-.3.5c-.6-.9-.3-2.4-.3-3.5Z"/>
  <path class="st1" d="M132.6,272.5c-.8-1-.1-2.3,0-3.2.5.6.4,1.9.3,2.7s-.3.4-.3.5Z"/>
  <path class="st1" d="M90.3,290c-.8.5-2.2.3-3.2.3-.4-1,1.8-.7,2.7-.6s.4.3.5.3Z"/>
  <path class="st1" d="M192,152.4c0,1,.3,2.3-.3,3.2,0,0-.3,0-.3-.5,0-.9-.4-3.1.6-2.7Z"/>
  <path class="st1" d="M190.4,282.6c0,0,.7-.3.9,1.1s-.5,1.3-.6,1.4l-.3-2.5Z"/>
  <path class="st1" d="M132.6,280.7c0-.7-.8-1.7,0-2.5,0,.4.9,1.9,0,2.5Z"/>
  <path class="st1" d="M196.8,244.2c.3.8-2.2,1.3-2.9,1.3-.2-.8,1.9-1,2.9-1.3Z"/>
  <path class="st1" d="M58.8,227c.9-.1,1.3,1.7,1.6,2.5-.9.1-1.3-1.7-1.6-2.5Z"/>
  <path class="st1" d="M68.4,162.2c1.1-.3.5,1.3.6,2.2-.2,0-.4,0-.6,0,.1-.5,0-1.6,0-2.2Z"/>
  <path class="st1" d="M191.7,159.3c0,.8.2,1.6-.3,2.2,0-.6-1-2.5.3-2.2Z"/>
  <path class="st1" d="M209.8,208.9c-.9.3-.7-.9-.6-1.8s.3-.4.3-.5c.5.6.4,1.5.3,2.2Z"/>
  <path class="st1" d="M200,175.5c.9-.2,1.1,1.5,1.3,2.2-.7.3-1.1-1.5-1.3-2.2Z"/>
  <path class="st1" d="M65.5,236.2c-.2-.1-.7-.1-1.1-.6s-.4-.9-.4-1c.8,0,1.5.8,1.6,1.6Z"/>
  <path class="st1" d="M125.6,276.3c-1,.3-.9-1.3-.3-1.9.1.7.3.9.3,1.9Z"/>
  <path class="st1" d="M77,268c1-.3.9,1.3.3,1.9,0-.6-.3-1-.3-1.9Z"/>
  <path class="st1" d="M110.3,287.7c-.6.5-1.3.3-1.9.3-.2-1.4,1.4-.3,1.9-.3Z"/>
  <path class="st1" d="M181.2,289c-.4,0-1.4.9-1.9,0,.4,0,1.4-.9,1.9,0Z"/>
  <path class="st1" d="M192,143.8c-1.4.2-.3-1.4-.3-1.9.5.6.3,1.3.3,1.9Z"/>
  <path class="st1" d="M125.6,253.1c.3.8-.2,1.4-.3,1.9-.4-.2-.4-1.3-.3-1.7s.6-.2.6-.2Z"/>
  <path class="st1" d="M132.6,251.8c.2,0,.4,0,.6,0,.3.6-.3,1.8-.3,1.9l-.3-1.9Z"/>
  <path class="st1" d="M71.9,290c.5,0,2.1-1.1,1.9.3-.7,0-1.4.2-1.9-.3Z"/>
  <path class="st1" d="M76,290.3c.5,0,2.1-1.1,1.9.3-.7,0-1.4.2-1.9-.3Z"/>
  <path class="st1" d="M84.9,290.3c-.6.5-1.3.3-1.9.3-.2-1.4,1.4-.3,1.9-.3Z"/>
  <path class="st1" d="M75.7,243.9c1.4-.2.3,1.4.3,1.9-.5-.6-.3-1.3-.3-1.9Z"/>
  <path class="st1" d="M69,289.3c.5,0,2.2-.5,1.9.6-.7,0-1.4-.1-1.9-.6Z"/>
  <path class="st1" d="M56.6,220.7c.9-.3.6,1,.9,1.7l-.2.2c-.2-.7-.4-1-.6-1.9Z"/>
  <path class="st1" d="M125,258.8c0-.6-.2-.5,0-1.6.6.3.4,1.2,0,1.6Z"/>
  <path class="st1" d="M184.4,256.9c0,.6.1,1.1-.3,1.6,0-.4-1-1.8.3-1.6Z"/>
  <path class="st1" d="M74.4,240.4c.2,1.2-.9.5-1.6.3.3-.5,1.1-.3,1.6-.3Z"/>
  <path class="st1" d="M70,130.1c0,.4,1,1.8-.3,1.6,0-.6-.1-1.1.3-1.6Z"/>
  <path class="st1" d="M191.7,139c-1.4.2-.3-1.2-.3-1.6.5.5.3,1,.3,1.6Z"/>
  <path class="st1" d="M69,139c0,.4,1,1.8-.3,1.6,0-.6-.1-1.1.3-1.6Z"/>
  <path class="st1" d="M125,272.2c-.2-1.1,0-1.1,0-1.6.4.4.6,1.3,0,1.6Z"/>
  <path class="st1" d="M56,200.3c0,.4,1,1.8-.3,1.6,0-.6-.1-1.1.3-1.6Z"/>
  <path class="st1" d="M209.8,220.4c0,.6.1,1.1-.3,1.6,0-.4-1-1.8.3-1.6Z"/>
  <path class="st1" d="M209.5,205.7c-1.4.2-.3-1.2-.3-1.6.4.5.3,1,.3,1.6Z"/>
  <path class="st1" d="M117.6,287.1c-.5.5-1,.3-1.6.3-.2-1.4,1.2-.3,1.6-.3Z"/>
  <path class="st1" d="M55.7,214.6c1.4-.2.4,1.2.3,1.6-.5-.5-.3-1-.3-1.6Z"/>
  <path class="st1" d="M126.2,281.7c-1.4.2-.3-1.2-.3-1.6.4.5.3,1,.3,1.6Z"/>
  <path class="st1" d="M66.5,279.5c0,.8-.5,1.2-1.3,1.3.1-.2,0-.6.5-1s.7-.2.8-.3Z"/>
  <path class="st1" d="M125.9,278.8c-1.4.2-.3-1.2-.3-1.6.4.5.3,1,.3,1.6Z"/>
  <path class="st1" d="M57.6,223.9c.8-.2.8.9,1,1.6-.9.2-.7-.9-1-1.6Z"/>
  <path class="st1" d="M184.1,259.4c0,.5,0,.9-.3,1.3,0-.4-1-1.4.3-1.3Z"/>
  <path class="st1" d="M75.7,239.7c.5.4,0,.8,0,1-.2,0-.5-.3-.6-.3-.2-1,.5-.5.6-.6Z"/>
  <path class="st1" d="M191.4,135.2c-1.3.1-.4-.8-.3-1.3.4.4.3.8.3,1.3Z"/>
  <path class="st1" d="M69.3,136.1c0,.3,1,1.5-.3,1.3,0-.5,0-.9.3-1.3Z"/>
  <path class="st1" d="M193.3,245.5c-.4.4-.8.3-1.3.3-.2-1.3.9-.4,1.3-.3Z"/>
  <path class="st1" d="M68.7,142.5c0,.3,1,1.5-.3,1.3,0-.5,0-.9.3-1.3Z"/>
  <path class="st1" d="M198.4,171.7c.8-.2.8.6,1,1.3-.9.2-.7-.7-1-1.3Z"/>
  <path class="st1" d="M185.7,246.7c0,.5,0,.9-.3,1.3,0-.4-1-1.4.3-1.3Z"/>
  <path class="st1" d="M56.9,192.7c0,.4,1,1.4-.3,1.3,0-.5,0-.9.3-1.3Z"/>
  <path class="st1" d="M185,251.8c0,.5,0,.9-.3,1.3,0-.3-1-1.5.3-1.3Z"/>
  <path class="st1" d="M205.4,236.2c-.2.6,0,1.5-1,1.3.2-.6,0-1.5,1-1.3Z"/>
  <path class="st1" d="M130,251.8c-.4.4-.8.3-1.3.3-.2-1.4,1-.3,1.3-.3Z"/>
  <path class="st1" d="M73.8,275c.2.9-.7.7-1.3,1-.2-.9.7-.7,1.3-1Z"/>
  <path class="st1" d="M92.5,289.6c-.4.4-.8.3-1.3.3-.2-1.3.9-.4,1.3-.3Z"/>
  <path class="st1" d="M94.8,289.3c-.2,0-.5.3-1.3.3-.3-.8.7-.9,1.3-.3Z"/>
  <path class="st1" d="M137.7,289c.5-.6,1.5-.5,1.3.3-.7,0-1-.3-1.3-.3Z"/>
  <path class="st1" d="M99.8,288.7c-.7,0-1.2,0-1.3,0,.3-.4,1.1-.5,1.3,0Z"/>
  <path class="st1" d="M184.7,254.7c0,.5,0,.9-.3,1.3,0-.4-1-1.4.3-1.3Z"/>
  <path class="st1" d="M102.7,288.4c-.9.1-1.2,0-1.3,0,.3-.4,1.1-.5,1.3,0Z"/>
  <path class="st1" d="M105.9,288c-.5,0-1.2,0-1.3,0,.3-.4,1.1-.5,1.3,0Z"/>
  <path class="st1" d="M189.2,287.1c.2.9-.6.8-1.3,1-.2-.9.7-.7,1.3-1Z"/>
  <path class="st1" d="M113.8,287.4c-.4.4-.8.3-1.3.3-.2-1.4,1-.3,1.3-.3Z"/>
  <path class="st1" d="M132.9,284.9c0-.7,0-.9,0-1.3.5.1.5,1.1,0,1.3Z"/>
  <path class="st1" d="M126.5,284.2c-1.4.2-.3-1-.3-1.3.4.4.3.8.3,1.3Z"/>
  <path class="st1" d="M77.3,273.7l.3-1.3c0,.3.8.9-.3,1.3Z"/>
  <path class="st1" d="M63.6,284.5c0,0-.3-.2-.3-.5s.3-.4.3-.5c.5,0,.5.9,0,1Z"/>
  <path class="st1" d="M56,217.5c1.3-.1.4.6.3,1-.4-.2-.3-.6-.3-1Z"/>
  <path class="st1" d="M183.8,261.7c0,1.6-.4.7-.6,1,0-.8-.2-1.1.6-1Z"/>
  <path class="st1" d="M186,288.4c-.8.2-.9,0-1,0,.2-.4.8-.5,1,0Z"/>
  <path class="st1" d="M136.4,288.7c0,0,0,.3-1,0,.1-.5.7-.4,1,0Z"/>
  <path class="st1" d="M183.8,288.7c-.7.1-.9,0-1,0,.2-.4.8-.5,1,0Z"/>
  <path class="st1" d="M71.2,125c-.2.6.5,1.5-.6,1.3,0-.4.3-.9.3-1.3h.3Z"/>
  <path class="st1" d="M97,289c-.7,0-.9,0-1,0,.2-.4.8-.5,1,0Z"/>
  <path class="st1" d="M70.6,126.9c0,.3,1,1.1-.3,1,0-.3,0-.8.3-1Z"/>
  <path class="st1" d="M70.3,128.5c0,.3,1,1.1-.3,1,0-.3,0-.8.3-1Z"/>
  <path class="st1" d="M69.7,133.3c0,.3,1,1.1-.3,1,0-.3,0-.8.3-1Z"/>
  <path class="st1" d="M127.5,252.1l-1,.3s-.1-.6.2-.7.7.3.7.3Z"/>
  <path class="st1" d="M208.5,201.9c.3.3.5-.7.6,1-.8.1-.6-.2-.6-1Z"/>
  <path class="st1" d="M209.2,224.8c0,.3,0,.8-.3,1,0-.3-1-1.1.3-1Z"/>
  <path class="st1" d="M209.5,222.9c0,.3,0,.8-.3,1,0-.3-1-1.1.3-1Z"/>
  <path class="st1" d="M57.3,191.1c0,.3,1,1.1-.3,1,0-.3,0-.8.3-1Z"/>
  <path class="st1" d="M181.2,273.7c0,.3.1.8-.3,1,0-.4-.9-1.1.3-1Z"/>
  <path class="st1" d="M182.2,269.3c0,.3.1.8-.3,1,0-.3-1-1.1.3-1Z"/>
  <path class="st1" d="M56.6,195.3c0,.3,1,1.1-.3,1,0-.3,0-.8.3-1Z"/>
  <path class="st1" d="M56.3,197.8c0,.3,1,1.1-.3,1,0-.3,0-.8.3-1Z"/>
  <path class="st1" d="M208.5,199.4c-1.3.1-.4-.6-.3-1,.4.2.3.6.3,1Z"/>
  <path class="st1" d="M185.3,249.3c0,.3,0,.8-.3,1,0-.3-1-1.1.3-1Z"/>
  <path class="st1" d="M133.9,287.4c.8-.1.6.2.6,1-.7-.5-.4-.5-.6-1Z"/>
  <path class="st1" d="M181.5,272.2c0,.5-.3.6-.3.6-.6-.5-.4-.7.3-.6Z"/>
  <path class="st1" d="M61.4,231.5c.7,0,.7,0,.6.6-.1,0-.6,0-.6,0s0-.5,0-.6Z"/>
  <path class="st1" d="M67.7,237.8c.7,0,.7,0,.6.6-1.1-.4-.4-.5-.6-.6Z"/>
  <path class="st1" d="M208.2,197.8c-.7.1-.9-.1-.3-.6,0,0,.3,0,.3.6Z"/>
  <path class="st1" d="M181.9,270.9c0,.6-.3.6-.3.6-.6-.5-.4-.8.3-.6Z"/>
  <path class="st1" d="M207.9,196.5c-.7.1-.9-.1-.3-.6,0,0,.2.1.3.6Z"/>
  <path class="st1" d="M208.5,201l-.3-.2.3-.5c0,.3,0,.4,0,.6Z"/>
  <path class="st1" d="M76.6,273.7c0,.7,0,.7-.6.6.2-.2-.6-.4.6-.6Z"/>
  <path class="st1" d="M57.6,189.5c.6.5.4.7-.3.6,0-.6.3-.6.3-.6Z"/>
  <path class="st1" d="M57.9,187.9c.6.5.4.8-.3.6,0-.5.3-.6.3-.6Z"/>
  <path class="st1" d="M58.2,186.7c.6.5.4.8-.3.6.1-.5.3-.6.3-.6Z"/>
  <path class="st1" d="M58.5,185.4c.6.5.4.8-.3.6.1-.5.3-.6.3-.6Z"/>
  <path class="st1" d="M61.1,178.4c0,.7,0,.7-.6.6.2-1.2.4-.4.6-.6Z"/>
  <path class="st1" d="M182.5,268c0,.5-.3.6-.3.6-.6-.5-.4-.8.3-.6Z"/>
  <path class="st1" d="M61.7,176.8c0,.7,0,.7-.6.6.2-1.2.4-.4.6-.6Z"/>
  <path class="st1" d="M132.9,285.8c.6,0,.7,0,.6.6-.3-.2-.5.5-.6-.6Z"/>
  <path class="st1" d="M199.3,174c.2.2.5-.6.6.6-.7,0-.7,0-.6-.6Z"/>
  <path class="st1" d="M197.4,170.1c.3.3.2-.5.6.6-.7,0-.7,0-.6-.6Z"/>
  <path class="st1" d="M65.8,168.6c0,.6,0,.7-.6.6.6-1,.5-.5.6-.6Z"/>
  <path class="st1" d="M66.8,167c0,.7,0,.7-.6.6,0-.1-.1-.5,0-.6s.5,0,.6,0Z"/>
  <path class="st1" d="M67.4,166c.1.6,0,.7-.6.6.5-1.2.3-.4.6-.6Z"/>
  <path class="st1" d="M193.3,165.4c.2.1.8-.3.6.6-.2-.1-.8.3-.6-.6Z"/>
  <path class="st1" d="M182.5,267.4l-.3-.2.3-.5c0,.2,0,0,0,.6Z"/>
  <path class="st1" d="M62,232.4c.6-.1.7,0,.6.6-.3-.3-.2.5-.6-.6Z"/>
  <path class="st1" d="M182.8,265.2s.4.3.3.6c-.2,0-.6,0-.6,0l.3-.6Z"/>
  <path class="st1" d="M183.1,263.6s.4.3.3.6c-.2,0-.6,0-.6,0l.3-.6Z"/>
  <path class="st1" d="M182.2,276.3c1.2.3.4.3.6.6-.7,0-.7,0-.6-.6Z"/>
  <path class="st1" d="M56.3,219.4c.7-.1.9.1.3.6,0,0-.3,0-.3-.6Z"/>
  <path class="st1" d="M69.3,238.8c.6,0,.7,0,.6.6-1.1-.5-.5-.5-.6-.6Z"/>
  <path class="st1" d="M70.3,276.9c0,.6,0,.7-.6.6.2-.1-.4,0,.6-.6Z"/>
  <path class="st1" d="M67.7,288.7c.7,0,.7,0,.6.6-1.1,0-.4-.5-.6-.6Z"/>
  <path class="st1" d="M203.8,238.8c-.6,1-.5.5-.6.6-.1-.6,0-.7.6-.6Z"/>
  <path class="st1" d="M60.8,230.5c.7,0,.7,0,.6.6,0,0-.5.1-.6,0s0-.5,0-.6Z"/>
  <path class="st1" d="M68.7,277.9c0,.7,0,.7-.6.6,0,0-.4-.1.6-.6Z"/>
  <path class="st1" d="M65.8,287.7c.6-.1.7,0,.6.6-1.2-.4-.4-.4-.6-.6Z"/>
  <path class="st1" d="M184.4,277.6c1,.5.6.6.6.6-.7,0-.7,0-.6-.6Z"/>
  <path class="st1" d="M187.3,288s-.1.2-.6.3c-.1-.7.1-.9.6-.3Z"/>
  <path class="st8" d="M160.6,125.3c3.5,6.6,4.7,14.2,2.5,21.5-3.8,13-17.6,20.2-29.5,12s-11.6-16-10.3-25.5c2.3.6,5.9,1.2,8.3,1.3,0,2.1,2.3,4.6,4,5.7,7.7,4.9,17.6-1.6,17.9-10.1.7-.6,0-1.6.6-2.4s5.2-2,6.4-2.4Z"/>
  <path class="st8" d="M104.6,128.5c.8-.2.7.4.9.8,5.8,10.6.5,30.4-13.1,31-18.4.7-19.6-33.7-1.3-38.1.5-.1,1.5-.3.8.6-5.5,2.7-7.5,10.1-4.9,15.6,5.6,11.9,21.9,3.1,17.6-9.9Z"/>
  <path class="st4" d="M104.6,128.5c4.2,13-12.1,21.8-17.6,9.9s-.6-12.9,4.9-15.6c5-2.4,10.9.1,12.7,5.7Z"/>
  <path class="st4" d="M115.3,161.3c7.1-1.5,9,14,3.9,18.2s-8.4-4.2-8.6-8.3c-.1-3,1.3-9.2,4.7-9.9Z"/>
  <path class="st6" d="M135.8,78c2.9-.7,7-3.4,10-1.9s-3.6,7-5.1,8.5-.9.3-.7,1c1.5-.4,2.8-1.3,4.4-1.5,9.6-1.3,2.7,7.7,0,11-4,4.9-10.7,12.3-17.5,12.1s-19.3-7.4-18-15.9c-.9-.9-4.6,3.1-4.8.8s4.1-2.9,5-3.7.6-1.4,1-2c4-5.2,11.2-1.5,14.5,2.7s2.1,3.3-.2,4.9c-4,2.9-9.8,1.4-13-2,.5,7.1,9.5,12,16,10.4s12.2-8.2,15.3-12,2.5-2.9,1.3-2.9c-2.7.2-5.9,3.1-8.6,3.5s-4.3-.1-3.3-2.6,6.2-5.9,9-8.2,1.7-1.1,1.8-1.9c-4.5.8-8,4.6-12.2,6s-4.6.1-2.8-3.1,8.2-6.7,11.2-10.3c-5.8.8-9.7,6.8-14.6,9.3-.8.4-2.9,1.7-3.2,0s3.4-6.2,4.7-7.7,3.4-3.2,3.6-3.7-.3-.5-.7-.4c-1.5.5-5.1,3.6-6.3,4.9s-3.7,5.5-5.1,6.7-3.1,1.1-2.7-.8,2.5-4,3.2-4.8c2.8-3.3,9.6-8.8,14-8.9s-3.3,7.1-2.7,7.6l6.2-3.4c2.3-1.3,8.8-2.1,6.6,2.2-2,2-4,3.9-6.2,5.7s-1.5.6-1.9,1.4c.7-.2,2.1-.2,1.9-1.1ZM139.4,85.6v.3c.2-.1.2-.2,0-.3ZM121.5,89.7c0-.8-.9-1.2-1.5-1.5-1.6-1-6.4-3-7.4-.5s.4.4.8.5c2.8.2,5.5.5,8.1,1.6ZM121.8,92c-.1-.1-3-1.1-3.4-1.2-1.8-.4-3.7-.2-5.5-.7-.6.7,1.4,1.9,1.8,2.1,1.4.7,3.4,1.2,5,1s2.7-.6,2.1-1.2Z"/>
  <path class="st0" d="M135.8,77.7v.3c.2.9-1.2,1-1.9,1.1.4-.8,1.5-1.1,1.9-1.4Z"/>
  <path class="st4" d="M131.6,134.6c7.8.2,14.6-4.6,21.9-6.4,0,.6,0,1.3,0,1.9-.3,8.5-10.2,15-17.9,10.1s-4-3.5-4-5.7Z"/>
  <path class="st7" d="M121.8,92c.6.7-1.8,1.2-2.1,1.2-1.5.2-3.6-.3-5-1s-2.4-1.5-1.8-2.1c1.8.5,3.7.3,5.5.7s3.3,1.1,3.4,1.2Z"/>
  <path class="st0" d="M121.5,89.7c-2.6-1.1-5.3-1.4-8.1-1.6s-1.1.2-.8-.5c1-2.5,5.8-.5,7.4.5s1.6.7,1.5,1.5Z"/>
  <path class="st5" d="M139.4,85.6c.2.1.2.2,0,.3v-.3Z"/>
</svg>