<?xml version="1.0" encoding="UTF-8"?>
<svg id="Calque_1" xmlns="http://www.w3.org/2000/svg" version="1.1" viewBox="0 0 272.8 358.7">
  <!-- Generator: Adobe Illustrator 29.8.5, SVG Export Plug-In . SVG Version: 2.1.1 Build 2)  -->
  <defs>
    <style>
      .st0 {
        fill: #4e7238;
      }

      .st1 {
        fill: #6f835a;
      }

      .st2 {
        fill: #354727;
      }

      .st3 {
        fill: #71943d;
      }

      .st4 {
        fill: #b9d193;
      }

      .st5 {
        fill: #aea38f;
      }

      .st6 {
        fill: #84ac42;
      }

      .st7 {
        fill: #4d6e38;
      }

      .st8 {
        fill: #fafaef;
      }

      .st9 {
        fill: #a2c281;
      }

      .st10 {
        fill: #92ba4d;
      }
    </style>
  </defs>
  <path class="st10" d="M149.1,90.8c-9.2-2-20.2,8-17,14s8.8,2.3,12.6,2.5c9.5.7,14,7.2,18,5.1s3-5.6,2-8.9c1.1.2,2.9.4,3.7,1.3,2.4,2.8,4.9,5.4,6.9,8.6-1.1,10.8-2.2,21.6-2.8,32.8s-.1,4.5.2,6.5c-9.7,2.8-24.7,8-33.4,14.1-.8-5.4-5.3-14.3-11.3-13.4s-3.6,1.6-4.7,3.6c-4.1,7.9,2.8,19.9,10.4,21.6.1,1.3.8,1.6,1.4,2.9,2.4,4.6,6.7,7.6,10.8,11,15,12.1,23.4,7,39.9,11.6l1.3,27.2c.4,7.3,1,14.4,1,21.8,0,12.1,0,23.8.9,36,4.7.5,17.5,3.7,16.5,9.4-.9,5.6-22.6,4.4-27.2,4.5-9.4.1-18.7,0-27.8-1.5-4.8-.8-7.1-3.7-8.2-8.1-2.8-10.9-4.8-21.5-4.8-32.8l-8-.3,1.1,13.7,4.2,24.9c.1.8,0,1.8-.4,2.3s-1.1.8-2,.9c-19.5,2.9-36.7,3.7-56.3,1.6-2.2-.2-4.2-2.1-4.7-3.6-2-6,8.7-11,14.7-11.8l-4.9-30.2-6.7-35.3c-2.3-12.1-4.6-23.7-6.1-35.6l-1.7-14.3c-2-16.3-5.9-44.1,1.3-59.2.7-1.4,2.1-2.3,1.9-3.8,2.6-1,3.9-4.3,7.8-5.7,0,3.3-1,9,3.2,10.6s3.4-.2,4.8-1.2c6.2-4.8,13.5-6.8,21.2-6.1,2.3-1.7,1.9-5.5,1.7-8.3.7-.2,2.7.2,3.3-.7.7-10.1,5.1-19.5,13.3-25.5,4.3-3.2,13.8-6.4,16.3-2.7s-4.3,12.4-6.3,16.4l5.1-2.5c3.1-1.5,7.8-1.3,10.1,1.6s-.8,3.6-1.6,5ZM165,140.8c2.6-11.4-4.7-22.8-15.6-25.4s-17.5,3.7-18.6,13.1c-1.2,11,6.7,21.5,17.7,23.4,7.7,1.3,14.7-3.2,16.5-11.1ZM106.9,153.1c9.7-3.8,15.6-14.5,13.5-24.5-1.9-9-10.2-13.9-18.9-11.8-11.1,2.7-18.4,13.4-16.2,24.7,1.9,10,11.8,15.4,21.6,11.6Z"/>
  <path class="st4" d="M185.8,204c-16.5-4.6-24.9.5-39.9-11.6-4.2-3.3-8.5-6.4-10.8-11,9.2-7.9,26.6-16.3,38.7-19.8l30.4-8.6,27.6-7.2c8.3-2.2,15.5-6.7,21.5-12.6,1.2,1.5.2,3.2.3,4.9.7,8.9.9,20-5.1,26.9-10,11.6-5.5,11.7-13.2,17.7l-10.3,8.2c-2.9,2.3-6.8,2.8-10.3,3.9s-7.8,4.1-11.9,6c-5.4,2.4-11.3,2.2-16.8,3ZM229.2,166.9l-21.2-1.9c-1.4-.1-2.8-.9-4.8-.6s-2.3-.5-4,.3-2,1-2.4,1.8c-2.2,4.1,7.5,9,11.2,10.2,8.9,2.9,18.1,3.8,27.4,2.7s5-8.6,8.9-12.7c-5.4.6-9.9.7-15.1,0ZM196.8,184.2c-2.3-1.8-5.1-2.7-8-4.4s-4.9-3.5-7.9-4.3-2-2.5-4.5-1.8-2.8-1.2-4.1,0-1.5,3.3-.1,5c7.7,10.1,18.8,17.4,31.4,19.8,4.7-3.2,9.3-5.2,14.5-7.1-7.7-1.9-14.5-3.8-21.3-7.2ZM172.1,194.6c-2.5-3.1-4.7-6.6-8-9.4-.5-2.2-2.4-3.5-4.3-4.5s-1.6-1.2-2.8-.8-1.5,1.2-1.7,2.5c-1.3,6.7,4.5,13,9.3,16.7,4.2.2,7.7-.2,11.7-.8-1.2-1.5-2.4-2.6-4.2-3.7Z"/>
  <path class="st6" d="M63.4,88.6c.6,7.6,2.5,14.9,6.7,21.3.2,1.5-1.2,2.4-1.9,3.8-7.2,15.1-3.3,42.9-1.3,59.2l1.7,14.3c-1,0-1.4-.8-2.2-1.6-12.8-12.8-21.7-28-29-44.6-9-20.6-13.9-42.6-11.6-64.7,1.6,11,27.1,14,30.3,13.5l7.2-1.2Z"/>
  <path class="st5" d="M190.7,70.8c1.3,1.5,4,1.2,5.4,2.3,3.1,2.4,7.3,3.5,10.1,6.3l18.2,18.4c3.6,3.6,7.5,6.4,10.7,10.4s1.1,1.7,2.1,1.8c-1.8.7-4.2,3.7-4.5,6.2-3-2.6-5.7-7.9-10.2-10.7,1.5,9.2,2.8,17.9,2.1,26.7-3.1-.1-6.2.3-9.7.7.4-11.7.2-23.5-3.6-34.9s-.8-3.1-2.1-3.6c-4.1-8.1-12.6-13.6-21.7-15.1s-1.6,2.1-1.5,3c1.4,8.3,2.2,16.2,2.3,24.6.3,16,3.8,22.9,8.5,37.1-2.4,1.1-4.5,2.2-7.4,3.2l-6.7-17.1c-2.1,7-1.9,13.6-2.1,20.2-2.5.5-5.5,1.9-8,2.6-.4-2-.4-4.1-.2-6.5.6-11.1,1.6-22,2.8-32.8,1-9.7,2.8-19.4,2.8-29.2,0-3.6.7-7.2,2.1-10.4l10.6-3.1Z"/>
  <path class="st2" d="M253.3,133.4c-6,5.8-13.1,10.4-21.5,12.6l-27.6,7.2-30.4,8.6c-12.2,3.4-29.6,11.9-38.7,19.8-.7-1.3-1.3-1.6-1.4-2.9-.5-4.9,1.7-9.2,5.6-11.8,8.7-6.1,23.7-11.3,33.4-14.1,2.5-.7,5.5-2.1,8-2.6,3.6-.7,6-2.2,8.9-3.1s5-2,7.4-3.2c4.7-2.2,8.7-4.8,12.3-8.1s4.4-1.6,5.7-3c3.5-.3,6.6-.8,9.7-.7,9.5.4,7.6-11.5,8.1-16,.3-2.5,2.6-5.5,4.5-6.2,6.6-2.6,17.5,18.6,16.1,23.5Z"/>
  <path class="st6" d="M62.7,72.6c-3.3,4.5-7.5,7.1-13.4,7.1s-11.9,1-17.7-.6-3.3-9-4.4-10.3c1-4.5,3.9-7.9,8.6-9.1,9.5-2.4,18.2-2.5,24.5,5.6s2.9,4.6,2.4,7.3Z"/>
  <path class="st6" d="M196.3,60.9c0,2,.9,4.3-.6,6.4s-3.3,3-5,3.5l-10.6,3.1c-2.2.6-4.9.8-7.4,1-3.7.4-6.3-2-9.2-3.5-1.4-2.4-1.5-5.4,0-8.1,3.5-6.5,10.5-9.6,17.8-9.4s12.5,1.4,14.9,7Z"/>
  <path class="st0" d="M108.8,99.2c.3,2.8.6,6.6-1.7,8.3-7.7-.8-15,1.3-21.2,6.1s-3.4,1.8-4.8,1.2c-4.2-1.6-3.2-7.3-3.2-10.6,4.1-9.2,11-15.7,21.5-14.1s8.2,4.5,9.4,9.1Z"/>
  <path class="st0" d="M149.1,90.8c7.3,1.6,12.6,6.6,15.6,12.7,1,3.4,1.4,7.3-2,8.9s-8.5-4.4-18-5.1-11.2.2-12.6-2.5c-3.2-6,7.7-15.9,17-14Z"/>
  <path class="st3" d="M62.7,72.6c-.1.6.3,1.2.2,1.8-2.8,5.7-11.6,6.4-10.8,10.9s8.7,1.9,11.2,1.6c-.1.5,0,1.1,0,1.6l-7.2,1.2c-3.2.5-28.8-2.5-30.3-13.5.3-2.5-.7-5.5,1.4-7.5,1.1,1.3-1.4,8.7,4.4,10.3s11.8.6,17.7.6,10.1-2.7,13.4-7.1Z"/>
  <path class="st6" d="M178,84.2c0,9.8-1.8,19.5-2.8,29.2-1.9-3.2-4.5-5.8-6.9-8.6,2-6.3.6-12.9-.8-19.3,3.6.7,7-.5,10.5-1.4Z"/>
  <path class="st6" d="M63.4,86.9c-2.5.3-10.5,2.5-11.2-1.6s7.9-5.2,10.8-10.9c4-.9,3.6,11.6.4,12.6Z"/>
  <path class="st6" d="M167.6,85c-5.2,0-6.6-12-4-12.4,4.4,4.9,9.4,2.7,12.4,6s.8,2.2.2,3.2-1.3,1.4-2.4,1.7l-6.1,1.5Z"/>
  <path class="st6" d="M206.3,79.4c-2.8-2.8-7-4-10.1-6.3,1.3-3.3,2.7-6.6,2.5-10.2,4.8,4,6.6,10.4,7.6,16.5Z"/>
  <path class="st3" d="M180.2,73.8c-1.4,3.3-2.2,6.8-2.1,10.4-3.5.9-6.9,2-10.5,1.4,0-.2,0-.4,0-.6l6.1-1.5c1.2-.3,2.1-1.1,2.4-1.7.6-.9.6-2.3-.2-3.2-3-3.3-7.9-1.1-12.4-6,0-.4.2-.9,0-1.3,2.9,1.5,5.5,3.8,9.2,3.5s5.2-.4,7.4-1Z"/>
  <path class="st3" d="M198.7,62.8c.2,3.6-1.2,6.9-2.5,10.2-1.4-1.1-4.1-.7-5.4-2.3,1.7-.5,4-2.1,5-3.5,1.5-2.1.5-4.4.6-6.4,1.2,0,1.6,1.4,2.3,2Z"/>
  <path class="st8" d="M106.9,153.1c-9.8,3.8-19.8-1.6-21.6-11.6-2.1-11.3,5.2-22,16.2-24.7,8.7-2.1,17,2.8,18.9,11.8,2.1,10-3.7,20.7-13.5,24.5ZM112.7,144.9c4.7-4,5.8-10.7,3.2-16-1.5-3-4.1-4.8-6.8-5s-6.1.9-8.2,3.6c-3.3,4.3-3.9,10.2-1.3,15,2.6,4.8,8.6,6.3,13,2.4Z"/>
  <path class="st8" d="M165,140.8c-1.8,7.9-8.8,12.3-16.5,11.1-11-1.8-18.9-12.3-17.7-23.4,1.1-9.5,9.3-15.4,18.6-13.1s18.3,14,15.6,25.4ZM152.9,140.3c1.9-6.2-.4-12.7-5.5-16.2s-5-2-7.8-.9-3.8,2.6-4.6,5.3c-1.9,6.2.7,13.5,6.4,16.7s9.9.3,11.4-4.9Z"/>
  <path class="st0" d="M139.2,166.8c-3.8,2.7-6.1,6.9-5.6,11.8-7.5-1.7-14.4-13.7-10.4-21.6s2.7-3.4,4.7-3.6c6-.9,10.5,8,11.3,13.4Z"/>
  <path class="st9" d="M204.2,169.5c5.1,4.2,12.3,5.4,19.1,5.1,4.3-.2,6.5-3.9,5.9-7.7,5.2.6,9.7.5,15.1,0-3.9,4.1-5.8,12.3-8.9,12.7-9.3,1.1-18.6.1-27.4-2.7-3.7-1.2-13.4-6.2-11.2-10.2.4-.8,1.4-1.4,2.4-1.8-.2,2.6,2.5,4.5,5,4.8Z"/>
  <path class="st9" d="M176.4,173.7c-3.4,1.7.9,8,3.2,9.2,2.1,4,13.9,11.3,17.2,5.6s0-3.1,0-4.3c6.8,3.4,13.6,5.3,21.3,7.2-5.2,2-9.8,3.9-14.5,7.1-12.6-2.4-23.7-9.7-31.4-19.8-1.3-1.7-1.1-3.7.1-5s3,.2,4.1,0Z"/>
  <path class="st1" d="M229.2,166.9c.6,3.8-1.6,7.5-5.9,7.7-6.8.4-14-.9-19.1-5.1.6-.6,1.1-1.2,1.4-2,1.1-.5,2-1.4,2.4-2.5l21.2,1.9Z"/>
  <path class="st9" d="M159.9,180.7c-.1,1.7-.7,3.5.4,4.9,0,3.9,7.1,12.5,11.8,9.1,1.8,1.1,3,2.2,4.2,3.7-4,.6-7.6,1-11.7.8-4.8-3.7-10.6-10.1-9.3-16.7s.9-2.2,1.7-2.5c1.3-.5,2,.3,2.8.8Z"/>
  <path class="st1" d="M196.8,184.2c-.1,1.2.8,2.9,0,4.3-3.3,5.7-15.1-1.6-17.2-5.6.4-.1.8-.6,1.2-.6,2.8-.2,5.9-.5,8.1-2.5,2.8,1.7,5.7,2.6,8,4.4Z"/>
  <path class="st1" d="M164.2,185.2c3.2,2.9,5.4,6.4,8,9.4-4.8,3.4-11.9-5.2-11.8-9.1,1.3,0,2.6-.2,3.9-.4Z"/>
  <path class="st5" d="M180.9,175.5c.2,2.3,0,4.5-.1,6.8-.4,0-.8.5-1.2.6-2.2-1.2-6.6-7.4-3.2-9.2,2.5-.7,3.2,1.5,4.5,1.8Z"/>
  <path class="st10" d="M188.8,179.8c-2.1,2-5.2,2.3-8.1,2.5.2-2.3.4-4.5.1-6.8,3.1.7,5.4,2.7,7.9,4.3Z"/>
  <path class="st5" d="M203.2,164.4c.6,1.2,1.7,2,2.4,3.1-.2.8-.7,1.5-1.4,2-2.5-.3-5.2-2.2-5-4.8,1.7-.8,2.9-.1,4-.3Z"/>
  <path class="st10" d="M164.2,185.2c-1.3.2-2.6.4-3.9.4-1.1-1.4-.5-3.2-.4-4.9,1.9,1,3.8,2.4,4.3,4.5Z"/>
  <path class="st6" d="M209.3,94.2c2.9,14,.1,28,0,41.5-3.6,3.2-7.6,5.8-12.3,8.1-4.8-14.2-8.3-21.1-8.5-37.1-.1-8.4-.9-16.3-2.3-24.6-.2-.9.2-3.2,1.5-3,9.2,1.5,17.6,7,21.7,15.1Z"/>
  <path class="st6" d="M189.5,147c-2.8.9-5.3,2.4-8.9,3.1.3-6.5,0-13.2,2.1-20.2l6.7,17.1Z"/>
  <path class="st7" d="M112.7,144.9c-4.4,3.8-10.4,2.4-13-2.4-2.6-4.8-2-10.7,1.3-15,2-2.7,4.9-3.9,8.2-3.6s5.4,2.1,6.8,5c2.5,5.2,1.4,12-3.2,16Z"/>
  <path class="st7" d="M152.9,140.3c-1.6,5.2-6.8,7.4-11.4,4.9s-8.3-10.4-6.4-16.7c.8-2.7,2.8-4.5,4.6-5.3,2.8-1.1,5.5-.7,7.8.9,5.1,3.5,7.4,10,5.5,16.2Z"/>
</svg>