<?xml version="1.0" encoding="UTF-8"?>
<svg id="Calque_1" xmlns="http://www.w3.org/2000/svg" version="1.1" viewBox="0 0 272.8 362">
  <!-- Generator: Adobe Illustrator 29.8.5, SVG Export Plug-In . SVG Version: 2.1.1 Build 2)  -->
  <defs>
    <style>
      .st0 {
        fill: #bbd397;
      }

      .st1 {
        fill: #a2c280;
      }

      .st2 {
        fill: #84ab42;
      }

      .st3 {
        fill: #4d7138;
      }

      .st4 {
        fill: #71933d;
      }

      .st5 {
        fill: #4b6d37;
      }

      .st6 {
        fill: #fbfaef;
      }

      .st7 {
        fill: #92b94d;
      }
    </style>
  </defs>
  <path class="st7" d="M99.4,114c-.8-.3,1-.5.3-1.3s-.8,0-1.2-.3c-1.9-1-3.7-2.1-5.6-3l-4.7-1.5c1.7-.4,5.9-2.6,7.3-1.7s1.2,1.6,1.8,2.1c2.8,2.4,7.2,3.4,10.8,3.2s5.3-.6,4.6-1.6c-4.4-2.5-8.7-4.5-13.8-4.8s-.9.2-.8-.3c1.7.3,5.7-2.3,6.8-2.2s.6,1.2.9,1.5c.6.6,3.3,1.9,4.3,2.3,4.3,1.7,9.5,2.5,13.8.2.5-2.1-10.2-4.9-12-5.2s-2.6,0-3.9,0c0-.5.8-.5,1.1-.6,5.1-1.5,10.2-1.7,15.4-.6.8,6.9,8.7,11.4,15.3,11.1-.5-4.9-6.6-8.4-10.8-9.9,0-.5,1.1-.3,1.4-.3,1.4,0,2.8.3,4.3.3,1.1,1.8,3.4,1.4,5.1,1.9,1.2,2.7,8.3,6.6,11.2,5.7s-1.5-4.3-2-5c.3.1,1,0,1.6.1,1.6.5,3.4,1.2,5.1,1.4,2.1,3.4,6.8,6.8,10.8,7,.1-.1-.5-3.6-.6-3.8l1-.6c.5.5,3.1,2.6,3.1,2.8.2.6-1.1,3.1-1.2,4.1-.3,2.2.5,4.4,1.6,6.3s3,4.2,3.9,3.1,1.7-4.7,1.4-6.7-1.1-2.5-1.5-3.7c2.1.6,4.1,1.8,6.4,1.6.8,4.9,2.5,9.6,3.4,14.6,2.8,14.9,3.3,30.5,4.2,45.7.3,4.7,1.2,10.2,1.3,14.8s-.9,2.6,0,3.5c0,1.4,0,2.8,0,4.1-.5.1-.5,1.2,0,1.3,0,.9,0,1.9,0,2.9,0,1.5-.1,1.6,0,3.2s.2,3.2.3,4.8c-.5.7-.7,3.6.3,3.2,0,1.1,0,2.1,0,3.2s-.4,2.3-.3,3.7-.3,1.3.6,1.1c0,.9,0,1.9,0,2.9s-.3,0-.3.5c0,.9-.4,3.4.6,3,0,.6,0,1.3,0,1.9s-.3,0-.3.5c0,.8-.3,2,.6,1.8,0,.8,0,1.7,0,2.5,0,1.3-.3,1.2,0,2.9s.2,1.5.3,2.2c-.5.4-.4,4-.3,4.1s.5,0,.6,0c0,1.6,0,3.2,0,4.8,0,5.3-.5,10.9-.3,16.4s-.3,1.3.6,1.1c0,2.6,0,5.3,0,7.9s-.4,3-.3,4.6-.3,1.3.6,1.1c0,1.2,0,2.3,0,3.5s-.2,1.1,0,2.5.5,2.7.3,4.1-.5.2-.3.6c.4.1.6-.3.6-.3.4,0,.9,0,1.3,0-.2,1.3.9.4,1.3.3s.7,0,1,0c-.1.7.1.9.6.3.2,0,.5,0,.6,0-.3.7,1.2,1.1,1.6.6,1.3.4,2.6.8,3.8,1.3-.2.9.6.7,1.3,1s.6.2,1,.3c0,.7,0,.7.6.6,2.1,1.3,2.9,1.1,3.8,3.8-.4.1-.3.6-.3,1-.2,1.6-.1,1-1,1.9-.7,0-.7,0-.6.6-1.2.6-1.5.4-2.5.6s-2.2,0-1.9,1c-.2,0-.4,0-.6,0-.5-.6-.8-.4-.6.3-.3,0-.7,0-1,0s-1.1-1-1,.3c-.5,0-1.1,0-1.6,0-1,0-1-.1-2.2,0-4.9.5-8.8,0-13.5,0s-9.3.7-13.8,0-1.4,0-2.5,0-2.1,0-3.2,0c.2-1.4-1.2-.3-1.6-.3-.7,0-1.5,0-2.2,0,.2-1-.7-.6-1.6-.6s-1.1,0-1.6,0c-.1-.5-1.2-.5-1.3,0-.3,0-.7,0-1,0,.1-.8-.2-.6-1-.6-.2-.1-1.2,0-1.6,0,0-.5.1-.7-.5-.6l-.2.3c-2.7-.8-4.2-2.1-5.1-4.8s-.4-3.1-1.3-2.9c-.1-.5-.2-1.1-.3-1.6.5-.6.4-.7-.3-.6,0-.2,0-.4,0-.6.6-.5.4-.8-.3-.6,0-.2,0-.4,0-.6.6-.5.4-.8-.3-.6,0-.2,0-.4,0-.6,0-.3,1-1.1-.3-1,0-.2,0-.4,0-.6.6-.5.4-.8-.3-.6,0-.2,0-.4,0-.6,0-.3,1-1.1-.3-1,0-.2,0-.4,0-.6.6-.5.4-.8-.3-.6,0-.2,0-.4,0-.6l.3-.5-.3-.2c0-.2,0-.9,0-1,0-.8.2-1.1-.6-1,0-.2,0-.4,0-.6l.3-.2-.3-.4c0-.4-.3-.8-.3-1.3l.3-.2c0-.7.1-.9-.6-.8,0-.4,0-.9,0-1.3s1-1.8-.3-1.6c0-.3,0-.6,0-1,0-.6.1-.6,0-1.6s-.2-1.7-.3-2.5c.5-.7.7-3.6-.3-3.2,0-.7,0-1.5,0-2.2.5-.2.4-1,0-1.3,0-.6-.4-1.3-.3-1.9s.5-.3.3-.6c-.8,0-1.1-.2-1,.6-1,0-1.9,0-2.9,0,.2-1.4-1.4-.4-1.9-.3s-1.8,0-1.9,0-.2-1.3-1-.6-.3,2.8.6,2.2c0,.5,0,1.1,0,1.6s-.3,0-.3.5c0,.9-.3,2.4.6,2.1,0,.7,0,1.5,0,2.2s-.2.5,0,1.6.2,1.3.3,1.9c-.5.6-.6,2.2.3,1.9,0,.4,0,.9,0,1.3s-1,1.1.3,1c0,.3,0,.6,0,1s-1,1.1.3,1c0,.3,0,.6,0,1s-1,1.1.3,1c0,.3,0,.6,0,1-.5,0-.5.9,0,1,0,.3,0,.6,0,1,0,.8-.3,1.5.6,1.3,0,.2,0,.4,0,.6-.5,0-.5.9,0,1,0,.2,0,.9,0,1,0,.8-.2,1.1.6,1,0,.3,0,.6,0,1-.6.5-.4.7.3.6,0,.3,0,.7,0,1s-1,1.1.3,1c0,.3,0,.7,0,1-.6.5-.4.7.3.6,0,.3,0,.7,0,1s-1,1.1.3,1c0,.3,0,.6,0,1s-1,1.1.3,1c0,.3,0,.6,0,1s-1,1.1.3,1c0,.2,0,.4,0,.6,0,.4-1,1.8.3,1.6,0,.3,0,.7,0,1-.8-.1-.6.2-.6,1,0,0-.2,0-.3,0-.7.2-1.8,0-1.6,1-.2,0-.4,0-.6,0-.5-.6-.8-.4-.6.3-.3,0-.7,0-1,0s-1.1-1-1,.3c-.4,0-.9,0-1.3,0l-.2-.3-.4.3c-.4,0-.8.3-1.3.3-.5-.6-1.9-.6-1.6.3-.6,0-1.3,0-1.9,0s-.5-.2-1.6,0-1.3.2-1.9.3c-.6-.5-2.6-.7-2.2.3-.4,0-.9,0-1.3,0s-1.1-1-1,.3c-.5,0-1.1,0-1.6,0s0-.3-.5-.3c-.9,0-2.4-.3-2.1.6-.8,0-1.7,0-2.5,0-1.3,0-2.8-.4-4.3-.3s-1.3-.3-1.1.6c-1.6,0-3.2,0-4.8,0s-3.9-.1-6,0-1.5,0-2.2,0c.2-1.4-1.5-.3-1.9-.3-1.5,0-2.4-.2-3.8-.3s-2.2,0-3.8,0-1.5,0-2.2,0c.2-1.4-1.5-.3-1.9-.3s-.7,0-1,0c0-.5.1-.7-.5-.6l-.2.3c-.8-.3-1.4-.5-2.2-1,.1-.6,0-.7-.6-.6-2.3-2.2-2.6-3.4-1-6.4.6.1.7,0,.6-.6.1-.1.2-.5.3-.6.8,0,1.5-.8,1.6-1.6.7-.4.8-.6,1.6-1s1.5,0,1.3-1c.7-.3,1.2-.4,1.9-.6s1.5,0,1.3-1c.4,0,.9,0,1.3,0,.7-.1,1.9-.2,1.6-1,.2,0,.5,0,.6,0,.5.6.8.4.6-.3.3,0,.7,0,1,0,.5.6.7.4.6-.3,0,0,0-.5,0-.6.2-.6.8-1.1-.3-1,0-.2,0-.4,0-.6,0-.3,1-1.1-.3-1,0-.2,0-.4,0-.6,0-.3,1-1.1-.3-1,0-.2,0-.4,0-.6,0-.4,1-1.4-.3-1.3,0-.2,0-.4,0-.6,0-.3,1-1.1-.3-1,0-.3,0-.6,0-1s1-1.1-.3-1c0-.2,0-.4,0-.6,0-.3,1-1.1-.3-1,0-.3,0-.6,0-1,.5-.1.4-.7,0-1,0-.4-.3-.8-.3-1.3.6-.5.5-1.5-.3-1.3,0-.2,0-.4,0-.6.5-.1.4-.7,0-1,0-.6-.2-1.1-.3-1.6.6-.5.5-1.5-.3-1.3,0-.2,0-.4,0-.6,0-.4,1-1.4-.3-1.3,0-.4,0-.9,0-1.3s1-1.1-.3-1c0-.3,0-.7,0-1s1-1.4-.3-1.3c0-.3,0-.7,0-1s1-1.4-.3-1.3c0-.4,0-.9,0-1.3s1-1.4-.3-1.3c0-.3,0-.6,0-1,.6-.5.4-.7-.3-.6,0-.3,0-.7,0-1s1-1.1-.3-1c0-.2,0-.4,0-.6,0-.3,1-1.1-.3-1,0-.3,0-.7,0-1,.6-.5.4-.7-.3-.6,0-.3,0-.7,0-1s1-1.1-.3-1c0-.2,0-.4,0-.6,0-.3,1-1.1-.3-1,0-.2,0-.4,0-.6,0-.3,1-1.1-.3-1,0-.2,0-.4,0-.6,0-.3,1-1.1-.3-1,0-.3,0-.7,0-1,.6-.5.4-.7-.3-.6,0-.3,0-.7,0-1s1-1.1-.3-1c0-.2,0-.4,0-.6,0-.3,1-1.1-.3-1,0-.3,0-.6,0-1s1-1.1-.3-1c0-.2,0-.4,0-.6,0-.3,1-1.1-.3-1,0-.3,0-.6,0-1s1-1.1-.3-1c0-.2,0-.4,0-.6,0-.3,1-1.1-.3-1,0-.3,0-.7,0-1,.6-.5.4-.7-.3-.6,0-.3,0-.7,0-1s1-1.1-.3-1c0-.2,0-.4,0-.6.6-.5.4-.8-.3-.6,0-.3,0-.6,0-1s.3-.2.3-.5c0-.6-.2-2.1-.9-1.8,0-.2,0-.4,0-.6.6-.5.4-.8-.3-.6,0-.3,0-.7,0-1,.6-.5.4-.7-.3-.6,0-.2,0-.4,0-.6l.3-.5-.3-.2c0-.2,0-.9,0-1,0-.7,0-.7-.6-.6,0-.2,0-.4,0-.6,0-.4,1-1.1-.3-1,0-.2,0-.4,0-.6,0-.3,1-1.1-.3-1,0-.3,0-.6,0-1s1-1.1-.3-1c0-.3,0-.7,0-1,.6-.5.4-.7-.3-.6,0-.3,0-.7,0-1s1-1.1-.3-1c0-.2,0-.4,0-.6,0-.3,1-1.1-.3-1,0-.3,0-.7,0-1s1-1.4-.3-1.3c0-.3,0-.6,0-1s1-1.1-.3-1c0-.3,0-.6,0-1s1-1.1-.3-1c0-.4,0-.9,0-1.3s1-1.4-.3-1.3c0-.2,0-.4,0-.6,0-.3,1-1.1-.3-1,0-.4,0-.9,0-1.3s1-1.4-.3-1.3c0-.2,0-.4,0-.6,0-.4,1-1.4-.3-1.3,0-.3,0-.6,0-1,.5-.1.4-.7,0-1,0-.4-.3-.8-.3-1.3.6-.5.5-1.5-.3-1.3,0-.3,0-.6,0-1,.8-.3,0-.8,0-1-.1-.4-.2-.8-.3-1.3-3.3-16.1-5.4-38.4-4.8-54.8,0-2.1.2-5.5.6-7.5l1.9-1.9c-.4,2.4,0,4.5,1.2,6.6s3.6,4.8,4.5,3.9c-.2-1.4.8-2.6.9-4,.4-3.4-1.6-6.8-4.4-8.5,0-.2,2.1-1.7,2.4-1.7s1.9,1.4,2.7,1.7c2.2.9,4.5,1,6.8.8s5.3-.5,4-1.7c-2-1.8-6.9-2.7-9.5-2.4l4.6-1.9c3.4-2.4,2.5-1.3,4.9.3s4.4,1.8,6.6,2l4.9-.7c-13.4,7.9-15.7,30.8,1,35.4,16.4,4.5,31.1-16.4,22.8-30.8s-13.3-9.4-20.9-6.3ZM145.8,111.2c-11.1,1.3-15.1,13.3-12,23,4,12.4,21.4,21.5,31.2,9.8,10.8-12.8-2.5-34.8-19.1-32.8ZM129.5,150.6c-3.2.5-5.4,4.7-5.6,7.7-.4,4.4,1.9,10.1,4.8,13.4s9.1,7.9,11.8,1.9-1.1-24.6-10.9-23Z"/>
  <path class="st2" d="M203.7,58.7c.1.2.2.5.3.6-.1.6,0,.7.6.6,0,.2.2.5.3.6-.1.6,0,.7.6.6,0,0,0,.3,0,.3,0,.7,0,.7.6.6.6,1.2.8,2,1.3,3.2s.8,2.3,1.1,3.5,0,1.1.8.9c0,.2,0,.4,0,.6s-.3.2-.2.4c0,.6.4,2.7,1.2,2.4,0,.2,0,.4,0,.6,0,.3-1,1.1.3,1,0,.2,0,.4,0,.6,0,.3-1,1.1.3,1,0,.2,0,.4,0,.6-.6.5-.4.8.3.6,0,.2,0,.4,0,.6-.6.5-.4.8.3.6,0,.2,0,.4,0,.6,0,.3-1,1.1.3,1,0,.2,0,.4,0,.6,0,.3-1,1.1.3,1,0,.2,0,.4,0,.6-.6.5-.4.8.3.6,0,.3,0,.7,0,1s-1,1.1.3,1c0,.2,0,.4,0,.6,0,.3-1,1.1.3,1,0,.2,0,.4,0,.6,0,.3-1,1.1.3,1,0,.3,0,.7,0,1s-1,1.4.3,1.3c0,.2,0,.4,0,.6,0,.4-1,1.8.3,1.6,0,.3,0,.6,0,1s-.3,0-.3.5c0,.9-.3,2.4.6,2.1,0,.5,0,1.1,0,1.6-.1,2.3-.2,3.3,0,5.7s.2,3.9,0,6.7,0,2.9,0,4.8,0,.6,0,1c-1-.4-.8,1.9-.3,2.5-.1.6-.2,1.3-.3,1.9-.2,1.2,0,.9,0,1.6s0,.6,0,1c-1.3-.2-.3.9-.3,1.3,0,.6,0,1.3,0,1.9-.5.1-.5,1.2,0,1.3,0,.7,0,1.5,0,2.2-1.3-.2-.3.7-.3,1s0,.6,0,1c-1.3-.2-.4.9-.3,1.3s0,.4,0,.6c-.2,0-.5,0-.6,0s-.6,2.5-.6,2.8c0,.5.3.7.3.7,0,.3,0,.6,0,1-1.3-.1-.4.6-.3,1s0,.4,0,.6c-1.3-.1-.4.6-.3,1s0,.4,0,.6c-1.3-.1-.4.6-.3,1s0,.4,0,.6c-.1,0-.6,0-.6,0,0,.1-.3,2.3-.3,2.7s.3.4.3.5c0,.2,0,.4,0,.6-1.3-.1-.4.6-.3,1s0,.4,0,.6c-.7-.1-.9.1-.3.6,0,.3,0,.7,0,1-.7-.1-.9.1-.3.6,0,.2,0,.4,0,.6-1.3-.1-.4.6-.3,1s0,.4,0,.6c-.9-.2-.6.5-.7,1-.7,2.5-1.5,5.1-1.8,7.6s0,.4,0,.6c-1.3-.1-.6,1.2-.6,1.3,0,.4-.2.9-.3,1.3-.2,0-.5,0-.6,0s-.9,2.9-1,3.5,0,.7,0,1c-.8-.2-.8.6-1,1.3s0,.7,0,1c-.9-.2-.7.6-1,1.3-.3,1-.4,1.5-1,2.5-.6,0-.7,0-.6.6,0,0-.2.7-.3,1-.7,0-.7,0-.6.6,0,0,0,.2,0,.3-.8-.2-.8.6-1,1.3s0,.2,0,.3c-.6-.1-.7,0-.6.6-.4.5-1.1,1.9-1.6,2.5-.6-.1-.7,0-.6.6-1.4,1.9-2.6,3.6-4.1,5.4-.6-.1-.7,0-.6.6-.4.4-.3,1.4-1.3,1.3h-.3c0-4.5-1-10.1-1.3-14.8-.9-15.1-1.4-30.7-4.2-45.7-.9-4.9-2.6-9.7-3.4-14.6s.2-.9-1-1.3l-.6-2.9c.7,0,2.3-.6,3-1s2.2-1.5,1.8-2.1-8.1-3-9.2-3.2c-.1-2.1-2.3-1.5-2.5-3.8s0-1.8,0-2.5c1.3.2.3-.7.3-1-.2-2.7.2-5.6,0-8.3.6-.5.4-.7-.3-.6,0-.6,0-1.3,0-1.9l-.3-.3c-.2-1.3-.4-2.5-.6-3.8l.3-.2-.3-.8c6.8-.1,13.1-3.1,19-6.3s12.6-7.8,12.5-17.2l1.3.6Z"/>
  <path class="st2" d="M63.8,84.1c.8,5.6,1.2,10.3,3.5,15.7s2.6,4.3,3.5,6.2.3,1-.6,1.6c-1.9,1.2-3.8,6.1-3.8,8.4s.9,3.2.9,3.4c-.1.6-1.7,1.9-2.2,3.7s-.6,5.4-.6,7.5c-.6,16.4,1.4,38.8,4.8,54.8-.8,0-1.2-.5-1.8-.9-8-7.1-17.8-21.4-22.9-30.8-13.9-25.8-22.6-54.9-19.5-84.5.6,2.7,1.2,5,2.9,7.1,4.6,5.8,19.3,8.8,26.5,9.1s6.1-.8,9.4-1.3Z"/>
  <path class="st0" d="M113.7,93.7c.7-.7,3.6-2.4,4.6-2.9,1.7-1,3.6-1.8,5.4-2.5,1.7.3-1.1,6.6-2.4,7.2l-3.8,2.7c2.6-.3,5.1.4,7.8.7,1.4-4.8,6.8-7.1,11.3-7.8s1.1-.2,1.6.2c-.6,1.4-.8,3-1.8,4.4s-3.2,2.8-3.2,3.1c-.5,2.4,3.9,1.7,5.4,1.6.6-3.9,2.2-7.8,5.6-10s4.4-2.6,4.8-1.4c1.2,3.7-3.1,8.1-5.7,10.3,3.5-1,7.1-.9,10.6-.3.7-1.1.9-2.2,2-3.2s5.3-3,6.5-3.2,4.4-.4,5.2-.3c2.1,0,1.4,1,.7,2.4s-1.7,3-1.9,3.1c-.2.2-3.1,1.6-3.5,1.7s-3.5.6-3.2,1.1c2.5.2,5.2,4.6,6.7,5.3s1.3-.3,1.9-.5c2.4-.8,3.5-.8,6-.3s8.9,2.8,9.2,3.2c.4.6-1.2,1.8-1.8,2.1s-2.3,1-3,1c-2.2,0-4.9-.7-7.1-1.4s-1-.5-.9,0c2.1,1.7,3.9,2.9,6.5,3.8s1.5.2,2,.3c1.2.3.8.4,1,1.3-2.3.3-4.3-1-6.4-1.6.4,1.2,1.3,2.4,1.5,3.7.3,2,0,5.1-1.4,6.7s-3.4-2.2-3.9-3.1c-1.2-1.9-1.9-4.1-1.6-6.3s1.4-3.5,1.2-4.1-2.7-2.3-3.1-2.8c-2.7-2.7-5.3-6.4-9.2-7.3l3,2.2c1.9,1.7,3.2,3.3,4.6,5.5s.6.2.6.2c.1.2.8,3.7.6,3.8-4-.2-8.7-3.6-10.8-7s-2.2-5.5-2.8-5.7c-.9-.3-4-.4-5-.4-1.6,0-3.4.7-4.9,1l3.4,1.5c.8.3,1.9,1.7,2.6,2,.5.7,3.7,4.5,2,5-3,1-10-2.9-11.2-5.7s-.3-1.8-.3-1.9c-.2-.2-4,0-4.8,0-1.5,0-2.9-.3-4.3-.3s-1.5-.2-1.4.3c4.2,1.4,10.3,4.9,10.8,9.9-6.6.3-14.4-4.2-15.3-11.1-5.2-1.1-10.3-.9-15.4.6s-1.2.1-1.1.6c1.3,0,2.6,0,3.9,0s12.5,3,12,5.2c-4.2,2.3-9.4,1.5-13.8-.2s-3.6-1.6-4.3-2.3-.7-1.5-.9-1.5c-1.1,0-5.1,2.6-6.8,2.2,0,.5.4.3.8.3,5.1.3,9.5,2.3,13.8,4.8.8,1-4.1,1.6-4.6,1.6-3.6.2-8-.8-10.8-3.2s-1.5-1.9-1.8-2.1c-1.4-.9-5.7,1.4-7.3,1.7l4.7,1.5c2,.8,3.7,2,5.6,3s1.1.2,1.2.3c.7.8-1.1,1-.3,1.3-.2,0-2.5,1.4-2.9,1.6l-4.9.7c-2.3-.2-4.7-.7-6.6-2s-1.5-2.7-4.9-.3l-4.6,1.9c2.6-.3,7.5.6,9.5,2.4s-3.2,1.7-4,1.7c-2.3.2-4.7,0-6.8-.8s-2.5-1.7-2.7-1.7c-.3,0-2.4,1.5-2.4,1.7,2.8,1.8,4.8,5.1,4.4,8.5s-1.1,2.6-.9,4c-.9.9-4.1-3.2-4.5-3.9-1.3-2.1-1.6-4.2-1.2-6.6l-1.9,1.9c.4-1.9,2.1-3.1,2.2-3.7s-.9-2.5-.9-3.4c0-2.3,1.9-7.2,3.8-8.4.7,2.5.6,5.5,0,8s-1.5,2.6-.4,2.2c1.8-.7,1.6-3.1,2.2-4.8s3.4-5.9,5-7.4.8-.6,1.5-.5c0,.6.5,1.5.3,2.5s-.9,2.7-1.2,3.4c-.6,1.3-1.5,2.3-2,3.6.3.3,5-1.8,5.2-2.2.4-.7,0-2.8.2-3.8.2-2.8.8-4.5,2.2-6.9s4.2-5.9,5-6.1c1.7-.5.7,2.2.5,3.1-.8,3.7-2.5,7.1-3.9,10.5,1.5-.5,2.6-1.8,4-2.5s5-1.6,5.5-2.1.2-2.7.6-3.8c.7-2.3,3.7-5,5.6-6.5s3.8-2.8,4.1-2.9c.6-.2.4.1.5.5.5,3.5-1.7,6.2-3.7,8.7l-3.3,3.2,11.9-4.5c.5-.1.4-.7.5-.9.8-1.1,1.4-2.4,2.2-3.5s.9-1.2,1-1.3ZM75.1,114.6v.3c.2-.1.2-.2,0-.3Z"/>
  <path class="st7" d="M151.6,86.4c-3.9-.2-11.7.7-13.3,4.8-.5-.4-1-.3-1.6-.2-4.5.8-10,3.1-11.3,7.8-2.6-.2-5.1-.9-7.8-.7l3.8-2.7c1.3-.6,4.1-6.8,2.4-7.2-1.9.7-3.7,1.5-5.4,2.5s-3.8,2.3-4.6,2.9c.7-11.5,8.2-24.3,19.3-28.5s14-2.9,11.1,5.7c-1.3,4-4.3,7.7-6.6,11.2,2.5-.4,4.7-2.5,7.2-2.9,5.1-.8,12.7,1.7,6.8,7.2Z"/>
  <path class="st2" d="M63.2,67.9c-1.3-.1-1.7,1.8-2.5,2.7-4,4.3-9.3,4.4-14.8,4.6s-13,.4-15.8-1.1-3-6.5-2.8-9.9-.4-1-.4-1.1c.4-10.2,19.7-11.5,26.6-8.6s10,7.6,9.6,13.4Z"/>
  <path class="st2" d="M200.2,55.5c-.5,1.4.5,2.7.3,4.3-.5,4.6-6.2,6-10,7.2-7.8,2.4-15.8,5.2-22.9,0s-.5-.8-1.1-.3c-1.5-3.4-1.8-5.5,0-9,5.2-9.7,21.3-11.9,30-6.3s2.3,2.6,3.6,4.1Z"/>
  <path class="st3" d="M110.2,94.9c.2,1.1.4,2.3.3,3.5-.1.2,0,.8-.5.9l-11.9,4.5,3.3-3.2c2-2.5,4.1-5.3,3.7-8.7s.1-.6-.5-.5-3.6,2.4-4.1,2.9c-1.9,1.5-4.9,4.2-5.6,6.5s-.1,3.4-.6,3.8-4.4,1.5-5.5,2.1-2.5,2-4,2.5c1.4-3.5,3.2-6.8,3.9-10.5s1.2-3.5-.5-3.1-4.5,5.1-5,6.1c-1.4,2.4-1.9,4.1-2.2,6.9l-.5,1.6-1.7-2.5c.2-1.1-.3-1.9-.3-2.5,0-1.9,0-3.6.6-5.4,1.4-4.6,6.2-10.5,10.6-12.5,8.1-3.7,18.4-2.2,20.6,7.7Z"/>
  <path class="st4" d="M27,63.2c0,0,.4.5.4,1.1-.2,3.5-1.1,7.9,2.8,9.9s12.4,1.2,15.8,1.1c5.5-.2,10.8-.3,14.8-4.6s1.3-2.8,2.5-2.7c0,.3,0,.7,0,1-.7,5.3-8.2,6.1-10.6,9.9s.9,4.2,3.3,4.6,5.9-.3,7.6-.8c.2.5.2,1,.3,1.6-3.2.5-6,1.4-9.4,1.3-7.2-.3-22-3.2-26.5-9.1s-2.3-4.5-2.9-7.1c0-.2,0-.4,0-.6l.3-1c.2-1.5,0-3.4,1.6-4.4Z"/>
  <path class="st4" d="M202.4,57.4c0,.2,0,.4,0,.6,0,9.4-5,13-12.5,17.2s-12.2,6.2-19,6.3h-.3c0-.2,0-.4,0-.6,0-.3-.2-.7.2-1,.8-.5,2.7-.2,3.7-.4,5.3-1,8.2-5.1,1.8-7.4s-7.8-.9-9.8-4.9,0-.5,0-.6c.6-.5.7,0,1.1.3,7.1,5.2,15.1,2.4,22.9,0s9.5-2.6,10-7.2-.8-2.9-.3-4.3c.5.5,1.6,1.3,2.2,1.9Z"/>
  <path class="st3" d="M151.6,86.4c.1,0,.2,0,.3,0,0,.1.2.3.3.3,3.5.6,7.7,3.1,10.2,5.7-1.2.2-5.6,2.3-6.5,3.2s-1.3,2.1-2,3.2c-3.5-.6-7.1-.7-10.6.3,2.6-2.1,6.9-6.5,5.7-10.3s-4,.9-4.8,1.4c-3.4,2.2-5,6.1-5.6,10-1.5.2-5.8.8-5.4-1.6s2.7-2.3,3.2-3.1c1-1.4,1.2-3,1.8-4.4,1.7-4.1,9.5-5,13.3-4.8Z"/>
  <path class="st2" d="M63.2,68.9c1.3,1.2,2.2.7,2.8,2.8s.9,9.9-2.5,10.9-5.9,1.1-7.6.8-5-2-3.3-4.6c2.4-3.8,9.9-4.5,10.6-9.9Z"/>
  <path class="st2" d="M166.5,67.3c2,4,6.3,3.6,9.8,4.9,6.4,2.3,3.5,6.4-1.8,7.4s-2.9-.1-3.7.4-.2.7-.2,1c-.8-1.2-2.3-.8-3.3-1.9-1.5-1.7-2.5-7.8-2.1-10s1.3-.7,1.3-1.8Z"/>
  <path class="st7" d="M78.5,105.1c-.8-.1-1,0-1.5.5-1.5,1.5-4.2,5.4-5,7.4s-.5,4.1-2.2,4.8.3-1.8.4-2.2c.6-2.5.8-5.5,0-8,.9-.6,1.3,0,.6-1.6,3-1.8,4.8-5.1,8.3-6.4-.5,1.8-.7,3.5-.6,5.4Z"/>
  <path class="st3" d="M166.5,97.5c0,.6.8,1.2,1,1.6.7,1.8,1.1,4.1,1,6-.6.2-.8,1-1.9.5s-4.2-5-6.7-5.3c-.3-.5,2.7-1,3.2-1.1s3.3-1.6,3.5-1.7Z"/>
  <path class="st7" d="M171.9,101c.3,2.3,2.4,1.7,2.5,3.8-2.5-.4-3.6-.5-6,.3.1-1.9-.3-4.3-1-6l4.4,1.9Z"/>
  <path class="st1" d="M191.9,265.6c-1,.2-.6-.5-.6-1.1-.2-5.5.2-11,.3-16.4.5.5.3,1.1.3,1.7.1,5.2,0,10.5,0,15.7Z"/>
  <path class="st1" d="M209.1,152.8c0,2.4-1.7,6.3-2.5,8.6.4-2.4,1.2-5,1.8-7.6s-.2-1.2.7-1Z"/>
  <path class="st7" d="M112.8,94.9c-.9,1.1-1.4,2.4-2.2,3.5,0-1.2,0-2.3-.3-3.5h2.5Z"/>
  <path class="st1" d="M100.1,306c-1.7.5-4.3.5-6,0,2.1-.1,4,0,6,0Z"/>
  <path class="st1" d="M214.5,103.8c-.2-2.4-.1-3.4,0-5.7.5,1.6.5,4.1,0,5.7Z"/>
  <path class="st1" d="M192.2,279.3c-1,.2-.6-.5-.6-1.1,0-1.6.3-3.2.3-4.6.6,1.7.4,3.9.3,5.7Z"/>
  <path class="st1" d="M110.2,305.6c-1.5.6-3.7.3-5.4.3-.2-1,.5-.6,1.1-.6,1.5,0,3,.3,4.3.3Z"/>
  <path class="st1" d="M190.3,221.1c-1,.2-.6-.5-.6-1.1,0-1.4.3-2.7.3-3.7.6,1.3.4,3.3.3,4.8Z"/>
  <path class="st1" d="M214.5,115.3c0-1.9-.2-2.7,0-4.8.5,1.2.5,3.5,0,4.8Z"/>
  <path class="st1" d="M191.6,243.3c-.2,0-.6,0-.6,0-.1-.2-.1-3.8.3-4.1.2,1.5.3,2.5.3,4.1Z"/>
  <path class="st1" d="M207.5,65.4c.8-.2.7.4.9.9.4,1.1.8,2.4,1,3.6-.8.2-.6-.4-.8-.9-.4-1.2-.7-2.3-1.1-3.5Z"/>
  <path class="st1" d="M86.1,305.3c-.9.6-2.8.5-3.8,0,1.6,0,1.9-.2,3.8,0Z"/>
  <path class="st1" d="M190.7,227.5c-1,.4-.7-2.1-.6-3s.3-.4.3-.5c.5.9.4,2.4.3,3.5Z"/>
  <path class="st1" d="M189.4,193.8c-.9-.9,0-2.7,0-3.5h.3c0,.9,0,1.8,0,2.7s-.3.7-.3.8Z"/>
  <path class="st1" d="M212.9,133.7c0,1-.5,2.6-1,3.5,0,0-.3-.2-.3-.7s.5-2.7.6-2.8.4,0,.6,0Z"/>
  <path class="st1" d="M189.4,205.2c-.1-1.6,0-1.7,0-3.2.5.8.5,2.3,0,3.2Z"/>
  <path class="st1" d="M190,213.2c-1.1.4-.8-2.5-.3-3.2,0,1,.3,1.9.3,3.2Z"/>
  <path class="st1" d="M139.8,265.9c1.1-.4.8,2.5.3,3.2-.1-1-.2-2.1-.3-3.2Z"/>
  <path class="st1" d="M205.6,164.5c-.2.7-.8,3.1-1,3.5s-.4,0-.6,0c.1-.5.9-3.3,1-3.5s.4,0,.6,0Z"/>
  <path class="st1" d="M211,142.9c0,.9-.2,2.3-.6,3.2,0,0-.3-.2-.3-.5s.2-2.6.3-2.7.5,0,.6,0Z"/>
  <path class="st1" d="M191,237c-.3-1.6,0-1.6,0-2.9.5.7.6,2.2,0,2.9Z"/>
  <path class="st1" d="M214.5,116.2c0,1.2-.2,1.6-.3,2.5-.5-.6-.7-2.9.3-2.5Z"/>
  <path class="st1" d="M115.3,305.3c-.7.5-1.7.3-2.5.3-.3-1,1.2-.7,2.1-.6s.4.3.5.3Z"/>
  <path class="st1" d="M192.2,285.3c-.2-1.5,0-1.4,0-2.5.5.6.6,2,0,2.5Z"/>
  <path class="st1" d="M210.4,73.3c-.8.3-1.1-1.8-1.2-2.4s.2-.4.2-.4c.5.7.9,2.1,1,2.9Z"/>
  <path class="st1" d="M144.6,294.2c.8-.2.9,1.9,1.3,2.9-1,.2-1-2-1.3-2.9Z"/>
  <path class="st1" d="M132.2,265.9c-1,.3-.7-1.2-.6-2.1s.3-.4.3-.5c.5.7.3,1.7.3,2.5Z"/>
  <path class="st1" d="M169,303.7c-.6.6-1.9.5-2.5,0,1.1,0,1.1-.2,2.5,0Z"/>
  <path class="st1" d="M131.9,261.8c-.9.6-.7-2.1-.6-2.2.7-.7.9.6,1,.6-1-.2-.4.6-.3,1.6Z"/>
  <path class="st1" d="M214.5,96.5c-1,.3-.7-1.2-.6-2.1s.3-.4.3-.5c.4.8.3,1.7.3,2.5Z"/>
  <path class="st1" d="M198.6,303.7c-.5.5-1.7.6-2.2,0,1.2-.1,1.2,0,2.2,0Z"/>
  <path class="st1" d="M191,231.6c-.9.3-.7-.9-.6-1.8s.3-.4.3-.5c.5.6.3,1.5.3,2.2Z"/>
  <path class="st1" d="M121.4,304.7c-.8.1-1.2.3-2.2.3-.4-1,1.6-.8,2.2-.3Z"/>
  <path class="st1" d="M75.6,223.6c.7-.3.9,1.1.9,1.8s-.3.4-.3.5c-.5-.6-.5-1.5-.6-2.2Z"/>
  <path class="st1" d="M75.3,293.9c0,.8-.8,1.5-1.6,1.6.1-.1,0-.6.4-1s.9-.4,1.1-.6Z"/>
  <path class="st1" d="M134.1,260.2c.5,0,2.1-1.1,1.9.3-.7,0-1.4.2-1.9-.3Z"/>
  <path class="st1" d="M132.8,273.5c-1,.3-.9-1.3-.3-1.9.1.7.3.9.3,1.9Z"/>
  <path class="st1" d="M89.9,305.6c.4,0,2.1-1.1,1.9.3-.7,0-1.4.2-1.9-.3Z"/>
  <path class="st1" d="M78.1,305c.4,0,2.1-1.1,1.9.3-.7,0-1.4.2-1.9-.3Z"/>
  <path class="st1" d="M205.3,302.1c.3.8-1.1.8-1.9,1-.3-.9,1.2-.8,1.9-1Z"/>
  <path class="st1" d="M203.7,58.7l-1.3-.6c0-.2,0-.4,0-.6.7.6.5.1,1.3,1.3Z"/>
  <path class="st1" d="M214.2,93c-1.4.2-.4-1.2-.3-1.6.4.5.3,1,.3,1.6Z"/>
  <path class="st1" d="M213.9,122.3c0-.7-.2-.4,0-1.6.6.3.4,1.2,0,1.6Z"/>
  <path class="st1" d="M124.9,304.4c-.4.4-1.3.6-1.6,0,1.1-.2,1,0,1.6,0Z"/>
  <path class="st1" d="M128.4,304c-.4,0-.8.3-1.6.3-.3-.9,1.1-.9,1.6-.3Z"/>
  <path class="st1" d="M161.7,303.4c.4,0,1.8-1,1.6.3-.6,0-1.1.1-1.6-.3Z"/>
  <path class="st1" d="M157.9,302.8c.8,0,1.8-.3,1.6.6-.9,0-1.8.3-1.6-.6Z"/>
  <path class="st1" d="M132.2,269.7c-.2-1.1,0-1,0-1.6.4.4.6,1.3,0,1.6Z"/>
  <path class="st1" d="M137.3,300.2c-1.4.2-.4-1.2-.3-1.6.5.5.3,1,.3,1.6Z"/>
  <path class="st1" d="M140.4,273.2c-.4-.4-.6-1.3,0-1.6.1,1,0,1,0,1.6Z"/>
  <path class="st1" d="M140.4,274.2c1.4-.2.4,1.2.3,1.6-.4-.5-.3-1-.3-1.6Z"/>
  <path class="st1" d="M84.2,289.4c.3.8-.9.8-1.6,1-.2-.8.9-.8,1.6-1Z"/>
  <path class="st1" d="M199.2,291c-.4.5-1.9,0-1.6-.6.7.2,1.1.5,1.6.6Z"/>
  <path class="st1" d="M136.3,302.1c.2.8-.9.8-1.6,1-.2-.9.9-.7,1.6-1Z"/>
  <path class="st1" d="M213.9,90.8c-1.3.2-.4-.9-.3-1.3.4.4.3.8.3,1.3Z"/>
  <path class="st1" d="M81.9,257c1.3-.2.4.9.3,1.3-.4-.4-.3-.8-.3-1.3Z"/>
  <path class="st1" d="M82.3,259.6c1.3-.2.4.9.3,1.3-.4-.4-.3-.8-.3-1.3Z"/>
  <path class="st1" d="M213.9,123.2c0,.5,0,.9-.3,1.3,0-.3-1-1.5.3-1.3Z"/>
  <path class="st1" d="M213.5,127.7c-.5-.1-.5-1.1,0-1.3,0,.7,0,.7,0,1.3Z"/>
  <path class="st1" d="M213.2,131.8c0,.5,0,.9-.3,1.3,0-.3-1-1.5.3-1.3Z"/>
  <path class="st1" d="M82.6,261.8c1.3-.2.4.9.3,1.3-.4-.4-.3-.8-.3-1.3Z"/>
  <path class="st1" d="M139.8,263.7c0-.4,0-1,0-1.3.4.3.5,1.1,0,1.3Z"/>
  <path class="st1" d="M206.5,162c0,.5-.2.9-.6,1.3,0,0-.7-1.4.6-1.3Z"/>
  <path class="st1" d="M204,169c-.1.7-.2,1.5-1,1.3.1-.7.2-1.5,1-1.3Z"/>
  <path class="st1" d="M203,171.2c-.1.7-.2,1.5-1,1.3.2-.6,0-1.5,1-1.3Z"/>
  <path class="st1" d="M199.6,177.6c-.2.6,0,1.5-1,1.3.2-.6.1-1.5,1-1.3Z"/>
  <path class="st1" d="M69.6,188.7c.8-.3.9.7.3,1.3,0-.2-.2-.8-.3-1.3Z"/>
  <path class="st1" d="M83.2,266.2c1.3-.2.4.9.3,1.3-.4-.4-.3-.8-.3-1.3Z"/>
  <path class="st1" d="M70.2,193.1c1.3-.2.4.9.3,1.3-.4-.4-.3-.8-.3-1.3Z"/>
  <path class="st1" d="M83.5,268.1c.8-.3.9.7.3,1.3,0-.3-.3-.5-.3-1.3Z"/>
  <path class="st1" d="M70.5,195c1.3-.2.4.9.3,1.3-.4-.4-.3-.8-.3-1.3Z"/>
  <path class="st1" d="M156.3,302.8c-.5,0-.7,0-1.3,0,.1-.5,1.1-.5,1.3,0Z"/>
  <path class="st1" d="M203,292.3c.6.2,1.5,0,1.3,1-.6-.2-1.5,0-1.3-1Z"/>
  <path class="st1" d="M78.1,292c.2.9-.7.7-1.3,1-.2-.9.7-.7,1.3-1Z"/>
  <path class="st1" d="M189.4,199.2c-.5-.1-.5-1.1,0-1.3,0,.2,0,.8,0,1.3Z"/>
  <path class="st1" d="M81.3,290.4c.2.9-.6.7-1.3,1-.2-.8.6-.8,1.3-1Z"/>
  <path class="st1" d="M195.4,290.1c-.4,0-1.4,1-1.3-.3.5,0,.9,0,1.3.3Z"/>
  <path class="st1" d="M71.1,199.2c1.3-.2.4.9.3,1.3-.4-.4-.3-.8-.3-1.3Z"/>
  <path class="st1" d="M84.2,272.6c.8-.3.9.7.3,1.3,0-.2-.2-.7-.3-1.3Z"/>
  <path class="st1" d="M72.1,205.5c1.3-.2.4.9.3,1.3-.4-.4-.3-.8-.3-1.3Z"/>
  <path class="st1" d="M133.8,282.4c1-.2.5.5.6,1.3-.9.2-.7-.5-.6-1.3Z"/>
  <path class="st1" d="M85.8,282.1c1.3-.2.4.9.3,1.3-.4-.4-.3-.8-.3-1.3Z"/>
  <path class="st1" d="M136.9,298c-1.3.2-.3-.7-.3-1,.4.1.3.6.3,1Z"/>
  <path class="st1" d="M84.8,277c1.3-.1.4.6.3,1-.4-.2-.3-.6-.3-1Z"/>
  <path class="st1" d="M140.8,277c.8-.1.7,0,.6.8l-.3.2c0-.1-.3-.4-.3-1Z"/>
  <path class="st1" d="M85.1,278.6c1.3-.2.3.7.3,1-.4-.2-.3-.6-.3-1Z"/>
  <path class="st1" d="M133.8,279.6c-1.3.2-.3-.7-.3-1,.4.2.3.6.3,1Z"/>
  <path class="st1" d="M78.8,240.2c1.3-.1.4.6.3,1-.4-.2-.3-.6-.3-1Z"/>
  <path class="st1" d="M133.4,277.7c-1.3.2-.3-.7-.3-1,.4.2.3.6.3,1Z"/>
  <path class="st1" d="M78.1,236.7c1.3-.2.3.7.3,1-.4-.2-.3-.6-.3-1Z"/>
  <path class="st1" d="M84.8,276.1c0-.5,0-.9,0-1,.4.2.5.8,0,1Z"/>
  <path class="st1" d="M85.4,280.5c1.3-.1.4.6.3,1-.4-.2-.3-.6-.3-1Z"/>
  <path class="st1" d="M133.8,281.5c-.5,0-.5-.9,0-1,0,.5,0,.7,0,1Z"/>
  <path class="st1" d="M141.4,280.5c.8-.1.6.2.6,1-.3-.3-.3.7-.6-1Z"/>
  <path class="st1" d="M73.4,212.8c1.3-.2.3.7.3,1-.4-.2-.3-.6-.3-1Z"/>
  <path class="st1" d="M210.7,74.9c-1.3.2-.3-.7-.3-1,.4.2.3.6.3,1Z"/>
  <path class="st1" d="M211,76.5c-1.3.1-.4-.6-.3-1,.4.2.3.6.3,1Z"/>
  <path class="st1" d="M211.9,80.6c-1.3.1-.4-.6-.3-1,.4.2.3.6.3,1Z"/>
  <path class="st1" d="M72.7,209.3c1.3-.1.4.6.3,1-.4-.2-.3-.6-.3-1Z"/>
  <path class="st1" d="M77.2,231.6c1.3-.1.4.6.3,1-.4-.2-.3-.6-.3-1Z"/>
  <path class="st1" d="M212.3,82.2c-1.3.1-.4-.6-.3-1,.4.2.3.6.3,1Z"/>
  <path class="st1" d="M133.1,275.8c-1.3.2-.3-.7-.3-1,.4.2.3.6.3,1Z"/>
  <path class="st1" d="M212.9,85.4c-1.3.1-.4-.6-.3-1,.4.2.3.6.3,1Z"/>
  <path class="st1" d="M86.1,284c1.3-.1.4.6.3,1-.4-.1-.3-.6-.3-1Z"/>
  <path class="st1" d="M72.4,207.8c1.3-.1.4.6.3,1-.4-.2-.3-.6-.3-1Z"/>
  <path class="st1" d="M213.2,87c-1.3.1-.4-.6-.3-1,.4.2.3.6.3,1Z"/>
  <path class="st1" d="M134.4,285.3c-.5,0-.5-.9,0-1,0,.5,0,.3,0,1Z"/>
  <path class="st1" d="M213.5,88.6c-1.3.1-.4-.6-.3-1,.4.2.3.6.3,1Z"/>
  <path class="st1" d="M76.5,228.1c1.3-.1.4.6.3,1-.4-.2-.3-.6-.3-1Z"/>
  <path class="st7" d="M172.2,97.5c0,.3,1,1.1-.3,1,0-.3,0-.8.3-1Z"/>
  <path class="st1" d="M142.3,285c1.3-.1.4.6.3,1-.4-.2-.3-.6-.3-1Z"/>
  <path class="st1" d="M81,251.9c1.3-.1.4.6.3,1-.4-.2-.3-.6-.3-1Z"/>
  <path class="st1" d="M73.7,214.7c1.3-.1.4.6.3,1-.4-.2-.3-.6-.3-1Z"/>
  <path class="st1" d="M86.4,285.6c1.3-.1.4.6.3,1-.4-.2-.3-.6-.3-1Z"/>
  <path class="st1" d="M213.5,129.9c0,.3,0,.8-.3,1,0-.3-1-1.1.3-1Z"/>
  <path class="st1" d="M71.8,203.6c1.3-.2.3.7.3,1-.4-.2-.3-.6-.3-1Z"/>
  <path class="st1" d="M138.8,260.5c-.1-.8.2-.7,1-.6.1.4-.3.6-.3.6h-.6Z"/>
  <path class="st1" d="M134.4,286.2c.3.3.4-.7.6,1-.8.1-.6-.2-.6-1Z"/>
  <path class="st1" d="M71.5,201.7c1.3-.2.3.7.3,1-.4-.2-.3-.6-.3-1Z"/>
  <path class="st1" d="M77.8,235.1c1.3-.1.4.6.3,1-.4-.2-.3-.6-.3-1Z"/>
  <path class="st1" d="M74,216.3c1.3-.1.4.6.3,1-.4-.2-.3-.6-.3-1Z"/>
  <path class="st1" d="M86.7,287.2c1.1-.1.5.3.3,1-.4-.2-.3-.6-.3-1Z"/>
  <path class="st1" d="M143,287.8c1.3-.1.4.6.3,1-.4-.2-.3-.6-.3-1Z"/>
  <path class="st1" d="M211.9,138.2c0,.3,0,.8-.3,1,0-.3-1-1.1.3-1Z"/>
  <path class="st1" d="M211.6,139.8c0,.3,0,.8-.3,1,0-.3-1-1.1.3-1Z"/>
  <path class="st1" d="M80.4,248.4c1.3-.1.4.6.3,1-.4-.2-.3-.6-.3-1Z"/>
  <path class="st1" d="M211.3,141.3c0,.3,0,.8-.3,1,0-.3-1-1.1.3-1Z"/>
  <path class="st1" d="M210.4,146.7c0,.3,0,.8-.3,1,0-.3-1-1.1.3-1Z"/>
  <path class="st1" d="M135.7,290.7c-1.3.1-.4-.6-.3-1,.4.2.3.6.3,1Z"/>
  <path class="st1" d="M209.4,151.2c0,.3.1.8-.3,1,0-.3-1-1.1.3-1Z"/>
  <path class="st1" d="M82.9,264c1.3-.2.3.7.3,1-.4-.2-.3-.6-.3-1Z"/>
  <path class="st1" d="M81.3,253.5c1.3-.1.4.6.3,1-.4-.2-.3-.6-.3-1Z"/>
  <path class="st1" d="M69.6,187.7c0,0-.7-.7,0-1,0,.2.8.7,0,1Z"/>
  <path class="st1" d="M84.2,271.9c0-.7,0-.9,0-1,.4.2.5.8,0,1Z"/>
  <path class="st1" d="M136.3,294.2c-1.3.1-.4-.6-.3-1,.4.2.3.6.3,1Z"/>
  <path class="st1" d="M70.8,197.6c1.3-.1.4.6.3,1-.4-.2-.3-.6-.3-1Z"/>
  <path class="st1" d="M78.5,238.6c1.3-.1.4.6.3,1-.4-.2-.3-.6-.3-1Z"/>
  <path class="st1" d="M136.6,296.1c-1.3.2-.3-.7-.3-1,.4.2.3.6.3,1Z"/>
  <path class="st1" d="M70.2,192.2c0-.5,0-.9,0-1,.4.2.5.8,0,1Z"/>
  <path class="st1" d="M209.7,298c.2.6.9,1.1-.3,1,0-.3-.1-.8.3-1Z"/>
  <path class="st1" d="M117.9,305c-.2.4-.6.3-1,.3-.2-1.3.7-.3,1-.3Z"/>
  <path class="st1" d="M79.4,243.7c1.3-.1.4.6.3,1-.4-.2-.3-.6-.3-1Z"/>
  <path class="st1" d="M80,246.8c1.3-.1.4.6.3,1-.4-.2-.3-.6-.3-1Z"/>
  <path class="st1" d="M153.1,302.1c.8,0,1.1-.2,1,.6-1.7-.2-.6-.4-1-.6Z"/>
  <path class="st1" d="M201.1,303.4c-.2.4-.6.3-1,.3-.1-1.3.6-.4,1-.3Z"/>
  <path class="st1" d="M79.7,245.3c1.3-.1.4.6.3,1-.4-.2-.3-.6-.3-1Z"/>
  <path class="st1" d="M77.5,233.2c1.3-.2.3.7.3,1-.4-.2-.3-.6-.3-1Z"/>
  <path class="st1" d="M132.5,303.4c-.2.4-.6.3-1,.3-.1-1.3.6-.4,1-.3Z"/>
  <path class="st7" d="M170.9,82.6c0-.1-.3-.4-.3-1h.3l.3.8-.3.2Z"/>
  <path class="st1" d="M137.3,301.2c-.1.6,0,.7-.6,1,0-.8-.2-1.1.6-1Z"/>
  <path class="st1" d="M130.3,303.7c-.4,0-.6,0-.6,0l.4-.3.2.3Z"/>
  <path class="st1" d="M150.9,301.8l.2-.3c.6-.1.5,0,.5.6-.3,0-.5-.3-.6-.3Z"/>
  <path class="st1" d="M134.1,303.1s0,.3-.6.3c-.1-.7.1-.9.6-.3Z"/>
  <path class="st1" d="M76.5,304.7l.2-.3c.6-.1.5,0,.5.6-.3,0-.5-.3-.6-.3Z"/>
  <path class="st1" d="M208.5,300.9c0,0,0,.4,0,.6s-.5,0-.6,0c0-.7,0-.7.6-.6Z"/>
  <path class="st1" d="M75,220.2c0-.5,0-.4,0-.6l.3.2-.3.5Z"/>
  <path class="st1" d="M76.9,230c.7-.1.9.1.3.6,0,0-.3,0-.3-.6Z"/>
  <path class="st1" d="M73.4,296.1c.1.6,0,.7-.6.6.6-1,.3-.3.6-.6Z"/>
  <path class="st1" d="M205.3,293.6c1.1.4.5.6.6.6-.7,0-.7,0-.6-.6Z"/>
  <path class="st1" d="M191.6,188.4c-.4.5-.5.5-.6.6-.1-.6,0-.7.6-.6Z"/>
  <path class="st1" d="M143.9,292c.8,0,.9,0,.3.6,0,0-.2-.2-.3-.6Z"/>
  <path class="st1" d="M136,292.3c-.7.1-.9-.1-.3-.6,0,0,.3,0,.3.6Z"/>
  <path class="st1" d="M143.6,290.7c.7-.1.9.1.3.6,0,0-.2-.1-.3-.6Z"/>
  <path class="st1" d="M74.3,217.9c.7,0,.7,0,.6.6-.2-.2-.6.5-.6-.6Z"/>
  <path class="st1" d="M80.7,250.3c.7-.1.9.1.3.6,0,0-.3,0-.3-.6Z"/>
  <path class="st1" d="M204,59.4c.3.3.1-.4.6.6-.6.1-.7,0-.6-.6Z"/>
  <path class="st1" d="M196.4,182.3c-.5.7-.6.6-.6.6-.1-.6,0-.7.6-.6Z"/>
  <path class="st1" d="M198.6,179.2c-.3,1.2-.4.4-.6.6-.1-.6,0-.7.6-.6Z"/>
  <path class="st1" d="M81.6,255.4c.7-.1.9.1.3.6,0,0-.3,0-.3-.6Z"/>
  <path class="st1" d="M200.2,176.6c-.5,1.1-.2.3-.6.6,0-.7,0-.7.6-.6Z"/>
  <path class="st1" d="M79.1,242.1c.7-.1.9.1.3.6,0,0-.3,0-.3-.6Z"/>
  <path class="st1" d="M205,60.6c.3.3.2-.5.6.6-.6.1-.7,0-.6-.6Z"/>
  <path class="st1" d="M205.6,61.6c0,0,.5-.1.6,0s0,.5,0,.6c-.7,0-.7,0-.6-.6Z"/>
  <path class="st1" d="M201.1,175c-.6,1-.5.5-.6.6,0-.6,0-.7.6-.6Z"/>
  <path class="st1" d="M142,283.1c0-.5,0-.4,0-.6l.3.2-.3.5Z"/>
  <path class="st1" d="M75,220.8c.7-.1.9.1.3.6,0,0-.2-.1-.3-.6Z"/>
  <path class="st1" d="M211.3,77.8c-.7.1-.9-.1-.3-.6,0,0,.2.1.3.6Z"/>
  <path class="st1" d="M197,290.4c-.5.6-.8.4-.6-.3.6,0,.6.3.6.3Z"/>
  <path class="st1" d="M211.6,79.1c-.7.1-.9-.1-.3-.6,0,0,.3,0,.3.6Z"/>
  <path class="st1" d="M141.4,279.9c0-.5,0-.6,0-.6l.3.4-.3.2Z"/>
  <path class="st1" d="M73.1,211.3c.7-.1.9.1.3.6,0,0-.3,0-.3-.6Z"/>
  <path class="st1" d="M209.7,149.9c0,.5-.3.6-.3.6-.6-.5-.4-.8.3-.6Z"/>
  <path class="st1" d="M210,148.3c0,.6-.3.6-.3.6-.6-.5-.4-.7.3-.6Z"/>
  <path class="st1" d="M192.9,289.7s-.2.5-.6.3c-.1-.4.3-.6.3-.6l.3.3Z"/>
  <path class="st1" d="M143.3,289.4c.7-.1.9.1.3.6,0,0-.3,0-.3-.6Z"/>
  <path class="st1" d="M85.4,289.1c.1.7-.1.9-.6.3,0,0,.2-.2.6-.3Z"/>
  <path class="st1" d="M87,288.8c.1.7-.1.9-.6.3,0,0,.6-.3.6-.3Z"/>
  <path class="st1" d="M135.3,288.8c-.7.1-.9-.1-.3-.6,0,0,.3,0,.3.6Z"/>
  <path class="st1" d="M142.7,286.6c.7-.1.9.1.3.6,0,0-.3,0-.3-.6Z"/>
  <path class="st1" d="M142,283.7c.7-.1.9.1.3.6,0,0-.3,0-.3-.6Z"/>
  <path class="st1" d="M73.7,303.1c.6-.1.7,0,.6.6-1.1-.6-.4-.4-.6-.6Z"/>
  <path class="st1" d="M75.3,222.4c.7-.1.9.1.3.6,0,0-.2-.1-.3-.6Z"/>
  <path class="st1" d="M212.6,83.5c-.7.1-.9-.1-.3-.6,0,0,.3,0,.3.6Z"/>
  <path class="st1" d="M76.2,226.8c.7-.1.9.1.3.6,0,0-.3,0-.3-.6Z"/>
  <path class="st1" d="M202.7,303.1s0,.3-.6.3c-.1-.7.1-.9.6-.3Z"/>
  <path class="st7" d="M171.9,88.6c.7-.1.9.1.3.6,0,0-.3,0-.3-.6Z"/>
  <path class="st2" d="M25.1,68.6c0-.6.3-.9.3-1l-.3,1Z"/>
  <path class="st7" d="M171.9,86.7s-.3-.1-.3-.3l.3.3Z"/>
  <path class="st7" d="M152.2,86.7c-.1,0-.3-.2-.3-.3.1,0,.3.2.3.3Z"/>
  <path class="st6" d="M96.6,115.6c.4-.2,2.7-1.5,2.9-1.6,7.7-3.2,16.7-1.1,20.9,6.3,8.3,14.4-6.4,35.3-22.8,30.8-16.7-4.6-14.3-27.6-1-35.4ZM107.9,120.5c-12.6,1.8-10.6,27.8,3.4,23.1,11.1-3.7,10.2-25.1-3.4-23.1Z"/>
  <path class="st6" d="M145.8,111.2c16.7-2,29.9,20,19.1,32.8-9.8,11.6-27.1,2.6-31.2-9.8-3.1-9.6.9-21.6,12-23ZM143.2,119.2c-1,.2-2,.8-2.8,1.3-9.2,7-.6,26.4,10.4,22.1,10.1-3.9,4.8-25.6-7.6-23.5Z"/>
  <path class="st3" d="M129.5,150.6c9.8-1.7,14.1,15.9,10.9,23s-8.9,1.4-11.8-1.9-5.2-8.9-4.8-13.4,2.4-7.2,5.6-7.7Z"/>
  <path class="st3" d="M155.7,105.4c-1.7-.3-3.4-.9-5.1-1.4s-1.3,0-1.6-.1c-.7-.2-1.8-1.6-2.6-2l-3.4-1.5c1.6-.3,3.4-.9,4.9-1s4.1,0,5,.4,2.1,4.6,2.8,5.7Z"/>
  <path class="st3" d="M166.8,108l-1,.6s-.5,0-.6-.2c-1.4-2.2-2.7-3.8-4.6-5.5l-3-2.2c3.9.9,6.5,4.6,9.2,7.3Z"/>
  <path class="st3" d="M134.7,101.3c.8,0,4.6-.2,4.8,0s.1,1.4.3,1.9c-1.7-.5-4,0-5.1-1.9Z"/>
  <path class="st7" d="M178.9,111.2l.6,2.9c-.6-.2-1.3-.1-2-.3-2.7-.9-4.4-2.1-6.5-3.8,0-.6.6-.2.9,0,2.1.6,4.8,1.4,7.1,1.4Z"/>
  <path class="st7" d="M78.8,107.7l1.7,2.5.5-1.6c0,1,.2,3.2-.2,3.8s-5,2.5-5.2,2.2c.5-1.3,1.4-2.3,2-3.6s1.1-2.8,1.2-3.4Z"/>
  <path class="st7" d="M75.1,114.6c.2.1.2.2,0,.3v-.3Z"/>
  <path class="st5" d="M107.9,120.5c13.6-2,14.6,19.5,3.4,23.1-14.1,4.6-16.1-21.3-3.4-23.1Z"/>
  <path class="st5" d="M143.2,119.2c12.4-2.1,17.7,19.5,7.6,23.5-11,4.3-19.6-15.1-10.4-22.1.8-.6,1.8-1.2,2.8-1.3Z"/>
</svg>