<?xml version="1.0" encoding="UTF-8"?>
<svg id="Calque_1" xmlns="http://www.w3.org/2000/svg" version="1.1" viewBox="0 0 272.8 358.7">
  <!-- Generator: Adobe Illustrator 29.8.5, SVG Export Plug-In . SVG Version: 2.1.1 Build 2)  -->
  <defs>
    <style>
      .st0 {
        fill: #4e7238;
      }

      .st1 {
        fill: #354727;
      }

      .st2 {
        fill: #52743b;
      }

      .st3 {
        fill: #84ac42;
      }

      .st4 {
        fill: #fafaef;
      }

      .st5 {
        fill: #92ba4d;
      }
    </style>
  </defs>
  <path class="st5" d="M182.7,122.6c0,6.9,3.1,13.5,3.3,20.3l.3,10.6c.4,14.2,2,28.2,1.7,42.1,0-.9-3.1,8.7-.3,9.8-.1,1-.9,1.8-1.8,2.7-3.3,3.3-6.8,10-3,12.4s2.1.5,4,0c0,2.2,1,4.6.9,6.8l-2.7,40.9c-.1,1.6,0,3.2.4,4.7,5.8.3,18.6,7.6,16.5,13.2s-2.3,3-4.4,3.4c-10.3,1.9-45.4-.8-57.2-3.1-1.5-9.6-2-18.6-2.9-28l-1.1-11.4c-2.8-1.1-5.4-1.3-8.5-1.1l.8,23.6,1.9,14.3c.2,1.7-.7,2.4-2.2,2.8-5.8,1.6-11.6,1.6-17.6,2.4-10.5,1.4-33.6,5.4-41.7-1.5s-.6-4.7.8-6.1c3.5-3.4,7.4-5.5,12.1-7.6l-7.9-38.7c1.2-2.1-.8-6-.6-9.2,2.4.4,4.5.6,5.9-1.1s1.2-3.4.2-5.1c-3.5-6.1-10.1-6.5-8.7-9.1s.5-7.6-2.5-9.4c-2.9-15.6-4.1-31.5-5.3-47.7,0-1.1-.4-1.8-.7-2.4l-.7-14.3c3.2-3-1.6-4.9,3.5-10.9,11.9-13.9,28.9-22.4,47.5-23.6s40.8,2.8,59.2,11.5c4.5,2.1,8.1,5.2,10.6,8.9ZM164.2,125.7c2.3-5.7-4.2-11.4-10.3-12.9-12.8-3-23.6,6.5-19.6,10.8s5.6-3.1,11.8-4.9c11.8-3.3,12.1,10.5,18,6.9ZM102.1,120.3c5.6,1.5,10.1,6.8,12.2,3.6,3.4-5.1-9.4-10-15.8-10.6-7.8-.8-14.6,4.2-15.3,12-.1,1.7,1.2,3,2.5,3.2s2.3-.7,3-2.1c2.5-5.2,7.6-7.7,13.4-6.1ZM159.9,133c-5,.1-10,1.4-15.2,2.3-13,2.4-38.5,1.7-52.5.4-2.3-.2-4.7-.7-7.2.1s-4.3,3.5-4.7,6.3c-.4,8.3,3.5,16.5,11.3,19.9,9,6.5,34.5,5.3,46,4.6,8.1-.5,15.8-1.4,23.6-3.9s2.3-1.2,3.6-2,2.9-1.3,4.1-2.7c6.3-7.4,6.3-21.6-.3-25-2.6-1.3-5.8-.8-8.6-.1Z"/>
  <path class="st1" d="M115.2,83.4c8.3-.6,16.6.6,24.9.7-.9,3.5-1.3,7.5.6,11s3.2,1.8,4.7,1.9c5.1.3,9.9.6,14.9,1.1,1,0,2-.2,2.6-.6,2.3-1.8-.9-7.5-1.2-7.8,8.7,2.5,21.4,9.7,25.6,18.5s1.2,8.4.1,11.8-3.5,2.4-4.9,2.6c-2.6-3.6-6.1-6.7-10.6-8.9-18.3-8.7-38.8-12.8-59.2-11.5s-35.6,9.7-47.5,23.6-.3,7.8-3.5,10.9c-8.4.7-9.8-17.7-5.2-25.2,5.4-8.8,14.1-14.9,23.1-18.9,1.5-.3,0,4,2.1,6.4s13-.2,20.1-.4c6.4-.2,1-12,.2-13.4,4.3-.8,8.7-1.6,13.1-1.9Z"/>
  <path class="st3" d="M210.3,205.5c-1.4-1.7-3.3-3.4-5-5.2-4.5-4.7-11.4-6.6-17.3-4.7.3-13.9-1.3-27.9-1.7-42.1l-.3-10.6c1.4.2,2.4,1.5,3.4,2.7,7,8.6,11.3,18.4,15.3,28.6,4,10.2,6.7,20.6,5.7,31.3Z"/>
  <path class="st3" d="M68.6,201.1c-8.5.8-16,5.4-19.7,13.2-2.6-12.9-1.5-26.2,3.4-38.9l6-15.7c1.2-3.1,2.3-6.2,4.3-8.6.3.6.7,1.3.7,2.4,1.2,16.2,2.5,32.1,5.3,47.7Z"/>
  <path class="st5" d="M156.7,84c-5.4-2.4-11.5-3-16.6,0-8.3-.2-16.6-1.3-24.9-.7,1.8-7.9,6.5-15.2,13.5-19.7s13.3-6.1,16.4-2,1.1,3.8.3,5.6l-4.4,10c4.1-1.7,7.6-3.5,12-3.6,2.9,0,6.6,1,7.3,4.1.7,3-2,4.6-3.5,6.3Z"/>
  <path class="st3" d="M207.5,218.8c-.7,2.1-1.7,4-3.2,5.9-4.2,5.2-11.3,6.2-16.5,2.5.1-2.2-1-4.6-.9-6.8-1.9.5-3,.7-4,0-3.8-2.4-.3-9,3-12.4s1.6-1.6,1.8-2.7c7.3-.7,14.8,3.9,17.8,10.8s.9,2.3,2.1,2.6Z"/>
  <path class="st3" d="M71.1,210.5c-1.5,2.7,5.2,3,8.7,9.1,1,1.8.9,3.8-.2,5.1s-3.5,1.5-5.9,1.1c-.2,3.2,1.8,7.2.6,9.2-7.2.3-14.1-3.1-18.8-8.5.8-8.1,7.4-15.2,15.6-16Z"/>
  <path class="st0" d="M102.2,85.3c.8,1.3,6.2,13.1-.2,13.4-7.1.2-17.7,3-20.1.4s-.7-6.7-2.1-6.4c1.9-.8,3.9-6.7,13.1-9.4,2.6-.8,7.6-.8,9.3,2.1Z"/>
  <path class="st0" d="M156.7,84l5.1,5.7c.3.3,3.4,6,1.2,7.8s-1.6.7-2.6.6c-5.1-.5-9.8-.9-14.9-1.1-1.5,0-4-.5-4.7-1.9-2-3.5-1.6-7.5-.6-11,5.1-3.1,11.2-2.5,16.6,0Z"/>
  <path class="st1" d="M210.3,205.5c2.5,3.2,1.2,12.7-2.8,13.3-1.1-.3-1.5-1.3-2.1-2.6-3-6.9-10.5-11.6-17.8-10.8-2.8-1.2.3-10.8.3-9.8,5.9-1.9,12.8,0,17.3,4.7s3.6,3.5,5,5.2Z"/>
  <path class="st1" d="M68.6,201.1c2.9,1.9,4.1,6.4,2.5,9.4-8.2.9-14.8,7.9-15.6,16-4.1,1.6-8.6-8.2-6.6-12.3,3.8-7.7,11.2-12.4,19.7-13.2Z"/>
  <path class="st4" d="M164.7,160.8c-1.3.8-2.2,1.5-3.6,2-7.8,2.4-15.5,3.3-23.6,3.9-11.5.7-37,1.9-46-4.6,0-2.9-.3-6,1-8.9,1.2-2.6,4.4-2.8,7.1-2.3,11.1,2.2,21.7,2.6,32.9,1.8,8.2-.6,16-.6,24.1-1.8,2.5-.4,5.6.7,6.7,2.7s1.2,4.9,1.4,7.3Z"/>
  <path class="st4" d="M159.9,133c.7,2.1,1.5,4.3,1.8,6.8s-1.3,5.4-4.2,6.5c-14.5,5.1-44.7,4.4-60.4,1.8-3.5-.6-6.4-2.8-6.6-6.4s1-4.1,1.7-6c14,1.3,39.5,2,52.5-.4,5.2-.9,10.2-2.2,15.2-2.3Z"/>
  <path class="st2" d="M164.7,160.8c-.2-2.3,0-4.9-1.4-7.3s-4.2-3.1-6.7-2.7c-8.1,1.2-15.9,1.2-24.1,1.8-11.2.8-21.8.4-32.9-1.8-2.6-.5-5.8-.3-7.1,2.3-1.4,2.9-1,6-1,8.9-7.8-3.5-11.7-11.6-11.3-19.9.4-2.8,2-5.4,4.7-6.3s4.9-.4,7.2-.1c-.6,1.8-1.8,3.7-1.7,6,.2,3.6,3.2,5.8,6.6,6.4,15.6,2.6,45.9,3.3,60.4-1.8s4.6-3.4,4.2-6.5-1.1-4.7-1.8-6.8c2.8-.7,6-1.2,8.6.1,6.6,3.4,6.5,17.7.3,25-1.2,1.4-2.7,1.9-4.1,2.7Z"/>
  <path class="st0" d="M102.1,120.3c-5.8-1.6-10.9,1-13.4,6.1s-1.6,2.2-3,2.1-2.6-1.5-2.5-3.2c.6-7.8,7.5-12.8,15.3-12,6.4.7,19.2,5.5,15.8,10.6-2.1,3.2-6.6-2.1-12.2-3.6Z"/>
  <path class="st0" d="M164.2,125.7c-5.9,3.6-6.2-10.2-18-6.9s-9.5,7.4-11.8,4.9c-4-4.4,6.7-13.8,19.6-10.8,6,1.4,12.5,7.1,10.3,12.9Z"/>
</svg>