<?xml version="1.0" encoding="UTF-8"?>
<svg id="Calque_1" xmlns="http://www.w3.org/2000/svg" version="1.1" viewBox="0 0 272.8 362">
  <!-- Generator: Adobe Illustrator 29.8.5, SVG Export Plug-In . SVG Version: 2.1.1 Build 2)  -->
  <defs>
    <style>
      .st0 {
        fill: #84ab42;
      }

      .st1 {
        fill: #4d7138;
      }

      .st2 {
        fill: #344627;
      }

      .st3 {
        fill: #f9f8f7;
      }

      .st4 {
        fill: #4b6d37;
      }

      .st5 {
        fill: #fbfaef;
      }

      .st6 {
        fill: #92b94d;
      }
    </style>
  </defs>
  <path class="st2" d="M203.4,170.8c-3.1,3.4-10,6.8-14.3,8.5.3,5.5.4,11,.4,16.5s0,10.6-.7,14.3-4.1,5.1-5.1,7-1.9,4.4-.5,6.4,4.9-.1,6,.6c.5,2.9,1,5.9,1.3,8.9s.2,3,.3,4.4c-1,0-2,.3-2.8.6-22.9,8.5-52.2,8-76.4,7.3-12.3-.3-26.7-.3-38.6-3.2s-1.9.1-2.2-2.2c.5-1.7,0-9.3.5-10.2s2.7.3,3.5.3c2.4,0,4.5-1.4,3.8-4-1.1-4.3-6.8-7.6-10.4-9.7l-4.7-25.9c-5-2.7-9.8-5.9-13.7-9.9s-.7-.2-.8-.3c-.3-.3-1.2-1.9-1.6-2.4,2.1-7,5.7-14.1,9.6-20.3s3-3.6,3.1-4.4c2.4,0,3.6,3.4,5,5.1,1.9,2.5,3.9,5,6,7.3,34.4,38,88.5,31.6,112.8-13.3,1.2-2.3,2.1-5,3.6-7,4.5,1.3,11.3,11.2,13.8,15.3s3.8,6.5,3.9,7.8-1,2-1.5,2.6ZM126.8,207.4c.1-2,2-10.4-.8-10.8s-7.1,8.6-7.9,11.5-1.3,4.9-1.2,6.1,2.2,2.3,3,.7,1.2-5.9,1.8-8,1.5-5,3-6.8c1,2.6-3.1,14-.8,15.4s2.4-1,3-1.8c1.8-2.4,5.1-11.6,7-12.4s.4.4.4.7c-.4,3.4-6.8,13.4-4.7,16s.7.5,1.1.5c2.6-.2,5.9-6.1,7.7-8s.8-1,1.4-.9c-.4,3.7-6.6,9.8-5.6,13.4s1.9.7,2.8.3c2.1-1,3.3-3.6,5.6-4.3-2.6,8.8-11.9,19.6-22,15.7-3.1-1.2-5-3.8-5-7.2,3.3,2.6,7.2,3.3,11,1.3s3.7-4.1.6-6.7c-3.5-3-10.2-4.7-13.3-.3s-1,2.2-1.2,2.4c-.6.5-8.4,2.1-5.8,4.2s4-1.9,5.6-1.6c-.8,9.8,8.9,13.6,17.2,11.6s12.5-9.3,14.5-15c.5-1.4,2.1-7.4.2-8s-3.6,1.4-5.2,2.3c1.2-2.4,5.2-8.7,2.7-11s-3.6.3-4.9,1.4-1.8,2.7-2.5,2.1,1.7-3.8,1.9-4.6c.6-2,2-6.2-.6-7.3s-5.3,2.8-6.6,4.8l-2.3,4.2Z"/>
  <path class="st6" d="M103.6,93.6c1.1,0,2.2,0,3.3,0s.8-.3.9-.3h5.2c-.5-10.8,4.7-22.3,13.6-28.5,4-2.8,10.9-6,15.7-4.3,7.6,2.6-.6,13.2-2.2,17.6,5.1-1.8,11.3-5.5,16.8-3,3.1,1.4,4.4,4.1,2.4,7.1s-2.6,1.8-3,3.2c-.4-.3-.8-.7-1.2-.9-4-2-13.4-2.8-16.1,1.6s-1.4,9.8.1,11.8,9.7,1.6,12.5,1.8,8,1.7,10.4.6,2.1-1.8,2.1-2.2c1.4.3,3,1.2,4.2,2,13.9,8.3,13,18,15.6,32.4.7,4.2,1.8,8.4,2.5,12.6.2,0,.5,0,.6,0-1.5,2-2.4,4.7-3.6,7-24.4,44.9-78.4,51.3-112.8,13.3s-4.1-4.9-6-7.3-2.6-5-5-5.1c.1-.8,0-2.4,0-3.3-.7-21.1-4.5-38.2,16-50.4.4-.3,2-.9,2.1-.9.3-.5-.3-1.7.4-2.2-.2,2.1,0,4.3,1.9,5.5s7.9-.3,11-.5,10.9,1.1,12.5-2.1.3-4.1,0-5.5ZM146.8,113.7c-4.1.4-10.5,3-12.9,6.5s-1.8,5.6,1.1,5.9,5.7-3.3,8-4.4c4.1-1.9,8.6-2.3,12.5.5s5.8,8.8,8.8,5.5-1.6-8.3-3.8-10.2c-3.3-2.7-9.4-4.1-13.6-3.7ZM112.7,126.2c2.5-2.3-.7-5.5-2.7-6.8-8.8-6-24-7.5-28.3,4.6s-1.2,6,1.7,6.4,3-2,4.3-3.9c3.3-4.9,8.4-5.9,13.9-4.2,2.4.7,7.9,4.7,9.6,4.5s1.2-.5,1.4-.7ZM164.6,163.5c5-1.3,8.4-8.1,8.9-12.9,1-9.7-1-17.8-12.5-16s-1.2-.3-1.1.6c-.3-.3-1.3-.3-1.7-.3-6.5.4-13.7,2.8-20.4,3.5-15.6,1.5-31.9.4-47.5-.6-4.3-.3-9.1-1.1-11.4,3.7s-.1,12.1,2.3,15.9c2.4,3.7,4.8,5.3,8.4,7.3,12.6,6.9,31.2,5.7,45.3,4.8,8.6-.5,18.7-.9,26.7-4.1s2.8-1.1,3-1.9Z"/>
  <path class="st6" d="M187.8,237.9l-1.9,40.2c.2.6,3.5,1,4.4,1.3,3.2,1,7.5,3.3,9.8,5.7,6.3,6.6,2.3,10.4-5.5,11s-14.7-.3-21.9-.7c-10-.5-20.3-.8-30.2-2.6-1.6-.3-2.6-.3-3-2.1s-.7-5.5-1-7.9c-1.2-10.3-1.4-20.7-2.9-31-.3-.8-8.5-1.6-8.6-1-.3,1.4.3,2.8.3,4.1.2,6.4-.1,13,.3,19.4s2.2,11,2.2,15.6-2.6,2.7-4.8,3.2c-5.2,1.1-10.4,1.1-15.7,1.8-11.1,1.4-30.4,5.2-40.6.1s2.8-11.5,7-13.7,4-1.4,4.1-1.9l-7.3-37.3c11.9,2.8,26.4,2.8,38.6,3.2,24.3.7,53.5,1.2,76.4-7.3Z"/>
  <path class="st0" d="M190.4,232.8c-.3-2.9-.8-5.9-1.3-8.9-1.1-.7-4.1,2.1-6-.6s-.5-4.4.5-6.4,4.9-5.6,5.1-7c.7-3.7.6-10.3.7-14.3s0-11-.4-16.5c4.3-1.6,11.3-5,14.3-8.5-.1.6.2,1.1.4,1.7,4.7,13.5,8.7,21.8,7.9,36.9s-6.1,28.7-21.3,23.3Z"/>
  <path class="st0" d="M48.6,180c0,0,.6,0,.8.3,4,4,8.8,7.2,13.7,9.9l4.7,25.9c3.6,2.1,9.3,5.4,10.4,9.7s-1.3,4-3.8,4-3.1-.9-3.5-.3c-.5.9,0,8.4-.5,10.2-8,0-17.2-5.9-21.1-12.7-5.7-10-5.5-24-3.9-35.1s2.1-8,3.1-12Z"/>
  <path class="st1" d="M103.6,93.6c.2,1.4.5,4.3,0,5.5-1.5,3.3-9.3,1.9-12.5,2.1s-8.5,2.1-11,.5-2.1-3.4-1.9-5.5c.7-7.1,12.4-14.4,19-12.1,4,1.4,5.8,5.7,6.4,9.6Z"/>
  <path class="st1" d="M156.4,85.3c3.2,2.1,9,8.6,7.9,12.7s-1.7,1.9-2.1,2.2c-2.4,1.2-7.6-.4-10.4-.6s-10.7.6-12.5-1.8-1.4-9.6-.1-11.8c2.6-4.4,12-3.7,16.1-1.6s.8.6,1.2.9Z"/>
  <path class="st3" d="M126.8,207.4l2.3-4.2c1.3-2,3.8-6,6.6-4.8s1.3,5.3.6,7.3-2.1,4.4-1.9,4.6c.7.7,2-1.6,2.5-2.1,1.3-1.1,3.3-2.9,4.9-1.4,2.5,2.2-1.6,8.6-2.7,11,1.5-.9,3.1-2.9,5.2-2.3s.4,6.5-.2,8c-2,5.7-8.5,13.5-14.5,15s-18-1.8-17.2-11.6c-1.6-.3-4.5,2.5-5.6,1.6-2.6-2.1,5.2-3.8,5.8-4.2s.8-1.9,1.2-2.4c3.1-4.3,9.8-2.7,13.3.3,3.1,2.7,3.2,4.8-.6,6.7s-7.7,1.3-11-1.3c0,3.4,1.9,6,5,7.2,10.1,4,19.4-6.9,22-15.7-2.3.7-3.5,3.2-5.6,4.3s-2.5,1.1-2.8-.3c-1-3.6,5.2-9.7,5.6-13.4-.6,0-1.1.5-1.4.9-1.7,1.9-5.1,7.8-7.7,8s-.8,0-1.1-.5c-2-2.6,4.3-12.6,4.7-16s.3-1-.4-.7c-1.9.8-5.2,10-7,12.4s-1.9,2.4-3,1.8c-2.3-1.4,1.8-12.8.8-15.4-1.5,1.8-2.4,4.6-3,6.8s-1.1,6.5-1.8,8-2.8,1-3-.7.8-4.7,1.2-6.1c.8-2.9,4-12.1,7.9-11.5s.9,8.8.8,10.8ZM125.8,223.6c-2.4-1.1-5.3-2.6-7.9-1.4s-2.2,1.3-.5,1.4c2.4.2,4.8,0,7.3.3s1.2.2,1.1-.3ZM123.5,225.5c-2-.2-4.2.2-6.2,0-.2.7.1.5.4.7,1.1.8,3.2,1.4,4.5,1.4s3.7-.7,4-.9c.5-.5,0-.5-.4-.7s-1.9-.6-2.3-.6Z"/>
  <path class="st5" d="M164.6,163.5c-.2.8-2.2,1.6-3,1.9-8,3.2-18.2,3.6-26.7,4.1-14.1.9-32.7,2.1-45.3-4.8,0-4.2-.3-11.6,5.6-11.8s7.3,1.2,10.2,1.6c13.2,1.5,27.4,1.1,40.6,0,4.4-.3,14.1-3.1,17.1,1s1.9,6.3,1.5,7.9Z"/>
  <path class="st5" d="M159.9,135.2c.2.3,1.4,4.1,1.5,4.7,1.2,5.8-.8,7.9-6.2,9.5-14.1,4.3-41.8,3.9-56.4,1.6s-6.5-.8-8.6-3.4-1.2-6.4.2-9.9c15.6,1,31.9,2.2,47.5.6s13.9-3.1,20.4-3.5,1.4,0,1.7.3Z"/>
  <path class="st1" d="M164.6,163.5c.4-1.6-.5-6.5-1.5-7.9-3-4.1-12.7-1.4-17.1-1-13.2,1-27.5,1.5-40.6,0-2.9-.3-7.6-1.6-10.2-1.6-5.9.2-5.5,7.6-5.6,11.8-3.6-2-6-3.6-8.4-7.3-2.5-3.9-4.3-11.7-2.3-15.9s7-4,11.4-3.7c-1.3,3.5-2.8,6.6-.2,9.9s5.4,3,8.6,3.4c14.7,2.3,42.3,2.6,56.4-1.6,5.4-1.6,7.4-3.7,6.2-9.5s-1.3-4.4-1.5-4.7c-.1-1,.6-.6,1.1-.6,11.5-1.8,13.5,6.3,12.5,16s-3.9,11.6-8.9,12.9Z"/>
  <path class="st1" d="M112.7,126.2c-.2.2-1.1.6-1.4.7-1.8.2-7.3-3.8-9.6-4.5-5.5-1.7-10.6-.7-13.9,4.2s-1.4,4.3-4.3,3.9-2.4-4.4-1.7-6.4c4.3-12.1,19.5-10.6,28.3-4.6s5.2,4.5,2.7,6.8Z"/>
  <path class="st1" d="M146.8,113.7c4.1-.4,10.3,1.1,13.6,3.7s6.2,7.4,3.8,10.2-6.9-4.2-8.8-5.5c-3.9-2.7-8.4-2.4-12.5-.5-2.3,1.1-5.8,4.6-8,4.4s-2.3-4-1.1-5.9c2.4-3.5,8.8-6.1,12.9-6.5Z"/>
  <path class="st2" d="M123.5,225.5c.3,0,1.9.5,2.3.6s.9.2.4.7-3.4.9-4,.9c-1.3,0-3.5-.6-4.5-1.4s-.6,0-.4-.7c2,.2,4.2-.2,6.2,0Z"/>
  <path class="st4" d="M125.8,223.6c0,.5-.8.3-1.1.3-2.5-.2-4.9-.1-7.3-.3s-.4-1.1.5-1.4c2.7-1.2,5.5.3,7.9,1.4Z"/>
</svg>