<?xml version="1.0" encoding="UTF-8"?>
<svg id="Calque_1" xmlns="http://www.w3.org/2000/svg" version="1.1" viewBox="0 0 272.8 362">
  <!-- Generator: Adobe Illustrator 29.8.5, SVG Export Plug-In . SVG Version: 2.1.1 Build 2)  -->
  <defs>
    <style>
      .st0 {
        fill: #a2c280;
      }

      .st1 {
        fill: #84ab42;
      }

      .st2 {
        fill: #4d7138;
      }

      .st3 {
        fill: #fff;
      }

      .st4 {
        fill: #ada28e;
      }

      .st5 {
        fill: #bbae91;
      }

      .st6 {
        fill: #fbfaef;
      }

      .st7 {
        fill: #92b94d;
      }
    </style>
  </defs>
  <path class="st7" d="M114.2,76c1.4-10.6,10.4-23.1,21.8-23.8s10,2.6,6.8,8.7-9.3,12.4-8.2,13.6c.6.1.8-.3,1.1-.6,3-2.5,5-5,8.8-6.7s16.5-4.8,12.7,4.4c-.6,1.4-1.7,2.2-2.3,3.6-3.1-.3-3.8.3-5.2,2.9-2.3,4.2-3.4,9.1,2.9,9.8s6.4.1,9.9.9,8.5,3.8,11.3,3.5,2.1-.8,2.1-.9c4,4.6,7.8,9.8,10.1,15.5,4.1,9.9,6.1,21,6.7,31.7,0,.9.8.3,1.3.5,0,0,0,.6,0,.6-.2.2-1.7-.4-2.3-.3-7.5.5-18.8,10.5-17.6,18.5s4.4,7.1,8.1,5.4,2.1-1.8,2.7-1.6,2.3,2.4,3.1,3,3.6,1.5,3.8,2c.4,1.8-.3,3.6-.3,5.4-.2,8.6,0,17.6,0,26.2,0,24-4.8,47.8-6,71.7,0,.9-.2,4,.3,4.5s2.3.7,3.1,1.1c3.3,1.5,10,5,8.1,9.5s-6.9,2.8-9.1,3c-4.9.3-9.8-.3-14.6-.3-8.5,0-17.7.5-26.1,0-2-.1-6.7-.3-7.1-2.7s-.3-3.7-.4-5.1c-.4-8.4.2-16.8-.3-25.1-.2-3.2-.8-6.4-.6-9.7-3.9-.3-2.6.5-2.5,3,.3,8.7-1.5,16.4-1.9,24.8s.4,8.7,0,12.7-1.3,4.2-4.8,5.1c-6.6,1.8-13.5,1.5-20.2,1.7s-28.4,2.1-34.5-3.3.2-7.7,3.5-8.7c5.1,1.1,18.7,1.1,23.5-.6s7-4.8,8.4-6,1.4-1.1,1.4-1.7l-8.2-44.4c6-1.7,11.3-5.3,12-12s-2.9-19-13.6-17.6c.5-4.7-.9-7.1-5.9-6.3s-5.2,3.5-6.5,6c-.6-.4-1.1-.6-1.9-.6-1.2-5.1-3.5-11.1-3.2-16.4s1-5.6,1-8.3c-.1-8.4-4.7-13.9-13.5-12.9s-2.5,1.1-4,1.3c0-.3,0-.6,0-1l.3-.2-.3-.2c-.4-6.4-2.4-13.3-3.1-19.9-1.1-9.7-2.8-23.5,1.5-32.4s16.7-15.4,28-18.5c-1.9,3.8-1.9,11.1,4,8.6s6.3-3.9,10.3-5,7-.3,10.3-1.1c6.6-1.6,3.9-13.8-.9-14.6s-2.7-.3-3.6-.3ZM168.5,101.1c-17.9-11.1-30.1,8.1-18.3,22.6s33.3,7.1,26.8-12.5l-1.2-1.8c-1.2-4-4-6.2-7.3-8.3ZM135.1,108.4c-1-3.5-4.8-7.4-8.6-7.6.2-.8-.8-.9-1.3-1-16.9-4.9-29.9,14.5-20.2,28.8,9.3,13.8,30.5,7.1,32.3-8.9s0-8.3-2.1-11.2ZM162.7,148.9c-7.7.6-6.8,13.4.9,13,7.8-.4,7.2-13.6-.9-13Z"/>
  <path class="st5" d="M87.5,196.8c.8,0,1.3.2,1.9.6-.2.4-.6,1.5-.7,1.6-.2.2-1.2-.3-1.7-.3-10.5.8-13.6,19.4-14.5,27.6s-.3.4-.3.8c-.1,1.6.1,3.3,0,4.9l-.6-.5c0,.5,0,1.1.3,1.5.5.7,11.1,3.2,12.6,3.3s9.2.2,9.6-.3c0-.9-.3-1.9-.3-2.8,0-1.4,0-2.8,0-4.1,1.7-.3,4-.6,5.7-1,2.1,16.9,3.1,34.1,2.2,51.2-4.9,1.7-18.4,1.7-23.5.6s-16.8-5-20.2-8.3-2.4-4.2-1.6-8c1.3-5.9,3.2-11.6,4.5-17.5s2.8-17.8,5.2-25.7c2.8-9,9.9-24.5,21.3-23.8ZM78.9,246.7c.5-2.1,3.5-10.4-1.4-7.3s-5.9,8.6-6.4,10.7,0,3.1,1.4,2.2,3.5-10.5,5.9-11.4c.4.2,0,.9,0,1.2-.9,3.5-3.2,7.1-2.9,10.9.4,0,.9,0,1.3-.1,2.9-1,5.3-9,8.6-10.3.7,1-4,7.5-4.6,8.9s-2,4.6-.6,5.1c2.1.7,6.4-5,8-6.2s.7-.6,1.3-.5c-.9,3.1-7.2,8.2-6.7,11.3s7.3-2.7,7.9-2c-2,6.6-10.9,15.2-18.3,11.8-3.6-1.6-5.2-5.4-4.9-9.3l2.6,2.4c2.4,2.1,9.2,1.4,8.1-2.7-.9-3.2-5.5-7.1-8.9-5.7s-1.9,2.2-2.7,2.7c-1.4.9-5.2,0-4.4,2.7l3.8-.6c-2.7,7.8,3.7,15.6,11.9,14.9,6.2-.6,12.5-7.5,14.7-13s1.7-4.2.6-5.7c-1.6-2.3-5.5,1.6-5.9,1.3,1-1.9,6.7-8.4,3.7-10.2s-5.2,1.9-6.9,3.2c1-2.8,3.7-5.6,3.5-8.7s-3.5-1.7-4.9-.1l-3.7,4.7Z"/>
  <path class="st1" d="M191.4,198.1c0-8.6-.2-17.6,0-26.2s.7-3.5.3-5.4c-.2-.4-3-1.5-3.8-2s-2.5-2.8-3.1-3-1.9,1.2-2.7,1.6c-3.7,1.7-7.5-1.7-8.1-5.4-1.2-8,10.1-18,17.6-18.5s2.1.5,2.3.3,0-.6,0-.6c1.4-1.1,9.7,2,11.4,3,13.9,8,14.3,26.4,6.8,39.1-3.7,6.3-12.5,13.4-19.1,16.5-.6.3-.9.6-1.6.4Z"/>
  <path class="st1" d="M87.5,196.8c-11.4-.7-18.5,14.9-21.3,23.8-11.1-13.7-10.5-31.6-5.2-47.7.4-1.3.9-2.6,1.4-3.8l.3-.3c1.3-2.9,1.8-3.9,3.8-6.4.9,0,1.1-.5,1.3-1.3s0-.4,0-.6c1.5-.1,2.4-1.1,4-1.3,8.8-1,13.4,4.4,13.5,12.9s-.8,5.6-1,8.3c-.3,5.3,1.9,11.3,3.2,16.4Z"/>
  <path class="st2" d="M114.2,76c.9,0,2.7.2,3.6.3,4.8.8,7.5,12.9.9,14.6s-6.7.1-10.3,1.1-6.8,3.5-10.3,5c-5.9,2.4-5.9-4.8-4-8.6,3.8-7.6,11.5-12.6,20-12.4Z"/>
  <path class="st2" d="M154.8,75.1c4.3.4,11.5,3.8,14.9,6.5s8.3,7.5,6.1,9.7-1.9.9-2.1.9c-2.7.3-8.1-2.8-11.3-3.5s-6.5-.5-9.9-.9c-6.2-.7-5.2-5.5-2.9-9.8s2.1-3.2,5.2-2.9Z"/>
  <path class="st0" d="M67.8,161.2c-.2.8-.4,1.2-1.3,1.3.3-.4.2-1.3,1.3-1.3Z"/>
  <path class="st0" d="M67.8,159.6c0-.1,0-.2,0-.3l.3.2-.3.2Z"/>
  <path class="st0" d="M62.4,169.1c0-.1.3-.2.3-.3l-.3.3Z"/>
  <path class="st1" d="M89.4,197.4c1.3-2.5,3.5-5.6,6.5-6,5-.8,6.4,1.7,5.9,6.3,10.7-1.4,14.6,8.5,13.6,17.6s-6,10.3-12,12-3,.8-3.8,1c-1.7.4-4.1.7-5.7,1s-2.8.6-3.3.6h-7c-.9,0-6.7-1.5-7.8-1.9s-1.5-.6-1.6-.6-.3-1.3-1.6-1c.9-8.2,4-26.8,14.5-27.6s1.4.4,1.7.3.5-1.2.7-1.6Z"/>
  <path class="st6" d="M135.1,108.4c2.2,2.9,2.5,7.7,2.1,11.2-1.8,16-22.9,22.7-32.3,8.9-9.7-14.3,3.3-33.7,20.2-28.8s1.5.2,1.3,1c-11.4-.6-11.4,17.1-2.2,20.8,8.5,3.5,12.8-6.1,10.8-13.2Z"/>
  <path class="st6" d="M168.5,101.1h-1.3c-.5-.5-2-.5-2.5,0-5.6.7-4,9.6-1.9,13.1,3.2,5.1,12.4,8.5,13.6.7s-.2-4.4-.6-5.5l1.2,1.8c6.5,19.6-14.5,27.5-26.8,12.5s.4-33.7,18.3-22.6Z"/>
  <path class="st4" d="M103.4,227.3l8.2,44.4c0,.6-1,1.3-1.4,1.7-1.4,1.2-7,5.6-8.4,6,.9-17.1-.2-34.2-2.2-51.2.8-.2,2.9-.7,3.8-1Z"/>
  <path class="st2" d="M126.6,100.8c3.8.2,7.6,4.1,8.6,7.6,2,7.1-2.3,16.7-10.8,13.2-9.1-3.7-9.2-21.4,2.2-20.8Z"/>
  <path class="st2" d="M164.7,101.1c.7,0,1.7,0,2.5,0h1.3c3.3,2.1,6.1,4.3,7.3,8.3s.8,4.3.6,5.5c-1.2,7.8-10.4,4.4-13.6-.7s-3.8-12.4,1.9-13.1Z"/>
  <path class="st2" d="M162.7,148.9c8-.6,8.6,12.6.9,13-7.6.4-8.5-12.4-.9-13Z"/>
  <path class="st3" d="M78.9,246.7l3.7-4.7c1.4-1.6,4.7-2.8,4.9.1s-2.5,6-3.5,8.7c1.6-1.3,4.7-4.5,6.9-3.2s-2.6,8.3-3.7,10.2c.4.4,4.2-3.6,5.9-1.3s0,4.1-.6,5.7c-2.1,5.5-8.5,12.4-14.7,13-8.1.7-14.6-7.1-11.9-14.9l-3.8.6c-.7-2.8,3-1.8,4.4-2.7s1.3-2.2,2.7-2.7c3.4-1.4,8.1,2.5,8.9,5.7,1.1,4.1-5.7,4.8-8.1,2.7l-2.6-2.4c-.4,3.8,1.3,7.6,4.9,9.3,7.4,3.3,16.3-5.2,18.3-11.8-.7-.7-7.3,5.8-7.9,2s5.8-8.2,6.7-11.3c-.6-.1-.9.1-1.3.5-1.6,1.2-5.9,6.9-8,6.2s.1-4.2.6-5.1c.6-1.4,5.3-7.9,4.6-8.9-3.2,1.3-5.7,9.3-8.6,10.3s-.8.2-1.3.1c-.3-3.8,2-7.3,2.9-10.9s.5-1,0-1.2c-2.5.9-5.2,10.9-5.9,11.4-1.5.9-1.7-1-1.4-2.2.5-2.2,4.6-9.6,6.4-10.7,4.9-3.1,1.9,5.2,1.4,7.3ZM69,258.4c2.2.2,4.2,1.2,6.4,1.8-1.4-1.7-4.4-4.1-6.4-1.8ZM75.7,262.9c-.6-1.1-6.1-2.9-6.7-2.5,1.1,2.6,4.1,3.4,6.7,2.5Z"/>
  <path class="st4" d="M72.5,226.3c1.3-.3,1.5.9,1.6,1,.1.6-.2,1.8,0,2.2s1.2.2,1.5.4c5.8,2,11.9,3.2,18.1,3.5,0,.9.3,1.9.3,2.8-.4.5-8.4.4-9.6.3s-12.2-2.6-12.6-3.3-.3-1.1-.3-1.5l.6.5c.1-1.6-.2-3.4,0-4.9s.3-.7.3-.8Z"/>
  <path class="st7" d="M93.8,229.2c0,1.4,0,2.8,0,4.1-6.2-.3-12.3-1.5-18.1-3.5v-1.9c1.1.4,6.9,1.9,7.8,1.9h7c.6,0,2.5-.5,3.3-.6Z"/>
  <path class="st7" d="M167.2,101.1c-.8,0-1.8,0-2.5,0,.5-.5,2.1-.5,2.5,0Z"/>
  <path class="st5" d="M75.7,262.9c-2.6.9-5.5,0-6.7-2.5.6-.4,6.1,1.4,6.7,2.5Z"/>
  <path class="st5" d="M69,258.4c1.9-2.4,4.9,0,6.4,1.8-2.1-.6-4.1-1.6-6.4-1.8Z"/>
</svg>