<?xml version="1.0" encoding="UTF-8"?>
<svg id="Calque_1" xmlns="http://www.w3.org/2000/svg" version="1.1" viewBox="0 0 272.8 358.7">
  <!-- Generator: Adobe Illustrator 29.8.5, SVG Export Plug-In . SVG Version: 2.1.1 Build 2)  -->
  <defs>
    <style>
      .st0 {
        fill: #4e7238;
      }

      .st1 {
        fill: #354727;
      }

      .st2 {
        fill: #b9d193;
      }

      .st3 {
        fill: #52743b;
      }

      .st4 {
        fill: #aea38f;
      }

      .st5 {
        fill: #84ac42;
      }

      .st6 {
        fill: #8f8573;
      }

      .st7 {
        fill: #fafaef;
      }

      .st8 {
        fill: #f9f7f6;
      }

      .st9 {
        fill: #c8bca0;
      }

      .st10 {
        fill: #92ba4d;
      }
    </style>
  </defs>
  <path class="st10" d="M124.4,139.4c-.8,8.3,1.3,16.7,7.6,22.7s9.7,6.1,16,5.1,9.4-3.8,12.4-8.5c5.2-8.3,4.9-18.3.6-26.8.5-.4,1.2-1.1,1.9-1.2,3.2-.4,22.8,7.4,27.7,8.1.7,10,1,19.9,0,29.9-5.6-1.1-8.3-4.7-14,.8-4.1,4.1-5.9,9.2-4.2,14.9,4.3,14.6,6.4,29.8.1,44.2-17.7.4-32.2-5.9-47.6-14.1-13.7-7.4-25.4-16.5-36.3-27.6s-13.1-14.2-17.8-22.6c0-11,.2-22.2,2.6-32.9.6-2.9,2.7-5.5,3.6-8.3,22.5-1.6,32.8,11.4,47.3,16.4ZM106.9,135.7c-3.2-6-4.8-8-12.3-7.2-2.7.3-5.2.8-7.6,3.1-7.2,6.9-9,18.3-4.3,27.1,1.9,3.6,5.4,6.1,8.6,6.7s8.3-.6,11.4-3.5c7-6.7,8.4-17.4,4.2-26.1ZM125.9,186.6c5.3-3,2.8-15.8,1.8-21.3s-.9-1.1-1.2-1.1c-2.8-.1,0,5.6-7.8,7.9s-6.5-.3-9.4-3.3c-1.4,2.2.2,3.8,1.1,5.6,2.6,5.1,8.8,16.1,15.5,12.3Z"/>
  <path class="st10" d="M184.5,252.3c-.3,8.5-2.2,16.7-4.1,25.6,2.7,2,11.6,5.8,10,9.7-1.9,4.8-20.5,3.9-26.4,4-9,.1-17.6.4-26.4-.5s-3.3-1.1-3.6-3.1c-.8-5.9-.4-11.7-.4-17.7v-15.4c-2.5-.1-4.7,0-7,.8-1.5,11.1-.4,21.8,1.1,33.1-12.7.7-24.5,1.7-36.7,3.3-7.1.9-14.2.8-20.9-1-1.9-1-3.4-2.3-3.7-4-.9-5.3,9.3-9.1,13.5-11.2l-2.1-32c.6-1.1.7-2.5.6-4.1l-2.6-29.5c-.2-2.8-.7-5.3-.2-7.8,10.6,11.9,22,23,36,31.3,5.8,3.4,11.6,5.7,17.8,8.4,16.4,7.1,37.7,12,55.2,10Z"/>
  <path class="st1" d="M70.8,164.2c4.8,8.4,10.9,15.5,17.8,22.6,10.9,11.1,22.6,20.2,36.3,27.6,15.4,8.3,29.9,14.6,47.6,14.1-.7,1.6-.2,4.6.9,6,1.8,2.3,4.6,1.6,7.4.8-1.6,6.1,1,11.7,6.8,13.8.2,1.9-1.2,3-3,3.2-17.5,2-38.8-2.9-55.2-10-6.2-2.7-12-5-17.8-8.4-14-8.3-25.4-19.4-36-31.3-5.6-6.3-7.4-21.7-6.9-29.1l.5-6.8c0-1.3.9-2.2,1.8-2.4ZM87.2,197.3c1.8-1-3-3.4-2.5-5.3s2.2-2.7,1.5-3.8-3.2.7-4.8,0c-1-.5-2.1-4.1-3.8-3.7-.7,1.9,0,3.7,0,5.6-1.3.7-2.9.7-3.7,2,.7,1.8,3,1.4,3.9,2.7s-.1,3.5,1.2,5c1.6-.3,2.2-1.8,3-3.1,1.7-.5,3.4,1.6,5.2.6ZM99.3,210.9c1.1-.7,3.5.3,3.9-.9.1-1.8-2-2.6-2.9-3.8l.6-4.4-3.8,1.6c-1.6-.7-2.5-2.9-4.5-2.9-1.8,0,.8,4.1,0,5.4s-4.2,1.7-3.4,3.2,3.9.1,5.3,1.4,1.4,5.2,3,4.5.6-3.2,1.9-4ZM116.7,224.4c2,.3,4,.6,4.8-1.1-.8-1.4-2.4-2.1-3.5-3.4-.1-1.7,1.8-3,1.4-4.7s-3.8,1.3-4.8,1.4-3.3-3.9-5.9-3.2c-.2,2.2,1.2,3.9,1.3,6-1.7,1.7-4.1,2.1-5.3,4.3,2.4,1.2,5.9-.7,6.8,1l2.9,5.3c1.4-1.5,1.1-3.5,2.2-5.5ZM141.1,242.4l.3-6.6c1.4-.8,3.6-.1,4.6-1.5s-1.3-1.9-2.2-2.1c-4.6-1.1-.9-7.4-3.9-6.9s-2.6,2.7-4.4,3.3c-2.3-.9-4.4-2.4-7-1.7.5,2.6,2.7,3.6,3.8,5.6-1.2,1.9-3.2,3-3.9,5.5,2.1.7,4.2.2,6.1-.4,4.2-1.2,3.5,5.1,6.5,4.8Z"/>
  <path class="st5" d="M190.7,168.6c3.6,3.2,6.7,6.1,8.4,10.7,2.4,6.7,5.2,13.1,7.2,20,3.6,12.3,3.8,27.3-1.3,39.2s-9.9,11-17.4,10.5c-5.8-2-8.4-7.6-6.8-13.8-2.8.8-5.5,1.5-7.4-.8-1.1-1.4-1.6-4.3-.9-6,6.3-14.3,4.1-29.6-.1-44.2-1.7-5.7.1-10.9,4.2-14.9,5.6-5.6,8.4-2,14-.8Z"/>
  <path class="st9" d="M162.9,130.7c-.7,0-1.3.8-1.9,1.2-2.4.1-5,.9-6.8,2.6h-.8c-2.9.2-14.4,6.5-21,6.2s-5.7-.5-8-1.3c-14.5-4.9-24.8-18-47.3-16.4-7,.5-27.8,1.2-26.5,12.7-2.4-1.7-3.5-4.8-1.7-7.5,4.3-8,20.8-14.5,28.9-16.8,17.5-1.7,34.9.2,52.1,5.1,10.9,3.1,20.8,7.5,31,12.2,1,.5,2.1.8,2,1.9Z"/>
  <path class="st5" d="M75.5,202.6c-.5,2.5,0,5,.2,7.8l2.6,29.5c.1,1.6,0,3-.6,4.1-.8,0-1.8.3-2.8,0-11.6-4.4-16.4-17.1-16.5-28.9s2.1-30,10.1-41.6c-.5,7.5,1.3,22.8,6.9,29.1Z"/>
  <path class="st4" d="M77.1,123c-.9,2.8-3,5.4-3.6,8.3-6.8.9-15.7,6.8-22.9,4.4-1.2-11.5,19.5-12.2,26.5-12.7Z"/>
  <path class="st6" d="M149.8,72.9c-2.7,2.6-14.6,1.3-14.9-2.8.5-1.1.9-3.3,2.6-3.7,3.3-.7,7.1,0,10.1,1.4s2,3.4,2.1,5.1Z"/>
  <path class="st7" d="M161,131.8c4.3,8.5,4.6,18.6-.6,26.8-3,4.7-7.8,7.8-12.4,8.5s-11.6-1-16-5.1c-6.3-5.9-8.4-14.4-7.6-22.7,2.3.8,5.6,1.1,8,1.3,1.4,4.8,6.4,7.9,11.7,6.8s8.4-4.7,9.3-9.2c.9-1,.6-2.5.7-3.8,1.8-1.6,4.4-2.5,6.8-2.6Z"/>
  <path class="st7" d="M94.6,128.4c-6.5,3.3-9.1,11.3-4.7,17.5,1.7,2.4,4.3,3.7,6.9,3.7,7,.2,11-7.3,10.1-14,4.2,8.7,2.8,19.4-4.2,26.1-3.1,3-7,4.3-11.4,3.5s-6.6-3.1-8.6-6.7c-4.7-8.9-2.9-20.3,4.3-27.1s4.9-2.8,7.6-3.1Z"/>
  <path class="st0" d="M106.9,135.7c.8,6.8-3.1,14.2-10.1,14-2.6,0-5.2-1.4-6.9-3.7-4.4-6.2-1.8-14.2,4.7-17.5,7.5-.7,9.1,1.2,12.3,7.2Z"/>
  <path class="st0" d="M125.9,186.6c-6.7,3.8-12.9-7.2-15.5-12.3s-2.5-3.4-1.1-5.6c2.9,3,5.9,4.3,9.4,3.3,7.9-2.2,5.1-8,7.8-7.9s1.1.4,1.2,1.1c.9,5.5,3.4,18.4-1.8,21.3ZM125.5,184.3c1.4-.7,2.8-5.2,1.2-5.9s-3.4.9-7.7,2.8-.8,1.6-.3,2c1.7,1.4,4.9,2.2,6.8,1.1Z"/>
  <path class="st8" d="M126.6,98.8c-2.3,5.3-9.9,4.1-13.8.2-.1,3.9,3,6.9,6.5,8.8,10.7,5.7,19.1-5.2,25.8-12.8-2.3-1.5-9.1,5-11.7,2.5s9.6-9.7,9.5-11.5c-3.7,0-11.5,7.3-14.2,5.8s7.3-10.2,9.8-11.8c-.6-1.5-1.9-.6-2.8,0l-10.7,7.9c-.6.4-1.5.5-2.1.4-3.1-.9,6.6-10.6,7.8-12.3-6.5,1.3-11.3,11.9-13.5,12-5.7.1,12.1-18.3,17.3-13.8l-3.3,5.7c1.4-.6,10.2-5.8,11.7-2.6s-4.3,4.8-4.6,7.1c2.6-.2,8.1-2.7,9,.3s-4.2,4.8-5.2,6.9c1.9.6,6.1-1.7,7.4.8,1.9,3.9-9.5,15-12.7,17.9-6.3,5.8-13.8,3.5-20.3-.7s-6.3-6.4-6.4-11.3c-1.9.2-2.4,1.5-3.6,1.5s-.6-.6-.7-.9c-.2-1.8,4.2-2.6,4.8-3.7,1.8-3.3,4.8-5.1,8.7-3.5s7,3.6,7.5,7.2ZM139.2,79c0-.2-.1-.3-.3-.3s-.3.1-.3.3.1.3.3.3.3-.1.3-.3ZM130.5,80.2c0-.2-.1-.3-.3-.3s-.3.1-.3.3.1.3.3.3.3-.1.3-.3ZM137.9,84.5c0-.2-.1-.3-.3-.3s-.3.1-.3.3.1.3.3.3.3-.1.3-.3ZM141.7,92c0-.2-.1-.3-.3-.3s-.3.1-.3.3.1.3.3.3.3-.1.3-.3ZM121.3,95.8c-1.8-2-5.2-3.3-7.3-.9,2.3.5,4.5.9,7.3.9ZM122.5,96.3c0-.2-.1-.3-.3-.3s-.3.1-.3.3.1.3.3.3.3-.1.3-.3ZM123,99.3c-2.8-1.7-5.7-2.2-8.8-1.7,2.6,2.5,5.8,3.2,8.8,1.7Z"/>
  <path class="st7" d="M141.1,242.4c-3,.3-2.3-6-6.5-4.8s-4,1.1-6.1.4c.7-2.5,2.7-3.6,3.9-5.5-1.2-2-3.3-3.1-3.8-5.6,2.7-.7,4.8.8,7,1.7,1.7-.6,2.5-3,4.4-3.3,3.1-.5-.7,5.8,3.9,6.9s2.9,1.2,2.2,2.1c-1.1,1.4-3.2.7-4.6,1.5l-.3,6.6Z"/>
  <path class="st7" d="M116.7,224.4c-1.1,2-.7,4-2.2,5.5l-2.9-5.3c-1-1.8-4.5.2-6.8-1,1.2-2.2,3.7-2.6,5.3-4.3,0-2.1-1.5-3.7-1.3-6,2.6-.6,4.6,3.4,5.9,3.2s4.4-3.1,4.8-1.4-1.5,3-1.4,4.7c1.1,1.3,2.6,2,3.5,3.4-.8,1.7-2.8,1.4-4.8,1.1Z"/>
  <path class="st7" d="M87.2,197.3c-1.9,1-3.6-1.1-5.2-.6-.9,1.3-1.5,2.8-3,3.1-1.3-1.5-.2-3.5-1.2-5s-3.2-.9-3.9-2.7c.8-1.3,2.4-1.3,3.7-2,0-1.9-.6-3.8,0-5.6,1.7-.4,2.8,3.2,3.8,3.7,1.6.7,3.9-1.3,4.8,0s-1.2,2.8-1.5,3.8c-.5,1.9,4.3,4.3,2.5,5.3Z"/>
  <path class="st7" d="M99.3,210.9c-1.3.8-.4,3.3-1.9,4s-2-3.6-3-4.5c-1.4-1.2-4.7-.2-5.3-1.4s2.9-2.3,3.4-3.2c.8-1.4-1.8-5.4,0-5.4,2,0,2.9,2.2,4.5,2.9l3.8-1.6-.6,4.4c.8,1.2,3,2.1,2.9,3.8-.3,1.2-2.7.2-3.9.9Z"/>
  <path class="st3" d="M153.4,134.5v3.8c-.8,4.5-4.5,8.3-9.2,9.2s-10.3-2-11.7-6.8c6.6.4,18.1-5.9,21-6.1Z"/>
  <path class="st2" d="M153.4,138.2v-3.8c0,0,.7,0,.7,0-.1,1.3.2,2.8-.7,3.8Z"/>
  <path class="st10" d="M125.5,184.3c-1.9,1-5.1.2-6.8-1.1s-.6-1.6.3-2c4.2-1.8,5.3-3.8,7.7-2.8s.2,5.2-1.2,5.9Z"/>
  <path class="st9" d="M123,99.3c-3,1.5-6.3.8-8.8-1.7,3.1-.5,6.1,0,8.8,1.7Z"/>
  <path class="st9" d="M121.3,95.8c-2.9,0-5.1-.4-7.3-.9,2.1-2.4,5.5-1.1,7.3.9Z"/>
  <path class="st4" d="M134.9,70.1c.3,4.1,12.1,5.4,14.9,2.8,8.6,0,27.8,11.4,33.1,17.8,10.1,12.1,11.1,29.7,9.5,45-.2,1.5,0,3.1-1.8,3-5-.8-24.5-8.5-27.7-8.1,0-1.1-1-1.4-2-1.9-10.2-4.8-20.1-9.1-31-12.2-17.2-4.9-34.6-6.8-52.1-5.1,2.3-16.3,8.2-30.3,25.1-36.3,12.4-4.4,19.1-5.9,32.1-5ZM126.6,98.8c-.4-3.7-4.7-6.2-7.5-7.2-3.9-1.5-6.9.3-8.7,3.5-.5,1.1-5,1.9-4.8,3.7s0,1,.7.9c1.2,0,1.7-1.3,3.6-1.5.1,4.9,2.4,8.7,6.4,11.3,6.5,4.2,13.9,6.5,20.3.7,3.2-2.9,14.6-13.9,12.7-17.9s-5.4-.2-7.4-.8c1-2.1,6-4.2,5.2-6.9s-6.4-.5-9-.3c.3-2.3,5.8-4.4,4.6-7.1s-10.3,2.1-11.7,2.6l3.3-5.7c-5.2-4.5-23,13.9-17.3,13.8,2.2,0,7-10.7,13.5-12-1.2,1.7-10.8,11.4-7.8,12.3s1.5,0,2.1-.4l10.7-7.9c.9-.6,2.2-1.5,2.8,0-2.4,1.7-13.3,9.8-9.8,11.8s10.5-5.8,14.2-5.8c.1,1.8-13,8.2-9.5,11.5s9.5-4,11.7-2.5c-6.7,7.6-15.1,18.5-25.8,12.8-3.4-1.8-6.6-4.9-6.5-8.8,3.9,3.9,11.5,5.1,13.8-.2Z"/>
  <circle class="st9" cx="122.1" cy="96.3" r=".3"/>
  <circle class="st4" cx="138.9" cy="79" r=".3"/>
  <circle class="st4" cx="130.2" cy="80.2" r=".3"/>
  <circle class="st4" cx="137.6" cy="84.5" r=".3"/>
  <circle class="st4" cx="141.4" cy="92" r=".3"/>
</svg>