<?xml version="1.0" encoding="UTF-8"?>
<svg id="Calque_1" xmlns="http://www.w3.org/2000/svg" version="1.1" viewBox="0 0 272.8 331.1">
  <!-- Generator: Adobe Illustrator 29.8.5, SVG Export Plug-In . SVG Version: 2.1.1 Build 2)  -->
  <defs>
    <style>
      .st0 {
        fill: #c5d4a8;
      }

      .st1 {
        fill: #84ab42;
      }

      .st2 {
        fill: #507339;
      }

      .st3 {
        fill: #83ab42;
      }

      .st4 {
        fill: #4f7239;
      }

      .st5 {
        fill: #fbfaef;
      }

      .st6 {
        fill: #4e7138;
      }

      .st7 {
        fill: #4d7137;
      }

      .st8 {
        fill: #92ba4d;
      }

      .st9 {
        fill: #84ab43;
      }
    </style>
  </defs>
  <path class="st8" d="M181.1,159.5c-.2,0-.6.4-.6.5-.5,10.8-2.4,21.5-3.4,32.2-.3,3.3-.7,6.7-.9,9.9s.4,1.5,1.2,2.1,0,.5,0,.5c-1.2-.4-1.1,1.3-1.2,2.1-1.8,14.9-2.1,30-2.5,45l-1.3,19.2c4.4,1.4,10.9,3,13,7.6,2.7,5.8-1.6,8.8-6.9,9.3s-14.8-.8-22-.3c-8.6-.9-17.2-1.1-25.8-1.6s-4.6-.4-4.8-.5c-.6-.4-.9-3.7-.9-4.6-.6-9.6,1.1-20.4,0-29.8s-.8-3-.9-4.5l-9.3-.3c.1,5.4,1.2,10.9,1.6,16.3s.5,10.4.6,15.2.4,6.7-1,7.8-7.3,1.3-8.8,1.4c-10.6,1.1-32.7,2.8-42.5.5s-6.6-2.8-6.8-5.7c-.3-4.2,8-7.6,11.2-9-3.9-16.7-7.1-33.7-9-50.7,10.4,6.7,33.4,11.8,42.3.8s3.1-6.5,1.4-10.7-2.4-3.5-3.9-5.4c2.7-3.5,6.2-6.1,3.5-10.9s-7.2-3.8-11.1-1.7-3.7,2.9-4.6,2.9-6.4-3.8-7.3-4.5c-6.1-5-8.2-10-7.5-18,.4-4.5,2.8-8,1.3-12.8-1.9-6.5-12.2-12.4-18.1-7.8,0-4.2-1.1-8.4-1.3-12.6s.2-7.8.3-11.5c.4-11.5.3-24.2,8.1-33.5,4.1-4.9,9.6-6.8,15.5-8.5-.6,2.7-.9,7.8,3.2,7.1s6.6-4.1,8.6-5.1c2.8-1.4,6.3-2.7,9.5-3s5,.6,5.4.4c.9-.4,1.8-3.2,2-4.1.9-.1,3.4.3,3.9-.3s-.2-1.2-.2-1.7c.5-7.5,2.6-15.9,7.5-21.7s14.8-11.9,21.2-10c10.2,3-1.1,15.3-3.5,20.3,4-1.9,7.9-4.6,12.6-4.2s7.4,3.2,5.1,6.7-7,6.8-9.5,9.8-2.4,3.1-2.3,3.6.5.4.8.5c4.6,1.1,9.6,1.1,14.3,2.2,14.5,3.4,21.2,13.6,23.1,27.8,1.7,12.4,2.3,25.4,1.6,37.8,0,1.8-.6,3.9-.6,5.7ZM156.8,95.9c-2.8.3-6.1,1.4-8.7,2.5s-6.8,2.9-7.9,4c-1.6,1.6-.4,5.4.8,7,4,5.1,11.1-1.2,15.2-3.4s10.9-3.7,8.2-7.9-5-2.4-7.7-2.1ZM102.1,105.5c-26.3,2.9-24.5,46.7,2.1,46.5,29-.2,27.7-49.7-2.1-46.5ZM142.6,126.9c-.4,3,.1,6.1,1,9.1s1.6,4.4,1.8,4.6.4,0,.6,0c3.3,6.9,11.8,10.4,18.4,5.5,5.5-4,7.7-11.5,7.4-18.1-1.1-22.5-26.2-27-29.2-1.1ZM104.1,179.2c6,5.5,11.8.9,17.5-1.4s14.4-2.4,22.3-3.2,11.2-2.1,14.1-6.1c4.7-6.2-4.9-14-10.5-15.3-10.2-2.4-32.5-2.2-40.9,4.6s-8.9,15.5-2.5,21.3Z"/>
  <path class="st1" d="M59.9,222.2c-19.2-12.5-22-31.3-14.3-52,1.6-4.3,6.7-13.6,10.3-16.3,5.9-4.5,16.2,1.4,18.1,7.8,1.4,4.8-.9,8.3-1.3,12.8-.8,8,1.3,13,7.5,18s6.6,4.5,7.3,4.5,3.5-2.3,4.6-2.9c3.9-2.1,8.7-2.7,11.1,1.7s-.8,7.4-3.5,10.9c1.5,1.9,2.9,3.1,3.9,5.4,1.7,4.2,1.5,7.2-1.4,10.7-8.9,11-31.9,6-42.3-.8Z"/>
  <path class="st9" d="M181.1,159.5c.2,0,.6,0,.9-.1,7-3.2,5.1-6.5,6-13,.4-2.9,1.9-10.5,5.4-11,5.7-.9,7.9,4.2,9.3,8.7,4.9-1.7,9.7-3.7,14.9-4.3s9-.6,11,5.4c4.5,13.8-4.8,28.4-16.2,35.7s-5.3,2.5-5.8,3.1-.7,1.8-1.1,2.5c-2.9,4.9-9.8,11.9-14.9,14.7s-11.5,5.1-13.4,3.9,0-.4,0-.5c-.7-.6-1.4,1.1-1.2-2.1s.6-6.7.9-9.9c1-10.8,2.9-21.4,3.4-32.2,0-.2.5-.5.6-.5Z"/>
  <path class="st2" d="M218,42.2c5.6-.8,8.6,2.8,11.4,7.1s1.5,10.4-1.4,15.3-8.4,9.7-9.1,12.3,4.7,7.3,1.4,10.7-6.2,4.3-8.5,2.7-4.6-10.3-4.1-13.1c1.1-6.8,14.7-13.9,13.6-21.8s-8.8-3.4-12.4-1.3-2.2,2.8-3.2,6.1c-1.9,6.2-8,2.3-7.7-3s2.1-6.9,4.4-8.7,12.6-5.9,15.7-6.3Z"/>
  <path class="st6" d="M107.1,83.1c-.1.9-1.1,3.7-2,4.1s-4.1-.5-5.4-.4c-3.2.2-6.7,1.5-9.5,3s-7,4.9-8.6,5.1c-4.1.7-3.8-4.4-3.2-7.1,1.4-7,10.2-16.3,17.3-17.7s9.2-.2,10.7,3.5.9,7.4.6,9.5Z"/>
  <path class="st2" d="M216.4,95.9c1.9-.5,7.9,1.8,9.2,3.4s.5,8.7-.9,10.8c-2.2,3.2-9.2,4.8-11.8,1.6s-2.4-8.2-1.6-10.6,3.7-4.8,5.1-5.1Z"/>
  <path class="st5" d="M102.1,105.5c29.7-3.2,31.1,46.3,2.1,46.5-26.6.2-28.4-43.7-2.1-46.5ZM113.6,117c-13.9.4-16.3,28.7-2,27.5s15.3-27.9,2-27.5Z"/>
  <path class="st7" d="M104.1,179.2c-6.4-5.9-3.6-16.4,2.5-21.3s30.7-7,40.9-4.6,15.2,9.1,10.5,15.3-9.5,5.6-14.1,6.1c-7.9.8-14.5.2-22.3,3.2s-11.5,6.9-17.5,1.4ZM114.5,164.2c-4,.3-11,2.2-10.8,7.2s4.5,6.8,8.2,6.3,4.4-2.4,6.6-3.3,4.3-.6,6.4-1.3c4.2-1.3,2.3-4.4-.2-6.4s-6.5-2.7-10.2-2.4Z"/>
  <path class="st5" d="M146,140.5c.7,0,.2-.2,1.2.3,2.7,1.4,4,2.4,7.2.8,9.2-4.3,8-24.7-3-23.5s-4.4,2.3-5.7,4.3-.2.1-.3.3,0,.2,0,.3c-.5.2-.8.8-.9,1.2s0,.2,0,.3c-.8,1.4-1.3,3.3-1.2,5l-.6-2.8c3-25.9,28.1-21.4,29.2,1.1.3,6.6-1.9,14.1-7.4,18.1-6.6,4.9-15.2,1.4-18.4-5.5Z"/>
  <path class="st7" d="M156.8,95.9c2.6-.3,6.1-.4,7.7,2.1,2.6,4.2-5.6,6.5-8.2,7.9-4.1,2.3-11.3,8.6-15.2,3.4s-2.4-5.4-.8-7,6.2-3.3,7.9-4c2.7-1,5.9-2.2,8.7-2.5Z"/>
  <path class="st0" d="M147.2,140.8c-1.1-.6-.6-.3-1.2-.3s-.5,0-.6,0c-.2-.2-1.6-4-1.8-4.6-.9-3-1.4-6-1-9.1l.6,2.8c0-1.7.4-3.5,1.2-5-1.7,5.5-1.6,11.9,2.8,16.1Z"/>
  <path class="st4" d="M113.6,117c13.3-.4,11.1,26.5-2,27.5s-11.9-27.2,2-27.5Z"/>
  <path class="st3" d="M114.5,164.2c3.6-.3,7.2,0,10.2,2.4s4.4,5.1.2,6.4-4.2.4-6.4,1.3-4,3-6.6,3.3c-3.7.6-8.1-2.4-8.2-6.3s6.8-6.9,10.8-7.2Z"/>
  <path class="st4" d="M147.2,140.8c-4.4-4.3-4.5-10.6-2.8-16.1s0-.2,0-.3c.6-.2.7-.8.9-1.2s0-.2,0-.3l.3-.3c1.3-2,3.2-4.1,5.7-4.3,11.1-1.1,12.2,19.2,3,23.5s-4.5.6-7.2-.8Z"/>
  <path class="st0" d="M144.4,124.4c.2-.5.4-1,.9-1.2-.2.5-.4,1-.9,1.2Z"/>
  <path class="st0" d="M145.4,122.8c0-.2.3-.2.3-.3l-.3.3Z"/>
</svg>