<?xml version="1.0" encoding="UTF-8"?>
<svg id="Calque_1" xmlns="http://www.w3.org/2000/svg" version="1.1" viewBox="0 0 272.8 331.1">
  <!-- Generator: Adobe Illustrator 29.8.5, SVG Export Plug-In . SVG Version: 2.1.1 Build 2)  -->
  <defs>
    <style>
      .st0 {
        fill: #84ab42;
      }

      .st1 {
        fill: #fffffe;
      }

      .st2 {
        fill: #507339;
      }

      .st3 {
        fill: #4f7239;
      }

      .st4 {
        fill: #fbfaef;
      }

      .st5 {
        fill: #4e7138;
      }

      .st6 {
        fill: #92b94d;
      }

      .st7 {
        fill: #84ab43;
      }
    </style>
  </defs>
  <path class="st6" d="M116.2,74.3c1.4-10.3,10.3-22.5,21.3-23.3s9.5,2.3,6.9,8.1-9.4,12.4-8.2,13.6c1.5-.5,2.4-2.1,3.6-3.1,2.6-2.1,5.9-4.2,9.2-5.1,4.9-1.4,12.6-2.3,9.4,5.3-.6,1.4-1.7,2.2-2.2,3.5-3-.3-3.7.3-5.1,2.8-2.3,4.2-3.3,8.9,2.8,9.6s6.3.1,9.7.9,8.3,3.7,11,3.5,2-.8,2.1-.9c4.3,4.8,7.8,10,10.2,16.1,3.8,9.7,5.7,19.7,6.3,30.1s.8.3,1.2.5c0,0,0,.6,0,.6-.2.2-1.7-.3-2.3-.3-7.3.5-18.4,10.3-17.2,18.1s4.3,6.9,7.9,5.2,2-1.7,2.7-1.6,2.3,2.4,3,2.9,3.5,1.5,3.7,1.9c.4,1.8-.3,3.6-.3,5.2-.2,8.5,0,17.2,0,25.6,0,23.2-4.4,46.4-5.9,69.4,0,.9-.2,4.6.3,5s2.3.7,3,1c3.2,1.5,9.4,4.7,8,9.1s-6.5,3-8.7,3.1c-4.9.3-9.8-.3-14.6-.3-8.5,0-21.2,1.1-29.1-.4s-3.1-.7-3.3-2.3-.3-3.8-.3-5.2c-.3-8.1.2-16.2-.3-24.2s-.7-6.3-.6-9.5c-3.8-.3-2.6.5-2.5,2.9.3,8.5-1.4,16-1.9,24.2-.2,4,.7,11.3-.5,14.7s-5.4,3-7.8,3.4c-10.3,1.7-27.1,1.9-37.6,1.3s-17.7-2.3-12.3-9.5,5.3-3.2,8.1-4.7l-7.2-42.3s.6-.8.6-.8c.3-1.6-1.3-7.8-.9-8.2,7.6,1.2,6.8-5.1,3.1-9.5s-4.1-2.7-5.5-4.7c-.3-4.5-.9-9.1-1.3-13.6-1-11.7-2.2-23.1-3.4-34.8s.8-5.1-1.6-5.1c-.9-23.3-12.3-49.7,14.9-61.9,3.8-1.7,8-3.2,12.1-4.2-1.9,3.8-1.8,10.8,3.9,8.4s6.3-3.8,10-4.9,6.9-.3,10.1-1.1c6.4-1.6,3.8-13.5-.9-14.2s-2.6-.3-3.5-.3ZM135.9,73v.3c.2-.1.2-.2,0-.3ZM169.3,98.8c-17.3-10.8-29.5,7.5-17.9,22.1,11.7,14.7,32.8,6.9,26.2-12.2l-1.2-1.8c-1.3-3.9-3.9-6-7.1-8.1ZM136.7,105.9c-1-3.4-4.7-7.3-8.4-7.5.2-.8-.8-.8-1.3-1-16.3-5.1-29.2,14.2-19.8,28.1,9.1,13.5,29.8,6.9,31.6-8.7s0-8.2-2.1-10.9ZM163.7,145.4c-7.5.6-6.6,13.1.8,12.7,7.6-.4,7-13.3-.8-12.7Z"/>
  <path class="st0" d="M191.7,193.5c0-8.4-.2-17.2,0-25.6s.7-3.5.3-5.2c-.1-.4-3-1.4-3.7-1.9s-2.5-2.8-3-2.9-1.9,1.2-2.7,1.6c-3.6,1.7-7.4-1.7-7.9-5.2-1.2-7.8,9.9-17.6,17.2-18.1s2.1.5,2.3.3,0-.6,0-.6c1-.7,7.6,1.2,8.9,1.8,6.1,2.6,10.8,8.5,12.6,14.7,5,17.2-7.4,33.7-22.4,40.8s-.9.6-1.6.4Z"/>
  <path class="st7" d="M69.6,152.5c2.4,0,1.4,3.5,1.6,5.1,1.2,11.6,2.4,23.1,3.4,34.8.4,4.5,1,9.1,1.3,13.6,1.4,2.1,3.9,2.8,5.5,4.7,3.7,4.4,4.5,10.7-3.1,9.5-.3.4,1.3,6.6.9,8.2s-.6.8-.6.8c-1.2.5-7.5-.9-9-1.4-18.2-6.4-14.3-38-10.2-52.4s6.1-15.6,10.2-22.9Z"/>
  <path class="st5" d="M116.2,74.3c.9,0,2.6.2,3.5.3,4.7.7,7.4,12.6.9,14.2s-6.5.1-10.1,1.1-6.7,3.5-10,4.9c-5.8,2.4-5.8-4.7-3.9-8.4s3.6-4.9,4.8-6.2c4.2-4.3,8.7-6.2,14.8-5.9Z"/>
  <path class="st3" d="M155.9,73.3c4.1.4,11.3,3.8,14.6,6.4s8.1,7.3,5.9,9.4-1.9.8-2.1.9c-2.7.3-7.9-2.8-11-3.5s-6.4-.5-9.7-.9c-6.1-.6-5.1-5.4-2.8-9.6s2.1-3.1,5.1-2.8Z"/>
  <path class="st4" d="M136.7,105.9c2.2,2.8,2.5,7.5,2.1,10.9-1.8,15.6-22.4,22.2-31.6,8.7-9.4-14,3.5-33.2,19.8-28.1s1.5.2,1.3,1c-11.2-.6-11.1,16.7-2.2,20.3s12.5-6,10.6-12.9Z"/>
  <path class="st4" d="M169.3,98.8h-1.2c-.5-.5-2-.5-2.5,0-5.5.7-3.9,9.4-1.8,12.8,5.2,8.4,16.3,6.3,12.7-4.8l1.2,1.8c6.6,19.1-14.5,26.9-26.2,12.2-11.6-14.5.6-32.8,17.9-22.1Z"/>
  <path class="st3" d="M128.3,98.5c3.7.2,7.4,4,8.4,7.5,1.9,6.9-2.3,16.3-10.6,12.9s-9-20.9,2.2-20.3Z"/>
  <path class="st2" d="M165.6,98.8c.7,0,1.7,0,2.5,0h1.2c3.3,2,5.9,4.2,7.1,8.1,3.6,11.1-7.5,13.2-12.7,4.8s-3.7-12.1,1.8-12.8Z"/>
  <path class="st5" d="M163.7,145.4c7.8-.6,8.4,12.3.8,12.7-7.4.4-8.4-12.1-.8-12.7Z"/>
  <path class="st1" d="M135.9,73c.2.1.2.2,0,.3v-.3Z"/>
  <path class="st6" d="M168.1,98.8c-.8,0-1.8,0-2.5,0,.5-.5,2-.5,2.5,0Z"/>
</svg>