<?xml version="1.0" encoding="UTF-8"?>
<svg id="Calque_1" xmlns="http://www.w3.org/2000/svg" version="1.1" viewBox="0 0 272.8 331.1">
  <!-- Generator: Adobe Illustrator 29.8.5, SVG Export Plug-In . SVG Version: 2.1.1 Build 2)  -->
  <defs>
    <style>
      .st0 {
        fill: #84ab42;
      }

      .st1 {
        fill: #507339;
      }

      .st2 {
        fill: #fbfbf0;
      }

      .st3 {
        fill: #4e7138;
      }

      .st4 {
        fill: #4d7137;
      }

      .st5 {
        fill: #92b94d;
      }
    </style>
  </defs>
  <path class="st5" d="M101.2,84.4c1.1,0,2.2,0,3.3,0s.8-.3.9-.3h5.1c-.7-12.6,7.2-26.4,19.1-31.1s8.8-2.5,11.4.2c3.9,4-2.7,11.9-4.1,16,5.1-1.7,11-5.3,16.5-2.9s3.5,7.6-.9,9.5c-4.6-2.7-16.6-3.3-17.4,3.9s-.5,8.6,2,9.8,8,.7,11.2.9,8.8,2.1,11.3-.2.9-1.3,1-1.4c3.3,1.3,7,3.4,9.6,5.7,7.8,6.7,8.1,18.4,9.7,27.9s2.4,9.4,2.4,12.4c-.1,9.6,1.4,19.4,1.9,29,.5,8.9.3,17.8,0,26.7s.3,4.8,0,6.9-3.9,4.7-5,6.8-2.9,7.3.4,8.7,3.7-.8,4.1,0-.3,5.1.5,6.5c-.8,11.8-2.1,23.9-2.5,35.9s-.3,8.6,0,9.6.2.4.5.4c5.4.9,11.6,3.6,14.8,8.2,1.7,2.5,2.7,4.7,0,7.1s-15.8,2-20.2,1.9c-11.9-.3-25.8-1.3-37.6-3.2s-2.6-.4-2.9-2.1c-2.2-10.7-1.9-23.4-3.2-34.4-.1-1-.3-3.8-1.2-4.1s-7.7-1.2-7.8-.6c-.3,1.5.3,3,.3,4.3.2,6.2-.2,12.5.3,18.6s2.2,10.8,2.2,15.2-.2,1.6-.8,2c-1.1.8-8.8,1.9-10.6,2.1-11.9,1.5-36.5,5.6-46.9,1.3s-4.6-2-4.1-5.2,6.8-7.3,9.6-8.7,4-1.2,4-2.1l-7.8-38.4c.9-1.2-1.3-9.3-.9-9.6,2,1,5.2,1,6.5-1.1,2.6-4.5-5-10.3-8.7-11.8-2.1-8.1-3.8-16.5-4.9-24.9-1.6-12.3-2.3-24.8-3.8-37.1s-1.3-21.5-.6-30c.8-10.2,7.5-17.7,15.8-22.8s2.2-.9,2.2-1c.3-.5-.3-1.7.4-2.1-.2,2.1,0,4.2,1.9,5.4s7.8-.3,10.7-.4,10.7,1.1,12.2-2.1.3-4.1,0-5.4ZM130.5,115.7c2.3,1.8,6.8-2.8,9.1-3.9,4-1.9,8.2-2.2,12,.3s4.1,6.6,7.5,6.2,2-4.3,1.1-6.1c-4.8-9.7-19.8-10.3-27.5-3.9s-4.7,5.4-2.2,7.4ZM110.1,116.3c1.8-1.6.4-4.2-1-5.5-7.9-7.3-25.5-8.8-29.5,3.7-.9,2.7-.2,7,3.6,5.8s2.9-4.5,4.2-5.8c3.6-3.5,8.9-3.3,13.3-1.5s6.4,4.1,8.1,3.9,1.2-.5,1.4-.7ZM160.9,152.7c5-1.3,8.3-8,8.7-12.9.8-9.5-1.1-17.1-12.3-15.4s-1.2-.3-1.1.6c-.2-.3-1.2-.3-1.7-.3-6.4.4-13.4,2.7-19.9,3.4-15.4,1.5-31.1.3-46.5-.6s-10.3-.9-11.7,5.5c-1.7,7.6,3.4,16.5,9.8,20.5s1.1.2,1.3.4c5.6,3.1,9.3,3.9,15.7,4.6,13.6,1.5,42.1,1.1,54.7-4s2.7-1.1,2.9-1.9Z"/>
  <path class="st0" d="M184.2,219.2c-.7-1.4.1-5.6-.5-6.5s-2.5.8-4.1,0c-3.3-1.4-1.7-6.3-.4-8.7s4.8-5.1,5-6.8-.1-4.7,0-6.9c.3-8.9.5-17.8,0-26.7-.5-9.7-2-19.4-1.9-29,2.1.7,3.9,3.4,5.2,5.2,12.7,17.1,24.9,50.2,16.7,70.9-3.4,8.7-11.3,14.1-20,8.4Z"/>
  <path class="st0" d="M58.6,142.8c1.5,12.2,2.1,24.8,3.8,37.1s2.9,16.7,4.9,24.9c3.7,1.5,11.2,7.2,8.7,11.8s-4.5,2.1-6.5,1.1c-.3.3,1.8,8.4.9,9.6-11,.3-20.9-7.2-24.5-17.3-7-19.8,1.4-43,9.4-61.2.9-1.9,1.9-4.3,3.3-5.9Z"/>
  <path class="st3" d="M101.2,84.4c.2,1.3.5,4.2,0,5.4-1.5,3.2-9.1,1.9-12.2,2.1s-8.3,2-10.7.4-2.1-3.4-1.9-5.4c.7-6.9,11.9-13.9,18.3-12s5.9,5.7,6.5,9.5Z"/>
  <path class="st4" d="M152.5,75.7c0,0,1,.9,1.4,1.2,2.7,2.2,7.5,8.2,6.7,11.8s-.8,1.2-1,1.4c-2.5,2.3-8.2.4-11.3.2s-8.3.5-11.2-.9-2.3-7.4-2-9.8c.8-7.2,12.8-6.6,17.4-3.9Z"/>
  <path class="st2" d="M160.9,152.7c-.2.8-2.2,1.6-2.9,1.9-12.5,5.1-41.1,5.5-54.7,4-6.4-.7-10.2-1.6-15.7-4.6,0-4.1-.3-11.3,5.4-11.5s7.2,1.2,10,1.5c12.9,1.5,26.8,1,39.7,0s13.8-3,16.7,1,1.9,6.2,1.5,7.7Z"/>
  <path class="st2" d="M156.2,125.1c.2.3,1.3,4,1.5,4.6,1.2,5.7-.8,7.7-6.1,9.3-13.8,4.2-40.8,3.8-55.2,1.6-3.1-.5-6.3-.8-8.4-3.4s-1.1-6.3.2-9.6c15.4,1,31.1,2.1,46.5.6s13.6-3,19.9-3.4,1.4,0,1.7.3Z"/>
  <path class="st1" d="M160.9,152.7c.4-1.5-.5-6.4-1.5-7.7-2.9-4-12.4-1.3-16.7-1-12.9,1-26.9,1.4-39.7,0s-7.4-1.6-10-1.5c-5.8.2-5.4,7.4-5.4,11.5-.2-.1-.8,0-1.3-.4-6.4-4-11.4-12.9-9.8-20.5,1.4-6.4,6.6-5.8,11.7-5.5-1.3,3.4-2.7,6.4-.2,9.6s5.3,2.9,8.4,3.4c14.3,2.2,41.4,2.6,55.2-1.6s7.2-3.6,6.1-9.3-1.3-4.3-1.5-4.6c-.1-.9.6-.5,1.1-.6,11.1-1.7,13.1,5.9,12.3,15.4s-3.7,11.6-8.7,12.9Z"/>
  <path class="st3" d="M110.1,116.3c-.2.2-1.1.6-1.4.7-1.7.2-6.2-3.1-8.1-3.9-4.3-1.8-9.7-2-13.3,1.5s-3.1,5.4-4.2,5.8c-3.8,1.3-4.5-3-3.6-5.8,4-12.6,21.6-11,29.5-3.7s2.8,3.9,1,5.5Z"/>
  <path class="st3" d="M130.5,115.7c-2.4-2,.5-5.9,2.2-7.4,7.8-6.4,22.7-5.8,27.5,3.9s1.7,5.7-1.1,6.1-5-4.5-7.5-6.2c-3.8-2.5-8.1-2.2-12-.3s-6.8,5.7-9.1,3.9Z"/>
</svg>