<?xml version="1.0" encoding="UTF-8"?>
<svg id="Calque_1" xmlns="http://www.w3.org/2000/svg" version="1.1" viewBox="0 0 272.8 331.1">
  <!-- Generator: Adobe Illustrator 29.8.5, SVG Export Plug-In . SVG Version: 2.1.1 Build 2)  -->
  <defs>
    <style>
      .st0 {
        fill: #84ab42;
      }

      .st1 {
        fill: #71933d;
      }

      .st2 {
        fill: #83ab42;
      }

      .st3 {
        fill: #4b6d37;
      }

      .st4 {
        fill: #fbfaef;
      }

      .st5 {
        fill: #4e7138;
      }

      .st6 {
        fill: #4d7137;
      }

      .st7 {
        fill: #85ab44;
      }

      .st8 {
        fill: #92b94d;
      }

      .st9 {
        fill: #92ba4d;
      }
    </style>
  </defs>
  <path class="st8" d="M167.3,76.6c-6.4-.7-13.1,2.6-16.2,8.2s-1.4,7,3.3,7.9,10.1,0,16.3,2.4,7.3,4.7,10.3,3.5,3.4-6,2.1-9.2c1.7-.2,2.8,1.4,4.4,1.6.2,1.8,3,3.4,4.2,5,5.9,8.1,8.8,30.1,9.8,40.2s1.8,24.6,2.5,36.9.6,3.7.6,5.1-.9,2.5,0,3.4c0,1.3,0,2.7,0,4-.5.1-.5,1.1,0,1.2,0,.9,0,1.9,0,2.8,0,1.3-.1,1.4,0,2.8s.2,3.3.3,5c-.5.6-.7,3.2.3,2.8,0,1.2,0,2.5,0,3.7s-.3,0-.3.8,0,3.5,0,3.6.4,0,.6,0c0,1,0,2.1,0,3.1s-.3,0-.3.5c0,.9-.4,3,.6,2.6,0,.6,0,1.2,0,1.9s-.2,0-.3.5c0,.8-.3,2,.6,1.7,0,.8,0,1.7,0,2.5,0,1.2-.2,1.2,0,2.8s.2,1.7.3,2.5c-.5.3-.4,3.6-.3,3.7s.4,0,.6,0c0,1.5,0,3.1,0,4.7,0,5.2-.5,10.7-.3,16s-.3,1.2.6,1.1c0,2.7,0,5.4,0,8.1s-.4,2.7-.3,4.2-.3,1.2.6,1.1c0,1.1,0,2.3,0,3.4s-.2,1,0,2.5.5,2.6.3,4-.5.2-.3.6c.4.1.6-.3.6-.3.4,0,.9,0,1.2,0-.2,1.3.9.3,1.2.3s.6,0,.9,0c-.1.7.1.9.6.3.2,0,.4,0,.6,0-.3.7,1.2,1.1,1.6.6,1.2.4,2.5.8,3.7,1.2-.2.9.6.7,1.2.9s.6.2.9.3c0,.6,0,.7.6.6,2,1.2,4.5,2,3.5,5.2s-.6.8-1,1.3c-.7,0-.7,0-.6.6-1.2.6-1.5.4-2.5.6s-2.1,0-1.9.9c-.2,0-.4,0-.6,0-.5-.6-.7-.4-.6.3-.3,0-.7,0-.9,0s-1.1-.9-.9.3c-.5,0-1,0-1.6,0-1,0-1-.1-2.2,0-4.8.5-8.6,0-13.2,0s-9.1.7-13.5,0-1.4,0-2.5,0-2.1,0-3.1,0c.2-1.3-1.2-.3-1.6-.3-.7,0-1.5,0-2.2,0,.2-.9-.7-.6-1.6-.6s-1,0-1.6,0c-.1-.5-1.1-.5-1.2,0-.3,0-.6,0-.9,0,.1-.8-.2-.6-.9-.6-.1-.1-1.2,0-1.6,0,0-.5.1-.7-.5-.6l-.2.3c-2.6-.8-4.1-2.1-5-4.7s-.4-3-1.2-2.8c-.1-.5-.2-1-.3-1.6.5-.5.4-.7-.3-.6,0-.2,0-.4,0-.6.6-.5.4-.7-.3-.6,0-.2,0-.4,0-.6.6-.5.4-.7-.3-.6,0-.3,0-.6,0-.9.6-.5.4-.7-.3-.6,0-.2,0-.4,0-.6.6-.5.4-.7-.3-.6,0-.2,0-.4,0-.6,0-.3.9-1.1-.3-.9,0-.2,0-.4,0-.6.6-.5.4-.7-.3-.6,0-.2,0-.4,0-.6l.3-.5-.3-.2c0-.2,0-.9,0-.9,0-.7.2-1.1-.6-.9,0-.2,0-.4,0-.6l.3-.2-.3-.4c0-.4-.3-.8-.3-1.2l.3-.2c0-.7.1-.9-.6-.8,0-.4,0-.9,0-1.2s1-1.8-.3-1.6c0-.3,0-.6,0-.9,0-.6.1-.6,0-1.6s-.2-1.9-.3-2.8c.5-.6.7-3.2-.3-2.8,0-.7,0-1.5,0-2.2.5-.2.4-.9,0-1.2,0-.6-.3-1.3-.3-1.9s.4-.3.3-.6c-.7,0-1.1-.2-.9.6-1,0-2.1,0-3.1,0,.2-1.3-1.1-.3-1.6-.3s-1.8,0-1.9,0-.2-1.3-.9-.6-.3,2.7.6,2.2c0,.5,0,1,0,1.6s-.3,0-.3.5c0,.8-.3,2.3.6,2,0,.8,0,1.7,0,2.5-.5.2-.4.9,0,1.2,0,.6.3,1.2.3,1.9-.5.5-.6,2.2.3,1.9,0,.4,0,.8,0,1.2s-1,1.1.3.9c0,.3,0,.6,0,.9s-1,1.1.3.9c0,.3,0,.6,0,.9s-1,1.1.3.9c0,.3,0,.6,0,.9-.5,0-.5.9,0,.9,0,.3,0,.6,0,.9,0,.8-.3,1.4.6,1.2,0,.3,0,.6,0,.9l-.3.5.3.2c0,.2,0,.9,0,.9,0,.7-.2,1.1.6.9,0,.3,0,.6,0,.9-.6.5-.4.7.3.6,0,.3,0,.7,0,.9s-.9,1.1.3.9c0,.3,0,.6,0,.9-.6.5-.4.7.3.6,0,.3,0,.7,0,.9s-.9,1.1.3.9c0,.3,0,.6,0,.9s-1,1.1.3.9c0,.3,0,.6,0,.9s-1,1.1.3.9c0,.2,0,.4,0,.6,0,.4-1,1.8.3,1.6,0,.3,0,.7,0,.9-.8-.1-.6.2-.6.9,0,0-.2,0-.3,0-.7.2-1.8,0-1.6.9-.2,0-.4,0-.6,0-.5-.6-.7-.4-.6.3-.3,0-.7,0-.9,0s-1.1-.9-.9.3c-.4,0-.8,0-1.2,0l-.2-.3-.4.3c-.4,0-.8.3-1.2.3-.5-.5-1.9-.6-1.6.3-.6,0-1.2,0-1.9,0s-.5-.2-1.6,0-1.2.2-1.9.3c-.6-.5-2.5-.7-2.2.3-.4,0-.8,0-1.2,0s-1.1-1-.9.3c-.5,0-1.1,0-1.6,0s0-.3-.5-.3c-.8,0-2.3-.3-2,.6-.8,0-1.7,0-2.5,0-1.3,0-2.7-.4-4.2-.3s-1.2-.3-1.1.6c-1.6,0-3.1,0-4.7,0s-3.8,0-5.9,0-1.5,0-2.2,0c.2-1.4-1.4-.3-1.9-.3-1.5,0-2.4-.2-3.7-.3s-2.2,0-3.7,0-1.5,0-2.2,0c.2-1.4-1.4-.3-1.9-.3s-.6,0-.9,0c0-.5.1-.7-.5-.6l-.2.3c-.8-.3-1.4-.5-2.2-.9.1-.6,0-.7-.6-.6-2.2-2.2-2.5-3.3-.9-6.2.6.1.7,0,.6-.6.2-.3.3-.6.6-.9.7,0,1.2-.5,1.2-1.2.7-.5.8-.6,1.6-.9s1.5,0,1.2-.9c.7-.3,1.2-.4,1.9-.6s1.4,0,1.2-.9c.4,0,.9,0,1.2,0,.7-.1,1.8-.2,1.6-.9.2,0,.4,0,.6,0,.5.6.7.4.6-.3.3,0,.7,0,.9,0,.5.6.7.4.6-.3,0,0,0-.5,0-.6.2-.6.8-1-.3-.9,0-.2,0-.4,0-.6,0-.3.9-1.1-.3-.9,0-.2,0-.4,0-.6,0-.3.9-1.1-.3-.9,0-.3,0-.6,0-.9s1-1.1-.3-.9c0-.2,0-.4,0-.6,0-.3.9-1.1-.3-.9,0-.3,0-.6,0-.9s1-1.1-.3-.9c0-.2,0-.4,0-.6,0-.3.9-1.1-.3-.9,0-.3,0-.6,0-.9.5-.1.4-.7,0-.9,0-.4-.3-.8-.3-1.2.6-.5.5-1.5-.3-1.2,0-.3,0-.6,0-.9l.3-.2-.3-.4c0-.5-.2-1.1-.3-1.6.6-.5.5-1.5-.3-1.2,0-.3,0-.6,0-.9s1-1.1-.3-.9c0-.4,0-.8,0-1.2s1-1.1-.3-.9c0-.3,0-.6,0-.9s1-1.4-.3-1.2c0-.3,0-.6,0-.9s1-1.4-.3-1.2c0-.4,0-.9,0-1.2s1-1.4-.3-1.2c0-.3,0-.6,0-.9.6-.5.4-.7-.3-.6,0-.3,0-.7,0-.9s.9-1.1-.3-.9c0-.2,0-.4,0-.6,0-.3.9-1.1-.3-.9,0-.3,0-.6,0-.9.6-.5.4-.7-.3-.6,0-.3,0-.7,0-.9s.9-1.1-.3-.9c0-.2,0-.4,0-.6,0-.3.9-1.1-.3-.9,0-.2,0-.4,0-.6,0-.3.9-1.1-.3-.9,0-.2,0-.4,0-.6,0-.3.9-1.1-.3-.9,0-.3,0-.6,0-.9.6-.5.4-.7-.3-.6,0-.3,0-.7,0-.9s.9-1.1-.3-.9c0-.2,0-.4,0-.6,0-.3.9-1.1-.3-.9,0-.3,0-.6,0-.9s1-1.1-.3-.9c0-.2,0-.4,0-.6,0-.3.9-1.1-.3-.9,0-.3,0-.6,0-.9.6-.5.4-.7-.3-.6,0-.3,0-.7,0-.9s.9-1.1-.3-.9c0-.3,0-.6,0-.9.6-.5.4-.7-.3-.6,0-.3,0-.7,0-.9s.9-1.1-.3-.9c0-.2,0-.4,0-.6.6-.5.4-.7-.3-.6,0-.3,0-.6,0-.9s.3-.2.3-.5c0-.6-.2-2.1-.9-1.7,0-.2,0-.4,0-.6.6-.5.4-.7-.3-.6,0-.3,0-.6,0-.9.6-.5.4-.7-.3-.6,0-.2,0-.4,0-.6l.3-.5-.3-.2c0-.2,0-.9,0-.9,0-.7,0-.7-.6-.6,0-.3,0-.6,0-.9.6-.5.4-.7-.3-.6,0-.2,0-.4,0-.6,0-.3.9-1.1-.3-.9,0-.3,0-.6,0-.9s1-1.1-.3-.9c0-.3,0-.6,0-.9.6-.5.4-.7-.3-.6,0-.3,0-.7,0-.9s.9-1.1-.3-.9c0-.2,0-.4,0-.6,0-.3.9-1.1-.3-.9,0-.3,0-.6,0-.9s1-1.4-.3-1.2c0-.3,0-.6,0-.9s1-1.1-.3-.9c0-.3,0-.6,0-.9s1-1.1-.3-.9c0-.4,0-.9,0-1.2s1-1.4-.3-1.2c0-.2,0-.4,0-.6,0-.3.9-1.1-.3-.9,0-.4,0-.9,0-1.2s1-1.4-.3-1.2c0-.2,0-.4,0-.6,0-.4,1-1.4-.3-1.2,0-.4,0-.8,0-1.2l.3-.2c0-.2-.3-.4-.3-.4-.1-.4-.2-.8-.3-1.2.6-.5.5-1.5-.3-1.2,0-.3,0-.6,0-.9s0-.5,0-.9,0-.9,0-1.2-.3-.9-.3-.9c-2.8-17.4-5.4-35.3-4.7-53,.2-4.8,1.7-19,5.5-22.2s1.5.2.8-1.6c1.8-.8,2.9-2.7,4.4-3.9s2.5-1.5,3.7-2.4c-1.4,4.5-.4,13.8,6.2,10.7s8.4-6.4,16.3-7,5.7.5,6.4.1c2.3-1.1,2-6.5,1.6-8.5.8-.1,3.2.3,3.6-.3s.3-4.6.5-5.7c1.7-9.8,9.6-20.5,19.3-23.5,5.6-1.8,12.6-1.6,9.6,6.2s-4.3,7.6-6.7,11c2.5-.7,4.8-2.8,7.4-3.2,5.1-.8,12.7,2,6.3,7.1ZM162,100.9c-10.8,1.3-14.8,13-11.8,22.4s20.9,21,30.5,9.6c10.5-12.5-2.4-34-18.7-32.1ZM121.6,102.4c-9.5,1.1-17.4,10-18.3,19.3-1.3,14.8,12.7,23.3,25.5,15.8s13.9-37.5-7.2-35.1ZM146.1,139.4c-3.1.5-5.2,4.6-5.5,7.5-.4,4.3,1.9,9.8,4.6,13s8.9,7.7,11.5,1.9-1.1-24.1-10.7-22.4Z"/>
  <path class="st0" d="M218.6,49.6c.1.2.2.5.3.6-.1.6,0,.7.6.6,0,.2.2.5.3.6-.1.6,0,.7.6.6,0,0,0,.3,0,.3,0,.7,0,.7.6.6.6,1.2.8,1.9,1.2,3.1s.8,2.3,1.1,3.4,0,1.1.8.9c0,.2,0,.4,0,.6s-.3.2-.2.4c0,.6.4,2.7,1.2,2.4,0,.2,0,.4,0,.6,0,.3-.9,1.1.3.9,0,.2,0,.4,0,.6,0,.3-.9,1.1.3.9,0,.2,0,.4,0,.6-.6.5-.4.7.3.6,0,.2,0,.4,0,.6-.6.5-.4.7.3.6,0,.2,0,.4,0,.6,0,.3-.9,1.1.3.9,0,.2,0,.4,0,.6,0,.3-.9,1.1.3.9,0,.2,0,.4,0,.6-.6.5-.4.7.3.6,0,.3,0,.7,0,.9s-.9,1.1.3.9c0,.3,0,.6,0,.9-.6.5-.4.7.3.6,0,.3,0,.6,0,.9-.6.5-.4.7.3.6,0,.3,0,.6,0,.9s-1,1.4.3,1.2c0,.2,0,.4,0,.6,0,.4-1,1.8.3,1.6,0,.3,0,.6,0,.9s-.3,0-.3.5c0,.8-.3,2.3.6,2,0,.5,0,1,0,1.6-.1,2.3-.2,3.2,0,5.6s.2,3.8,0,6.5,0,2.6,0,4.3,0,.8,0,1.2c-1-.4-.8,1.9-.3,2.5,0,.6-.2,1.2-.3,1.9-.2,1.1,0,.9,0,1.6s0,.6,0,.9c-1.3-.2-.3,1-.3,1.2.1,1.6,0,3.6,0,5.3-1.3-.2-.3.7-.3.9s0,.6,0,.9c-1.3-.2-.3.9-.3,1.2s0,.4,0,.6c-.2,0-.5,0-.6,0s-.6,2.5-.6,2.7c0,.5.3.6.3.7,0,.3,0,.6,0,.9-1.2-.1-.4.6-.3.9s0,.4,0,.6c-1.2-.1-.4.6-.3.9s0,.4,0,.6c-1.2-.1-.4.6-.3.9s0,.4,0,.6c-.1,0-.6,0-.6,0,0,.1-.3,2.3-.3,2.6s.3.4.3.5c0,.2,0,.4,0,.6-1.3-.1-.4.6-.3.9s0,.4,0,.6c-.7-.1-.9.1-.3.6,0,.3,0,.6,0,.9-.7-.1-.9.1-.3.6,0,.2,0,.4,0,.6-1.3-.1-.3.6-.3.9s0,.4,0,.6c-.9-.2-.6.4-.7,1-.4,1.5-.6,3-.8,4.3s0,.4,0,.6c-.8-.3-1.1,1.7-1.2,2.5s0,.9,0,1.2c-.7,0-.8,0-.3.6-.1.4-.2.8-.3,1.2-.2,0-.5,0-.6,0s-.8,2.9-1,3.4,0,.7,0,.9c-.8-.2-.8.6-.9,1.2s0,.7,0,.9c-.9-.2-.7.6-.9,1.2-.3.9-.4,1.5-.9,2.5-.6,0-.7,0-.6.6-.3.5-.6,1.3-.9,1.9-.6,0-.7,0-.6.6-.9,1.3-1.6,2.7-2.5,4-.6-.1-.7,0-.6.6-1.3,1.8-2.6,3.5-4,5.3-.6-.1-.7,0-.6.6-.3.4-.3,1.3-1.2,1.2h-.3c0-1.4-.5-3.6-.6-5.1-.7-12.3-1.2-24.7-2.5-36.9s-3.9-32.1-9.8-40.2c-1.1-1.5-4-3.2-4.2-5s.3-2.4.3-3.6c0-2.4.2-5.4,0-7.8s-1.3-5.2-1.5-7.6c1.7-.5,3.4-.2,5-.4,5.5-.7,20.3-8.6,23.5-13.1s2.5-6.4,2.5-9.5l1.2.6Z"/>
  <path class="st2" d="M44.6,62.6c2.5,8.6,12.6,10.7,20.4,12s10.7,1.4,16.5,0h.3c0,.3,0,.6,0,.9s-1,1.8.3,1.6c0,.4,0,.8,0,1.2s-1,1.1.3.9c0,.4,0,.9,0,1.2-.6.5-.4.7.3.6,0,.3,0,.6,0,.9-.6.5-.4.7.3.6,0,.3,0,.7,0,.9-.6.5-.4.7.3.6,1.4,5.1,3.4,7.2,5.3,11.5s0,.9-.8,1.6c-3.8,3.1-5.3,17.4-5.5,22.2-.7,17.6,1.9,35.6,4.7,53h-1.6c-1.3-1.1-2.5-2.8-3.7-4,0-.6-.3-1-.9-.9-.6-.7-1.2-1.5-1.9-2.2.1-.6,0-.7-.6-.6-.3-.4-.6-.8-.9-1.2,0-.6,0-.7-.6-.6-.6-.7-1-1.5-1.6-2.2.1-.6,0-.7-.6-.6-.9-1.2-1.6-2.5-2.5-3.7.1-.6,0-.7-.6-.6-1.6-2.3-3.1-4.8-4.7-7.1,0-.6,0-.7-.6-.6-.1-.3-.3-.9-.3-.9,0-.6,0-.7-.6-.6-.3-.6-1.7-3.6-1.9-3.7,0-.6,0-.7-.6-.6-.5-.8-1.7-4.2-1.9-4.3,0-.7,0-.7-.6-.6-.6-2-1.8-3.8-2.5-5.9s0-1.4-.9-1.2c-.1-.4-.3-1.5-.3-1.6,0-.7,0-.7-.6-.6,0-.4-.3-1.5-.3-1.6,0-.7,0-.7-.6-.6,0-.4-.3-1.5-.3-1.6,0-.7,0-.7-.6-.6,0-.4-.3-1.5-.3-1.6,0-.7,0-.7-.6-.6-.2-.6-.8-3.3-.9-3.4,0-.7,0-.7-.6-.6,0-.3-.2-1.8-.3-1.9,0-.7,0-.7-.6-.6-.3-.9-.4-1.9-.6-2.8s-.1-1.8-.9-1.6c-.1-.5-.2-2.4-.3-2.5,0-.7,0-.7-.6-.6,0-.4,0-1.4,0-1.6,0-.7,0-.7-.6-.6,0-.2,0-.4,0-.6.6-.5.4-.7-.3-.6,0-.2,0-.4,0-.6.6-.5.4-.7-.3-.6,0-.2,0-.4,0-.6.6-.5.4-.7-.3-.6,0-.2,0-.4,0-.6.6-.5.4-.7-.3-.6,0-.2,0-.4,0-.6,0-.3.9-1.1-.3-.9,0-.2,0-.4,0-.6,0-.3.9-1.1-.3-.9,0-.2,0-.4,0-.6l.3-.5-.3-.2c0-.2,0-.9,0-.9,0-.7.2-1.1-.6-.9,0-.3,0-.6,0-.9s1-1.1-.3-.9c0-.4,0-.9,0-1.2s1-1.4-.3-1.2c0-.2,0-.4,0-.6,0-.7.2-.4,0-1.6s-.2-1.2-.3-1.9c.5-.1.3-.7,0-.9-.1-.8-.2-1.7-.3-2.5.8-.5,0-1.4,0-1.9-.2-1.3-.3-2.1-.3-3.4,0-3.6,0-7.3,0-10.9s.3-2.6.3-3.4h.6Z"/>
  <path class="st7" d="M81.2,58.6c-1.2-.1-1.6,1.7-2.5,2.6s-2.9,2.4-4.1,3c-4,1.8-18.9,2-23.3,1.1s-5.1-2.4-5.5-5.7.7-4,0-5.7c1.2-2.6.9-4.1,3.6-6.2,5.9-4.5,20-5,25.9-.2s5.9,6.1,5.9,11Z"/>
  <path class="st2" d="M202.4,39.6c-.2,1.3,1.6.4,2.2.3s.4,0,.6,0c-.1,1.3.8.3.9.3.2,0,1,.2,1.2.3,0,.9,0,.5.6.6s.6,0,.9,0c0,.7,0,.7.6.6.1.1,2.3.7,3.3,1.6s1.3,2.1,1.4,2.2c-.3.9.6.6.6.6.1.2.7,3.8.6,4.2-.2,4.1-4,5.3-7.2,6.5s-13.1,4-16.9,4-7.6-1.8-8.9-3.8-.3-2.1-1.2-1.9c0-.2,0-.4,0-.6,0-1,0-1.4,0-2.5s0-.4,0-.6c.7,0,.8,0,.3-.6.7-2.4,1.1-2.6,2.5-4.3,1-.3,2.2-1.5,2.5-2.5.3-.2.5-.2.6-.3.6,0,.7,0,.6-.6.6-.4,1.8-.9,1.9-.9.7,0,.7,0,.6-.6.9-.3,1.8-.7,2.8-.9.5.5.7.4.6-.3.2,0,.4,0,.6,0,.3,0,1.1.9.9-.3.3,0,.6,0,.9,0,.5,0,1.7,1,1.6-.3,1.5,0,3.1,0,4.7,0Z"/>
  <path class="st5" d="M127.2,85c.4,2.1.8,7.5-1.6,8.5s-4.9-.3-6.4-.1c-7.9.6-10.2,4.1-16.3,7s-7.6-6.2-6.2-10.7c1.6-5.1,6.7-10.8,11.7-12.7,7.7-2.9,16.9-1.1,18.7,8Z"/>
  <path class="st6" d="M167.3,76.6c6,.7,13.7,7.1,15.8,12.7,1.2,3.3,1.8,7.6-2.1,9.2s-7.4-2.3-10.3-3.5c-6.2-2.4-10.4-1.3-16.3-2.4s-5.5-3.9-3.3-7.9c3.1-5.6,9.8-8.9,16.2-8.2Z"/>
  <path class="st1" d="M45.8,53.9c.7,1.8-.2,3.7,0,5.7.4,3.3,2.3,5.1,5.5,5.7s19.4.6,23.3-1.1,3.2-2,4.1-3,1.3-2.8,2.5-2.6c0,.5,0,1,0,1.6v.6c-.4.1-.7,1.2-1.1,1.5-2.6,2.5-6.5,3.9-8.5,6.1s-1.6,3.4-.3,4.3c2.5,1.8,5.9.8,8.6.2s1.5.1,2,0v1.6l-.3.3c-5.8,1.3-10.7.9-16.5,0s-17.9-3.4-20.4-12-.3-.7-.3-.9c-.1-.5.3-1.5-.3-1.9,0-.2,0-.4,0-.6.5-.3.3-1.1.3-1.6,0-.3,0-.7,0-.9l.3-.6c0,0,0-.2,0-.3l.3-.3c.3-.8.8-1.3.9-1.6Z"/>
  <path class="st1" d="M217.3,48.3c0,.2,0,.4,0,.6,0,3-.7,7-2.5,9.5-3.3,4.5-18.1,12.4-23.5,13.1s-3.4-.1-5,.4c0-.2,0-.4,0-.6,0-1.9,2.2-1,3.8-1.3,5.2-.9,8.1-4.9,1.8-7.2s-7.6-.8-9.6-4.8,0-.5,0-.6l.3-.3c1.3,1.9,6.6,3.8,8.9,3.8,3.8,0,13.1-2.6,16.9-4s7-2.3,7.2-6.5-.5-4-.6-4.2c.6.6,1.7,1.5,2.5,2.2Z"/>
  <path class="st2" d="M83.7,62.3c-.5.5-.4.7.3.6.1.7,0,1.7,0,2.5-.5.3-.5,1.6,0,1.9,0,.6,0,1.4,0,1.9-.7-.1-.7,0-.6.8l.3.2c-.2.7-.3.7-.6,1.2-.8-.1-.6.2-.6.9-.2.2-.6.6-.6.6-.5.1-1.4-.1-2,0-2.7.6-6,1.6-8.6-.2s-.7-3.2.3-4.3c2-2.2,5.9-3.6,8.5-6.1s.7-1.4,1.1-1.5,1,.2,1.2-.3c1.4.6.9.6,1.2,1.9Z"/>
  <path class="st7" d="M182.2,57.9c2,4,6.1,3.5,9.6,4.8,6.3,2.3,3.4,6.3-1.8,7.2s-3.7-.6-3.8,1.3c-.8-1.2-2.2-.8-3.2-1.9-1.5-1.7-2.5-7.6-2-9.8s1.3-.7,1.2-1.7Z"/>
  <path class="st9" d="M207.1,251.7c-.9.2-.6-.5-.6-1.1-.2-5.3.2-10.8.3-16,.5.5.3,1.1.3,1.7.1,5.1,0,10.3,0,15.4Z"/>
  <path class="st9" d="M43.6,76.9c-.5-2.9-.4-6.2-.3-9.2s-.1-1.2.3-1.7c0,3.6,0,7.2,0,10.9Z"/>
  <path class="st9" d="M117.3,291.1c-1.7.5-4.2.5-5.9,0,2.1,0,3.9,0,5.9,0Z"/>
  <path class="st9" d="M229.2,93.7c-.2-2.4-.1-3.3,0-5.6.5,1.6.5,4,0,5.6Z"/>
  <path class="st9" d="M127.2,290.8c-1.5.6-3.6.3-5.3.3-.2-.9.5-.6,1.1-.6,1.5,0,2.9.3,4.2.3Z"/>
  <path class="st9" d="M207.4,265.1c-.9.2-.6-.5-.6-1.1,0-1.5.3-2.9.3-4.2.5,1.5.3,3.6.3,5.3Z"/>
  <path class="st9" d="M223.9,141.5c0,1.5-.9,3.9-1.6,5.3.2-1.3.5-2.8.8-4.3s-.2-1.2.7-1Z"/>
  <path class="st9" d="M205.5,208.2c-.2,0-.6,0-.6,0-.1-.1,0-3,0-3.6s.3-.7.3-.8c.5,1.2.3,3,.3,4.3Z"/>
  <path class="st9" d="M229.2,104.5c0-1.7-.2-2.4,0-4.3.5,1.1.5,3.2,0,4.3Z"/>
  <path class="st9" d="M222.3,56.1c.8-.2.7.4.8.8.4,1,.8,2.4,1,3.5-.8.2-.6-.4-.8-.9-.3-1.2-.7-2.3-1.1-3.4Z"/>
  <path class="st9" d="M103.6,290.5c-.9.5-2.8.5-3.7,0,1.5,0,1.9-.2,3.7,0Z"/>
  <path class="st9" d="M206.8,230c-.2,0-.6,0-.6,0-.1-.2-.1-3.4.3-3.7.2,1.3.3,2.3.3,3.7Z"/>
  <path class="st7" d="M186.6,44c-.3,1-1.5,2.2-2.5,2.5.5-.6.7-1.3,1.5-2s.8-.4.9-.4Z"/>
  <path class="st9" d="M204.6,181.5c-.9-.9,0-2.7,0-3.4h.3c0,.9,0,1.8,0,2.7s-.3.7-.3.8Z"/>
  <path class="st9" d="M227.6,122.8c0,1-.5,2.5-.9,3.4,0,0-.3-.2-.3-.7s.5-2.6.6-2.7.4,0,.6,0Z"/>
  <path class="st9" d="M205.8,214.4c-1,.3-.7-1.7-.6-2.6s.3-.4.3-.5c.5.8.3,2.1.3,3.1Z"/>
  <path class="st9" d="M220.5,153c-.2.7-.7,3-1,3.4s-.4,0-.6,0c.1-.5.9-3.2,1-3.4s.4,0,.6,0Z"/>
  <path class="st9" d="M205.2,200.2c-1,.4-.8-2.2-.3-2.8,0,.8.3,1.7.3,2.8Z"/>
  <path class="st9" d="M225.7,131.8c0,.9-.2,2.3-.6,3.1,0,0-.3-.2-.3-.5s.2-2.5.3-2.6.5,0,.6,0Z"/>
  <path class="st9" d="M204.6,192.4c-.1-1.4,0-1.5,0-2.8.5.7.5,2.1,0,2.8Z"/>
  <path class="st9" d="M156.1,252c1-.4.8,2.2.3,2.8,0-.9-.2-1.8-.3-2.8Z"/>
  <path class="st9" d="M206.2,223.8c-.2-1.6,0-1.6,0-2.8.5.7.6,2.2,0,2.8Z"/>
  <path class="st7" d="M181.3,54.5c-.5-.7-.5-1.8,0-2.5,0,1.1,0,1.4,0,2.5Z"/>
  <path class="st9" d="M184.7,289c-.6.6-1.9.5-2.5,0,1.1,0,1-.2,2.5,0Z"/>
  <path class="st9" d="M160.8,279.7c.8-.2.9,1.9,1.2,2.8-.9.2-1-2-1.2-2.8Z"/>
  <path class="st9" d="M132.2,290.5c-.7.5-1.7.3-2.5.3-.3-.9,1.2-.7,2-.6s.4.3.5.3Z"/>
  <path class="st9" d="M207.4,271c-.2-1.5,0-1.4,0-2.5.5.6.6,1.9,0,2.5Z"/>
  <path class="st9" d="M148.7,252c-.9.3-.7-1.2-.6-2s.3-.4.3-.5c.5.7.3,1.7.3,2.5Z"/>
  <path class="st9" d="M229.2,105.8c0,1.1-.2,1.6-.3,2.5-.5-.6-.7-2.9.3-2.5Z"/>
  <path class="st9" d="M225.1,63.8c-.8.3-1.1-1.8-1.2-2.4s.2-.4.2-.4c.5.6.9,2,.9,2.8Z"/>
  <path class="st9" d="M229.2,86.5c-.9.3-.7-1.2-.6-2s.3-.4.3-.5c.4.8.3,1.6.3,2.5Z"/>
  <path class="st9" d="M148.4,248c-.9.6-.7-2.1-.6-2.2.7-.7.9.6.9.6-1-.2-.3.6-.3,1.6Z"/>
  <path class="st7" d="M181.3,55.1c1-.2.9,1.3,1.2,1.9l-.3.3c-.3-.7-.9-1.4-.9-2.2Z"/>
  <path class="st9" d="M222.3,147.4c-.1.7-.5,2.8-1.2,2.5.2-.8.5-2.7,1.2-2.5Z"/>
  <path class="st7" d="M87.1,172.5c0,0,.2.5.3.9-1.1.2-1.3-.5-1.9-.9h1.6Z"/>
  <path class="st7" d="M204.6,39.9c-.6,0-2.4,1-2.2-.3.7,0,1.6-.2,2.2.3Z"/>
  <path class="st9" d="M213.6,289c-.5.4-1.7.6-2.2,0,1.2-.1,1.2,0,2.2,0Z"/>
  <path class="st9" d="M138.1,289.9c-.8.1-1.1.3-2.2.3-.4-1,1.6-.8,2.2-.3Z"/>
  <path class="st9" d="M206.2,218.5c-.9.3-.7-.9-.6-1.7s.3-.4.3-.5c.5.6.3,1.4.3,2.2Z"/>
  <path class="st9" d="M93.4,210.7c.7-.3.9,1.1.9,1.7s-.3.4-.3.5c-.5-.6-.5-1.5-.6-2.2Z"/>
  <path class="st9" d="M107.3,290.8c.4,0,2.1-1,1.9.3-.6,0-1.3.2-1.9-.3Z"/>
  <path class="st9" d="M95.8,290.2c.4,0,2.1-1,1.9.3-.6,0-1.3.2-1.9-.3Z"/>
  <path class="st9" d="M44.2,61.7h-.3c0-.5,0-1,0-1.9.6.3.2,1.3.3,1.9Z"/>
  <path class="st9" d="M43.9,82.2c0-.4-.8-1.3,0-1.9,0,.4.8,1.3,0,1.9Z"/>
  <path class="st9" d="M149.3,259.5c-.9.3-.8-1.3-.3-1.9,0,.5.3,1,.3,1.9Z"/>
  <path class="st7" d="M84,67.3c-.5-.3-.5-1.6,0-1.9,0,.8,0,1,0,1.9Z"/>
  <path class="st9" d="M220.1,287.4c.3.8-1.1.7-1.9.9-.2-.9,1.1-.8,1.9-.9Z"/>
  <path class="st9" d="M141.5,289.6c-.4.4-1.3.6-1.6,0,1.1-.2,1,0,1.6,0Z"/>
  <path class="st9" d="M144.9,289.3c-.4,0-.8.3-1.6.3-.3-.9,1-.9,1.6-.3Z"/>
  <path class="st9" d="M150.5,246.4c.4,0,1.8-1,1.6.3-.5,0-1.1.1-1.6-.3Z"/>
  <path class="st9" d="M228.8,83.1c-1.3.2-.4-1.1-.3-1.6.4.5.3,1,.3,1.6Z"/>
  <path class="st9" d="M156.7,260.1c1.3-.2.4,1.1.3,1.6-.4-.5-.3-1-.3-1.6Z"/>
  <path class="st9" d="M228.5,111.7c0-.7-.2-.4,0-1.6.6.3.4,1.2,0,1.6Z"/>
  <path class="st9" d="M93,279.3c0,.7-.5,1.2-1.2,1.2.7-.8.2-.5,1.2-1.2Z"/>
  <path class="st7" d="M82.2,77.2c-1.3.2-.3-1.2-.3-1.6.4.5.3,1,.3,1.6Z"/>
  <path class="st9" d="M153.6,285.6c-1.3.2-.4-1.1-.3-1.6.4.5.3,1,.3,1.6Z"/>
  <path class="st7" d="M197.8,39.6c.2,1.3-1,.4-1.6.3.3-.5,1.1-.3,1.6-.3Z"/>
  <path class="st9" d="M218.6,49.6l-1.2-.6c0-.2,0-.4,0-.6.7.6.5.1,1.2,1.2Z"/>
  <path class="st9" d="M173.8,288c.8,0,1.8-.3,1.6.6-.8,0-1.8.3-1.6-.6Z"/>
  <path class="st9" d="M177.6,288.7c.4,0,1.8-1,1.6.3-.5,0-1.1.1-1.6-.3Z"/>
  <path class="st9" d="M156.7,259.2c-.4-.4-.6-1.3,0-1.6.1,1,0,.9,0,1.6Z"/>
  <path class="st9" d="M101.7,275c.3.8-.9.8-1.6.9-.2-.8.9-.7,1.6-.9Z"/>
  <path class="st9" d="M49.2,110.4c.8-.2.8.8.9,1.6-.8.2-.8-.9-.9-1.6Z"/>
  <path class="st9" d="M214.2,276.6c-.4.5-1.9,0-1.6-.6.7.2,1.1.5,1.6.6Z"/>
  <path class="st9" d="M152.7,287.4c.2.8-.9.7-1.6.9-.2-.9.9-.7,1.6-.9Z"/>
  <path class="st9" d="M44.6,89c-.3-.4-.6-1.3,0-1.6.2,1.2,0,.9,0,1.6Z"/>
  <path class="st9" d="M218.9,157.3c-.1.6-.2,1.4-.9,1.2.1-.6.2-1.4.9-1.2Z"/>
  <path class="st9" d="M227.9,121c0,.5,0,.9-.3,1.2,0-.3-1-1.4.3-1.2Z"/>
  <path class="st9" d="M228.5,80.9c-1.3.2-.4-.9-.3-1.2.4.4.3.8.3,1.2Z"/>
  <path class="st9" d="M172.3,288c-.4,0-.6,0-1.2,0,.1-.5,1.1-.5,1.2,0Z"/>
  <path class="st9" d="M44.6,89.6c1.3-.2.4.9.3,1.2-.4-.4-.3-.8-.3-1.2Z"/>
  <path class="st9" d="M218,277.8c.6.2,1.4,0,1.2.9-.6-.2-1.4,0-1.2-.9Z"/>
  <path class="st9" d="M95.8,277.5c.2.9-.7.7-1.2.9-.2-.9.7-.7,1.2-.9Z"/>
  <path class="st9" d="M98.9,275.9c.2.9-.6.7-1.2.9-.2-.8.6-.8,1.2-.9Z"/>
  <path class="st9" d="M210.5,275.6c-.4,0-1.4,1-1.2-.3.5,0,.9,0,1.2.3Z"/>
  <path class="st9" d="M150.2,268.2c1-.2.5.5.6,1.2-.9.2-.6-.5-.6-1.2Z"/>
  <path class="st9" d="M101.7,258.5c.8-.3.9.7.3,1.2,0-.2-.2-.7-.3-1.2Z"/>
  <path class="st9" d="M148.7,255.7c-.4-.3-.5-1.1,0-1.2,0,.5,0,1.1,0,1.2Z"/>
  <path class="st9" d="M57,130c.9-.2.7.6.9,1.2-.8.2-.7-.6-.9-1.2Z"/>
  <path class="st9" d="M101.1,254.2c.8-.3.9.7.3,1.2,0-.3-.3-.5-.3-1.2Z"/>
  <path class="st9" d="M156.1,249.8c0-.5,0-1,0-1.2.4.3.5,1.1,0,1.2Z"/>
  <path class="st9" d="M100.2,248c1.3-.2.4.9.3,1.2-.4-.4-.3-.8-.3-1.2Z"/>
  <path class="st9" d="M99.9,245.8c1.3-.2.4.9.3,1.2-.4-.4-.3-.8-.3-1.2Z"/>
  <path class="st9" d="M99.6,243.3c1.3-.2.4.9.3,1.2-.4-.4-.3-.8-.3-1.2Z"/>
  <path class="st7" d="M82.5,60.4c-.2.5-.9.2-1.2.3v-.6c.6-.2.8.1,1.2.3Z"/>
  <path class="st9" d="M89.9,193c1.3-.2.4.9.3,1.2-.4-.4-.3-.8-.3-1.2Z"/>
  <path class="st9" d="M89,186.8c1.3-.2.4.9.3,1.2-.4-.4-.3-.8-.3-1.2Z"/>
  <path class="st9" d="M204.6,186.8c-.5-.1-.5-1.1,0-1.2,0,.2,0,.8,0,1.2Z"/>
  <path class="st9" d="M88.4,182.8c1.3-.2.4.9.3,1.2-.4-.4-.3-.8-.3-1.2Z"/>
  <path class="st9" d="M88.1,180.9c1.3-.2.4.9.3,1.2-.4-.4-.3-.8-.3-1.2Z"/>
  <path class="st9" d="M87.4,176.6c.8-.3.9.7.3,1.2,0-.4-.3-.5-.3-1.2Z"/>
  <path class="st9" d="M228.5,112.6c0,.5,0,.9-.3,1.2,0-.3-1-1.4.3-1.2Z"/>
  <path class="st9" d="M218,159.5c-.1.6-.2,1.4-.9,1.2.2-.6,0-1.4.9-1.2Z"/>
  <path class="st9" d="M81.9,168.5c-.2-.2-.5-.5-.9-.9.6,0,.9.3.9.9Z"/>
  <path class="st9" d="M98.6,238.4c1.2-.1.4.6.3.9-.4-.2-.3-.6-.3-.9Z"/>
  <path class="st9" d="M226,130.3c0,.3,0,.8-.3.9,0-.3-.9-1.1.3-.9Z"/>
  <path class="st9" d="M227.6,75.6c-1.2.1-.4-.6-.3-.9.4.2.3.6.3.9Z"/>
  <path class="st9" d="M227,72.5c-1.2.1-.4-.6-.3-.9.4.2.3.6.3.9Z"/>
  <path class="st9" d="M134.7,290.2c-.1.4-.6.3-.9.3-.2-1.3.7-.3.9-.3Z"/>
  <path class="st9" d="M98,234.9c1.2-.1.4.6.3.9-.4-.1-.3-.6-.3-.9Z"/>
  <path class="st7" d="M82.5,79.4c-1.3.2-.3-.7-.3-.9.4.2.3.6.3.9Z"/>
  <path class="st9" d="M216.1,288.7c-.1.4-.6.3-.9.3-.1-1.2.6-.4.9-.3Z"/>
  <path class="st9" d="M149,288.7c-.1.4-.6.3-.9.3-.1-1.2.6-.4.9-.3Z"/>
  <path class="st9" d="M44.2,85.6c0-.6,0-.9,0-.9.3.2.5.8,0,.9Z"/>
  <path class="st9" d="M169.2,287.4c.7,0,1.1-.2.9.6-1.7-.2-.6-.4-.9-.6Z"/>
  <path class="st7" d="M195.3,39.9c.1,1.3-.6.4-.9.3.2-.4.6-.3.9-.3Z"/>
  <path class="st9" d="M226.7,71c-1.3.1-.4-.6-.3-.9.4.1.3.6.3.9Z"/>
  <path class="st9" d="M153.3,283.4c-1.3.2-.3-.7-.3-.9.4.1.3.6.3.9Z"/>
  <path class="st9" d="M153,281.5c-1.3.2-.3-.7-.3-.9.4.2.3.6.3.9Z"/>
  <path class="st7" d="M84,69.1c0,.5-.2.7-.3.9l-.3-.2c0-.7-.1-.9.6-.8Z"/>
  <path class="st9" d="M44.9,92.1c1.3-.2.3.7.3.9-.4-.1-.3-.6-.3-.9Z"/>
  <path class="st9" d="M152.7,279.7c-1.2.1-.4-.6-.3-.9.4.2.3.6.3.9Z"/>
  <path class="st9" d="M45.2,94c.8-.1.6.2.6.9-.2-.2-.6.6-.6-.9Z"/>
  <path class="st9" d="M228.2,119.1c0,.3,0,.8-.3.9,0-.3-1-1.1.3-.9Z"/>
  <path class="st9" d="M152.1,276.2c-1.2.1-.4-.6-.3-.9.4.2.3.6.3.9Z"/>
  <path class="st9" d="M45.8,97.1c1.2-.1.4.6.3.9-.4-.2-.3-.6-.3-.9Z"/>
  <path class="st9" d="M224.2,139.9c0,.3.1.8-.3.9,0-.3-.9-1.1.3-.9Z"/>
  <path class="st9" d="M87.4,175.6c-.4-.3-.4-.6,0-.9,0,.4,0,.8,0,.9Z"/>
  <path class="st9" d="M104.2,272.8c1.1-.1.5.3.3.9-.4-.1-.3-.6-.3-.9Z"/>
  <path class="st9" d="M150.8,271.9c.3.3.4-.7.6.9-.8.1-.6-.2-.6-.9Z"/>
  <path class="st9" d="M97.7,233.4c1.2-.1.4.6.3.9-.4-.1-.3-.6-.3-.9Z"/>
  <path class="st9" d="M103.9,271.3c1.2-.1.4.6.3.9-.4-.1-.3-.6-.3-.9Z"/>
  <path class="st9" d="M158.6,270.7c1.3-.1.4.6.3.9-.4-.2-.3-.6-.3-.9Z"/>
  <path class="st9" d="M103.6,269.7c1.2-.1.4.6.3.9-.4-.2-.3-.6-.3-.9Z"/>
  <path class="st9" d="M88.7,185.3c1.2-.1.4.6.3.9-.4-.1-.3-.6-.3-.9Z"/>
  <path class="st9" d="M103.3,267.9c1.3-.2.3.7.3.9-.4-.1-.3-.6-.3-.9Z"/>
  <path class="st9" d="M157.7,266.3c.8-.1.6.2.6.9-.3-.3-.3.7-.6-.9Z"/>
  <path class="st9" d="M150.2,267.2c-.5,0-.5-.9,0-.9,0,.4,0,.6,0,.9Z"/>
  <path class="st9" d="M89.3,189.3c1.3-.2.3.7.3.9-.4-.1-.3-.6-.3-.9Z"/>
  <path class="st9" d="M103,266.3c1.2-.1.4.6.3.9-.4-.2-.3-.6-.3-.9Z"/>
  <path class="st9" d="M89.6,191.2c1.3-.2.3.7.3.9-.4-.2-.3-.6-.3-.9Z"/>
  <path class="st9" d="M225.1,135.6c0,.3,0,.8-.3.9,0-.3-.9-1.1.3-.9Z"/>
  <path class="st9" d="M90.2,195.2c1.2-.1.4.6.3.9-.4-.1-.3-.6-.3-.9Z"/>
  <path class="st9" d="M90.6,196.7c1.2-.1.4.6.3.9-.4-.1-.3-.6-.3-.9Z"/>
  <path class="st9" d="M150.2,265.4c-1.3.2-.3-.7-.3-.9.4.2.3.6.3.9Z"/>
  <path class="st9" d="M102.7,264.4c1.3-.2.3.7.3.9-.4-.1-.3-.6-.3-.9Z"/>
  <path class="st9" d="M91.2,200.2c1.3-.2.3.7.3.9-.4-.2-.3-.6-.3-.9Z"/>
  <path class="st9" d="M91.5,202c1.3-.1.4.6.3.9-.4-.2-.3-.6-.3-.9Z"/>
  <path class="st9" d="M157.1,262.9c.7-.1.7,0,.6.8l-.3.2c0-.1-.3-.4-.3-.9Z"/>
  <path class="st9" d="M102.4,262.9c1.2-.1.4.6.3.9-.4-.2-.3-.6-.3-.9Z"/>
  <path class="st9" d="M149.9,263.5c-1.3.2-.3-.7-.3-.9.4.2.3.6.3.9Z"/>
  <path class="st9" d="M102.4,262c0-.5,0-.9,0-.9.4.2.5.8,0,.9Z"/>
  <path class="st9" d="M149.6,261.6c-1.3.2-.3-.7-.3-.9.4.2.3.6.3.9Z"/>
  <path class="st9" d="M226.7,127.2c0,.3,0,.8-.3.9,0-.3-.9-1.1.3-.9Z"/>
  <path class="st9" d="M97.4,231.8c1.2-.1.4.6.3.9-.4-.1-.3-.6-.3-.9Z"/>
  <path class="st9" d="M46.1,98.6c1.3-.1.4.6.3.9-.4-.1-.3-.6-.3-.9Z"/>
  <path class="st7" d="M206.2,40.2c0,0-1,1-.9-.3.4,0,.7,0,.9.3Z"/>
  <path class="st9" d="M225.7,66.9c-1.2.1-.4-.6-.3-.9.4.2.3.6.3.9Z"/>
  <path class="st9" d="M94.3,215.1c1.2-.1.4.6.3.9-.4-.2-.3-.6-.3-.9Z"/>
  <path class="st9" d="M226.4,128.7c0,.3,0,.8-.3.9,0-.3-.9-1.1.3-.9Z"/>
  <path class="st9" d="M100.8,252.3c1.3-.2.3.7.3.9-.4-.2-.3-.6-.3-.9Z"/>
  <path class="st9" d="M94.9,218.5c1.2-.1.4.6.3.9-.4-.2-.3-.6-.3-.9Z"/>
  <path class="st9" d="M100.5,250.2c1.3-.2.3.7.3.9-.4-.1-.3-.6-.3-.9Z"/>
  <path class="st9" d="M155.2,246.7c-.1-.8.2-.6.9-.6.1.4-.3.6-.3.6h-.6Z"/>
  <path class="st9" d="M95.5,221.9c1.2-.1.4.6.3.9-.4-.2-.3-.6-.3-.9Z"/>
  <path class="st9" d="M95.8,223.5c1.3-.2.3.7.3.9-.4-.1-.3-.6-.3-.9Z"/>
  <path class="st9" d="M96.1,225.3c1.2-.1.4.6.3.9-.4-.2-.3-.6-.3-.9Z"/>
  <path class="st9" d="M225.4,65.4c-1.3.1-.3-.6-.3-.9.4.1.3.6.3.9Z"/>
  <path class="st9" d="M96.5,226.9c1.2-.1.4.6.3.9-.4-.1-.3-.6-.3-.9Z"/>
  <path class="st9" d="M98.9,239.9c1.2-.1.4.6.3.9-.4-.1-.3-.6-.3-.9Z"/>
  <path class="st9" d="M97.1,230.3c1.2-.1.4.6.3.9-.4-.2-.3-.6-.3-.9Z"/>
  <path class="st7" d="M44.6,62.6h-.6c0-.3,0-.6,0-.9h.3c0,.2.2.6.3.9Z"/>
  <path class="st9" d="M43.9,59.2c0-.7.2-1,.3-1.6,0,.5.2,1.3-.3,1.6Z"/>
  <path class="st9" d="M153.6,286.5c-.1.6,0,.7-.6.9,0-.7-.2-1.1.6-.9Z"/>
  <path class="st7" d="M83.1,71.3c-.2.4,0,.4-.6.9,0-.7-.2-1.1.6-.9Z"/>
  <path class="st9" d="M98.3,236.8c.7-.1.9.1.3.6,0,0-.3,0-.3-.6Z"/>
  <path class="st9" d="M51.7,117.3c.7,0,.7,0,.6.6-.2-.2-.4.6-.6-.6Z"/>
  <path class="st9" d="M96.8,228.7c.7-.1.9.1.3.6,0,0-.3,0-.3-.6Z"/>
  <path class="st9" d="M99.3,241.8c.7-.1.9.1.3.6,0,0-.3,0-.3-.6Z"/>
  <path class="st9" d="M65.4,146.4c.6,0,.7,0,.6.6-.1-.1,0,.4-.6-.6Z"/>
  <path class="st9" d="M219.8,51.4c.3.3.2-.5.6.6-.6.1-.7,0-.6-.6Z"/>
  <path class="st9" d="M47,102.7c.7-.1.9.1.3.6,0,0-.2-.2-.3-.6Z"/>
  <path class="st7" d="M187.8,43c0,.6,0,.7-.6.6,0,0-.2-.1.6-.6Z"/>
  <path class="st9" d="M47.4,103.9c.7-.1.9.1.3.6,0,0-.2-.2-.3-.6Z"/>
  <path class="st9" d="M50.8,114.8c.7,0,.7,0,.6.6-.2-.2-.3.6-.6-.6Z"/>
  <path class="st9" d="M227.9,77.2c-.7.1-.9-.1-.3-.6,0,0,.2.1.3.6Z"/>
  <path class="st9" d="M46.7,101.4c.7-.1.9.1.3.6,0,0-.2-.1-.3-.6Z"/>
  <path class="st9" d="M95.2,220.3c.7-.1.9.1.3.6,0,0-.3,0-.3-.6Z"/>
  <path class="st9" d="M46.4,100.2c.7-.1.9.1.3.6,0,0-.3,0-.3-.6Z"/>
  <path class="st9" d="M94.6,216.9c.7-.1.9.1.3.6,0,0-.3,0-.3-.6Z"/>
  <path class="st7" d="M214.2,45.5c.6.5.3.3.6.6,0,0-.9.2-.6-.6Z"/>
  <path class="st7" d="M84,62.9c-.7.1-.9-.1-.3-.6,0,0,.2.1.3.6Z"/>
  <path class="st9" d="M101.7,257.6c0-.6,0-.6,0-.6l.3.4-.3.2Z"/>
  <path class="st9" d="M94,213.8c.7-.1.9.1.3.6,0,0-.3,0-.3-.6Z"/>
  <path class="st9" d="M47.7,105.1c.7,0,.7,0,.6.6-.2-.2-.3.6-.6-.6Z"/>
  <path class="st9" d="M56.1,127.8c.7,0,.7,0,.6.6-.2-.3-.3.6-.6-.6Z"/>
  <path class="st9" d="M226,68.2c-.7.1-.9-.1-.3-.6,0,0,.2.1.3.6Z"/>
  <path class="st9" d="M93,209.5c.7-.1.9.1.3.6,0,0-.2-.1-.3-.6Z"/>
  <path class="st9" d="M92.7,207.9c.7-.1.9.1.3.6,0,0-.2-.1-.3-.6Z"/>
  <path class="st9" d="M92.7,207.3c0-.5,0-.4,0-.6l.3.2-.3.5Z"/>
  <path class="st9" d="M92.1,205.1c.7,0,.7,0,.6.6-.2-.2-.4.6-.6-.6Z"/>
  <path class="st9" d="M94.3,289.9l.2-.3c.6-.1.5,0,.5.6-.3,0-.5-.3-.6-.3Z"/>
  <path class="st9" d="M91.8,203.6c.7-.1.9.1.3.6,0,0-.3,0-.3-.6Z"/>
  <path class="st9" d="M90.9,198.6c.7-.1.9.1.3.6,0,0-.3,0-.3-.6Z"/>
  <path class="st9" d="M228.2,78.7c-.7.1-.9-.1-.3-.6,0,0,.3,0,.3.6Z"/>
  <path class="st9" d="M157.7,265.7c0-.5,0-.6,0-.6l.3.4-.3.2Z"/>
  <path class="st9" d="M48.3,107.3c.7,0,.7,0,.6.6-.1-.2-.5.5-.6-.6Z"/>
  <path class="st7" d="M193.7,40.2c0,.7,0,.8-.6.3,0,0,0-.3.6-.3Z"/>
  <path class="st7" d="M181.6,50.8c.5.5.4.7-.3.6,0-.5.3-.6.3-.6Z"/>
  <path class="st9" d="M60.4,137.1c.7,0,.7,0,.6.6-.2-.3-.3.6-.6-.6Z"/>
  <path class="st9" d="M220.5,52.4c0,0,.5-.1.6,0s0,.5,0,.6c-.7,0-.7,0-.6-.6Z"/>
  <path class="st9" d="M158.3,268.8c0-.5,0-.4,0-.6l.3.2-.3.5Z"/>
  <path class="st9" d="M226.4,69.4c-.7.1-.9-.1-.3-.6,0,0,.3,0,.3.6Z"/>
  <path class="st9" d="M158.3,269.4c.7-.1.9.1.3.6,0,0-.2,0-.3-.6Z"/>
  <path class="st9" d="M224.8,137.1c0,.5-.3.6-.3.6-.6-.5-.4-.7.3-.6Z"/>
  <path class="st9" d="M150.8,271l-.3-.2.3-.5c0,.3,0,.4,0,.6Z"/>
  <path class="st9" d="M224.5,138.7c0,.5-.3.6-.3.6-.6-.5-.4-.7.3-.6Z"/>
  <path class="st9" d="M88.1,179.7c0,0-.3-.2-.3-.4l.3-.2c0,0,.3.2.3.4l-.3.2Z"/>
  <path class="st9" d="M218.9,50.2c.3.3,0-.4.6.6-.6.1-.7,0-.6-.6Z"/>
  <path class="st9" d="M158.9,272.2c.7-.1.9.1.3.6,0,0-.3,0-.3-.6Z"/>
  <path class="st9" d="M206.8,176.3c-.4.4-.5.5-.6.6-.1-.6,0-.7.6-.6Z"/>
  <path class="st9" d="M159.2,273.4c.7-.1.9.1.3.6,0,0-.2-.1-.3-.6Z"/>
  <path class="st9" d="M151.8,274.4c-.7.1-.9-.1-.3-.6,0,0,.3,0,.3.6Z"/>
  <path class="st9" d="M104.5,274.4c.1.7-.1.9-.6.3,0,0,.6-.3.6-.3Z"/>
  <path class="st9" d="M103,274.7c.1.7-.1.9-.6.3,0,0,.2-.2.6-.3Z"/>
  <path class="st9" d="M211.4,170.4c-.5.7-.6.6-.6.6-.1-.6,0-.7.6-.6Z"/>
  <path class="st9" d="M159.5,275c.7-.1.9.1.3.6,0,0-.2-.1-.3-.6Z"/>
  <path class="st9" d="M208,275.3s-.2.5-.6.3c-.1-.4.3-.6.3-.6l.3.3Z"/>
  <path class="st9" d="M66.3,148c.6,0,.7,0,.6.6,0,0-.1.4-.6-.6Z"/>
  <path class="st9" d="M55.1,125.6c.7,0,.7,0,.6.6-.2-.3-.3.6-.6-.6Z"/>
  <path class="st9" d="M212.1,275.9c-.5.6-.7.4-.6-.3.5,0,.6.3.6.3Z"/>
  <path class="st9" d="M214.6,165.7c-.5.8-.6.6-.6.6,0-.6,0-.7.6-.6Z"/>
  <path class="st9" d="M45.8,96.4c0-.3,0-.4,0-.6l.3.2-.3.5Z"/>
  <path class="st9" d="M159.9,276.2c.7-.1.9.1.3.6,0,0-.2-.2-.3-.6Z"/>
  <path class="st9" d="M78.4,164.8c.6-.1.7,0,.6.6,0,0-.2-.2-.6-.6Z"/>
  <path class="st9" d="M152.4,277.8c-.7.1-.9-.1-.3-.6,0,0,.3,0,.3.6Z"/>
  <path class="st9" d="M54.2,123.5c.7,0,.7,0,.6.6-.2-.3-.3.6-.6-.6Z"/>
  <path class="st9" d="M160.2,277.5c.7,0,.8,0,.3.6,0,0-.2-.2-.3-.6Z"/>
  <path class="st9" d="M216.1,163.2c-.5.9-.6.6-.6.6,0-.6,0-.7.6-.6Z"/>
  <path class="st9" d="M220.1,279c1.1.4.5.6.6.6-.6,0-.7,0-.6-.6Z"/>
  <path class="st9" d="M76.9,162.9c.6-.1.7,0,.6.6,0,0-.2,0-.6-.6Z"/>
  <path class="st9" d="M74.7,160.1c.6-.1.7,0,.6.6,0,0-.1,0-.6-.6Z"/>
  <path class="st9" d="M62.9,142.1c.6,0,.7,0,.6.6-.3-.3,0,.4-.6-.6Z"/>
  <path class="st9" d="M91.2,281.5c.1.6,0,.7-.6.6.5-.9.6-.6.6-.6Z"/>
  <path class="st7" d="M207.4,40.6c.4.1.8-.3.6.6-.6,0-.7.2-.6-.6Z"/>
  <path class="st9" d="M227.3,73.8c-.7.1-.9-.1-.3-.6,0,0,.3,0,.3.6Z"/>
  <path class="st9" d="M223.3,286.2s0,.4,0,.6-.5,0-.6,0c0-.7,0-.7.6-.6Z"/>
  <path class="st7" d="M209,41.2c1.2.1.4.4.6.6-.7,0-.7,0-.6-.6Z"/>
  <path class="st9" d="M167,287.1l.2-.3c.6-.1.5,0,.5.6-.3,0-.5-.3-.6-.3Z"/>
  <path class="st7" d="M82.8,81.2c-.7.1-.9-.1-.3-.6,0,0,.2.1.3.6Z"/>
  <path class="st9" d="M71.6,155.8c.6-.1.7,0,.6.6,0,0-.1,0-.6-.6Z"/>
  <path class="st9" d="M146.8,289c-.4,0-.6,0-.6,0l.4-.3.2.3Z"/>
  <path class="st9" d="M53.3,121.3c.7,0,.7,0,.6.6-.3-.3-.2.6-.6-.6Z"/>
  <path class="st9" d="M150.5,288.4s0,.3-.6.3c-.1-.7.1-.9.6-.3Z"/>
  <path class="st7" d="M83.4,84.3c-.7.1-.9-.1-.3-.6,0,0,.2.2.3.6Z"/>
  <path class="st9" d="M217.7,288.4s0,.3-.6.3c-.1-.7.1-.9.6-.3Z"/>
  <path class="st9" d="M91.5,288.4c.6-.1.7,0,.6.6-1.1-.5-.4-.4-.6-.6Z"/>
  <path class="st7" d="M190.3,41.5c0,.7,0,.7-.6.6.2-.2-.5-.2.6-.6Z"/>
  <path class="st7" d="M83.1,82.8c-.7.1-.9-.1-.3-.6,0,0,.2.1.3.6Z"/>
  <path class="st9" d="M221.1,151.1c-.1.4-.3.6-.3.6-.5-.5-.4-.7.3-.6Z"/>
  <path class="st9" d="M44.2,56.7c.1-.4.3-.6.3-.6l-.3.6Z"/>
  <path class="st9" d="M44.6,55.8c0-.2.3-.3.3-.3l-.3.3Z"/>
  <path class="st7" d="M81.9,74.7h-.3l.3-.3c0,.1,0,.2,0,.3Z"/>
  <path class="st4" d="M121.6,102.4c21.1-2.4,23.2,25.7,7.2,35.1s-26.8-1-25.5-15.8,8.8-18.3,18.3-19.3ZM125,109.9c-12.4,1.8-10.4,27.1,3.4,22.6s9.9-24.5-3.4-22.6Z"/>
  <path class="st4" d="M162,100.9c16.3-2,29.3,19.6,18.7,32.1-9.6,11.4-26.5,2.5-30.5-9.6s.9-21.1,11.8-22.4ZM159.5,108.6c-.9.2-2,.7-2.7,1.3-9,6.8-.6,25.8,10.1,21.6s4.7-25-7.4-22.9Z"/>
  <path class="st6" d="M146.1,139.4c9.5-1.6,13.7,15.6,10.7,22.4s-8.7,1.4-11.5-1.9-5-8.7-4.6-13,2.4-7,5.5-7.5Z"/>
  <path class="st3" d="M125,109.9c13.3-1.9,14.2,19,3.4,22.6s-15.7-20.8-3.4-22.6Z"/>
  <path class="st3" d="M159.5,108.6c12.1-2.1,17.3,19.1,7.4,22.9s-19.1-14.8-10.1-21.6,1.8-1.2,2.7-1.3Z"/>
</svg>